<svg xmlns="http://www.w3.org/2000/svg" width="199.449" height="64.083" viewBox="0 0 199.449 64.083">
  <g id="Logo" transform="translate(-630.353 -508.168)">
    <g id="Group_9" data-name="Group 9" transform="translate(630.353 556.813)">
      <g id="Group_6" data-name="Group 6" transform="translate(0 0)">
        <g id="Group_5" data-name="Group 5">
          <path id="Path_1" data-name="Path 1" d="M735.081,1887.625a3.791,3.791,0,0,1-2.625-.72,2,2,0,0,1-.507-1.529v-6.959h1.472v6.313q0,1.022.343,1.251a3.579,3.579,0,0,0,1.317.171Z" transform="translate(-731.949 -1875.907)" fill="#83a79a"/>
          <path id="Path_2" data-name="Path 2" d="M763.533,1900.555h-.482a3.049,3.049,0,0,1-2.044-.573,2.334,2.334,0,0,1-1.414.573h-2.421v-1.464a14.888,14.888,0,0,0,2.567-.106q.491-.172.491-1.312v-1.737H761.7v2.024q0,1.091,1.831,1.131Zm-3.205-6.934a1.008,1.008,0,0,1-.3.736.98.98,0,0,1-.724.3q-1.12,0-1.121-1.039,0-.875,1.063-.875Q760.328,1892.747,760.328,1893.622Z" transform="translate(-754.711 -1888.839)" fill="#83a79a"/>
          <path id="Path_3" data-name="Path 3" d="M823,1930.048a7.722,7.722,0,0,1-1.349-.074,2.5,2.5,0,0,1-.744-.5,2.222,2.222,0,0,1-1.4.572h-3.173v-1.464h2.723a1.146,1.146,0,0,0,.85-.25,1.276,1.276,0,0,0,.237-.881v-2.025h1.472v2.025a1.089,1.089,0,0,0,.343.959,2.108,2.108,0,0,0,1.039.171Zm-4.129,2.8a.8.8,0,0,1-.27.622.928.928,0,0,1-.646.246,1.125,1.125,0,0,1-.711-.229.761.761,0,0,1-.327-.638q0-.81.94-.81Q818.867,1932.042,818.867,1932.852Zm2.821,0a.8.8,0,0,1-.27.622.927.927,0,0,1-.646.246,1.125,1.125,0,0,1-.711-.229.762.762,0,0,1-.327-.638q0-.81.94-.81Q821.687,1932.042,821.688,1932.852Z" transform="translate(-808.098 -1918.33)" fill="#83a79a"/>
          <path id="Path_4" data-name="Path 4" d="M889.951,1927.685a2.891,2.891,0,0,1-.5,1.766,1.881,1.881,0,0,1-1.619.76,2.761,2.761,0,0,1-1.987-.99,2.379,2.379,0,0,1-1.791.99,2.757,2.757,0,0,1-2-1.177,2.542,2.542,0,0,1-1.922,1.014h-1.872v-1.464h1.766q1.022,0,1.022-1.1v-2.058h1.439v2.178a1.106,1.106,0,0,0,.376.862,1.313,1.313,0,0,0,.908.338q1.005,0,1.006-.921v-2.457h1.439v2.178a1.115,1.115,0,0,0,.372.858,1.28,1.28,0,0,0,.9.342q1.031,0,1.03-.921v-2.457h1.439Z" transform="translate(-863.981 -1918.33)" fill="#83a79a"/>
          <path id="Path_5" data-name="Path 5" d="M1060.874,1897.555a2.5,2.5,0,0,1-.589,1.643,1.918,1.918,0,0,1-1.537.752h-7.768a1.91,1.91,0,0,1-1.545-.736,2.527,2.527,0,0,1-.564-1.659v-2.224h1.471v2.025a1.292,1.292,0,0,0,.234.877,1.124,1.124,0,0,0,.846.255h6.869a1.156,1.156,0,0,0,.854-.255,1.263,1.263,0,0,0,.241-.877v-2.025h1.488Zm-6.721-4.677a.841.841,0,0,1-.27.633.913.913,0,0,1-.654.258q-1.03,0-1.03-.891,0-.8.932-.8Q1054.151,1892.076,1054.152,1892.878Zm2.821,0a.836.836,0,0,1-.274.633.926.926,0,0,1-.658.258q-1.022,0-1.022-.891,0-.8.932-.8Q1056.973,1892.076,1056.973,1892.878Z" transform="translate(-1017.946 -1888.233)" fill="#83a79a"/>
          <path id="Path_6" data-name="Path 6" d="M1191.02,1887.625a3.793,3.793,0,0,1-2.625-.72,2,2,0,0,1-.507-1.529v-6.959h1.472v6.313q0,1.022.343,1.251a3.584,3.584,0,0,0,1.317.171Z" transform="translate(-1143.399 -1875.907)" fill="#83a79a"/>
          <path id="Path_7" data-name="Path 7" d="M1219.136,1885.507H1213.7v-1.464h1.259v-7.972h1.472v5.258q1.415-1.677,2.519-1.677a2.254,2.254,0,0,1,1.88,1.006,3.444,3.444,0,0,1,.67,2.1,3.057,3.057,0,0,1-.572,1.929A2.128,2.128,0,0,1,1219.136,1885.507Zm-.065-4.391q-.721,0-1.66,1.12a7.04,7.04,0,0,0-1.136,1.806h2.862q.85,0,.85-1.333Q1219.987,1881.115,1219.071,1881.116Z" transform="translate(-1166.691 -1873.79)" fill="#83a79a"/>
          <path id="Path_8" data-name="Path 8" d="M1312.945,1887.625a3.791,3.791,0,0,1-2.625-.72,2,2,0,0,1-.507-1.529v-6.959h1.472v6.313q0,1.022.343,1.251a3.58,3.58,0,0,0,1.317.171Z" transform="translate(-1253.427 -1875.907)" fill="#83a79a"/>
          <path id="Path_9" data-name="Path 9" d="M1343.238,1930.048h-.458a2.813,2.813,0,0,1-1.905-.572,2.327,2.327,0,0,1-1.406.572h-2.421v-1.464a14.867,14.867,0,0,0,2.568-.106q.49-.172.491-1.32v-1.73h1.5v2.025a.959.959,0,0,0,.49.959,3.4,3.4,0,0,0,1.145.171Zm-3.475,2.665a1.006,1.006,0,0,1-1.022,1.023q-1.1,0-1.1-1.023,0-.875,1.055-.875Q1339.763,1931.838,1339.763,1932.713Z" transform="translate(-1278.003 -1918.33)" fill="#83a79a"/>
          <path id="Path_10" data-name="Path 10" d="M1399.782,1898.159a2.539,2.539,0,0,1-.564,1.652,1.9,1.9,0,0,1-1.538.744h-3.148v-1.464h2.69a1.148,1.148,0,0,0,.85-.25,1.279,1.279,0,0,0,.237-.881v-2.024h1.471Zm-1.979-4.6a.824.824,0,0,1-.273.629.935.935,0,0,1-.658.254,1.163,1.163,0,0,1-.72-.221.806.806,0,0,1-.319-.662q0-.81.949-.809Q1397.8,1892.747,1397.8,1893.556Zm2.821,0a.823.823,0,0,1-.274.629.936.936,0,0,1-.658.254,1.162,1.162,0,0,1-.719-.221.8.8,0,0,1-.318-.662q0-.81.948-.809Q1400.625,1892.747,1400.625,1893.556Z" transform="translate(-1329.88 -1888.839)" fill="#83a79a"/>
          <path id="Path_11" data-name="Path 11" d="M1464.182,1929.794a4.068,4.068,0,0,1-1.015,2.78,3.4,3.4,0,0,1-2.665,1.194h-1.963l-.237-1.514h1.66a3.211,3.211,0,0,0,1.823-.506,1.839,1.839,0,0,0,.884-1.611v-4.71h1.513Z" transform="translate(-1387.426 -1918.33)" fill="#83a79a"/>
          <path id="Path_12" data-name="Path 12" d="M1545.465,1885.507h-1.438v-9.436h1.438Z" transform="translate(-1464.785 -1873.79)" fill="#83a79a"/>
          <path id="Path_13" data-name="Path 13" d="M1630.826,1918.329a3.538,3.538,0,0,1-1.561,3.189,3.651,3.651,0,0,1-2.044.606h-2.281a3.206,3.206,0,0,1-2.519-1.153,3.879,3.879,0,0,1-.964-2.642v-3.041h1.381v3.205a2.022,2.022,0,0,0,.719,1.6,2.487,2.487,0,0,0,1.676.588h1.9a2.38,2.38,0,0,0,1.553-.564,1.781,1.781,0,0,0,.736-1.439q0-.728-1.006-.957a2.191,2.191,0,0,0-.368-.057H1626v-2.527a2.567,2.567,0,0,1,.727-1.876,2.514,2.514,0,0,1,1.873-.74h1.766l.057,1.382h-1.766a1.1,1.1,0,0,0-1.1.7,6.449,6.449,0,0,0-.18,1.676,8.088,8.088,0,0,1,2.322.213A1.748,1.748,0,0,1,1630.826,1918.329Z" transform="translate(-1534.66 -1906.686)" fill="#83a79a"/>
          <path id="Path_14" data-name="Path 14" d="M1732.585,1929.794a4.069,4.069,0,0,1-1.014,2.78,3.4,3.4,0,0,1-2.666,1.194h-1.962l-.238-1.514h1.661a3.211,3.211,0,0,0,1.823-.506,1.839,1.839,0,0,0,.884-1.611v-4.71h1.513Z" transform="translate(-1629.638 -1918.33)" fill="#83a79a"/>
          <path id="Path_15" data-name="Path 15" d="M1807.744,1918.439a3.291,3.291,0,0,1-1.108,2.5,3.678,3.678,0,0,1-2.588,1.03h-1.905l-.188-1.464h1.856a2.526,2.526,0,0,0,1.733-.6,2.2,2.2,0,0,0,.728-1.646,5.5,5.5,0,0,1-2.674-.491,2.5,2.5,0,0,1-1.112-2.357,3.261,3.261,0,0,1,.875-2.595,2.783,2.783,0,0,1,1.8-.458,2.184,2.184,0,0,1,2.24,1.406,8.415,8.415,0,0,1,.344,2.829Zm-1.472-1.66v-1.517q0-1.444-1.153-1.443a.966.966,0,0,0-.948.475,2.749,2.749,0,0,0-.172,1.14,1.127,1.127,0,0,0,.744,1.2A5.18,5.18,0,0,0,1806.272,1916.779Z" transform="translate(-1697.546 -1906.534)" fill="#83a79a"/>
          <path id="Path_16" data-name="Path 16" d="M1863.643,1854.164h-3.688a8.557,8.557,0,0,0-.858.074,1,1,0,0,0-.5.164,2.576,2.576,0,0,0-.507.817l-1.333-.523a4.392,4.392,0,0,1,.949-1.472,3.794,3.794,0,0,1,1.929-.5q.434-.032,2.1-.032.621,0,1.905.025Zm-2.011,10.245h-1.439v-9.435h1.439Z" transform="translate(-1747.001 -1852.692)" fill="#83a79a"/>
          <path id="Path_17" data-name="Path 17" d="M1940.134,1918.4h-.973a3.563,3.563,0,0,1-1.084,2.67,3.737,3.737,0,0,1-2.711,1.051h-1.9l-.2-1.464h1.856a2.557,2.557,0,0,0,1.742-.606,2.2,2.2,0,0,0,.736-1.646,5.516,5.516,0,0,1-2.683-.5,2.489,2.489,0,0,1-1.12-2.349,3.229,3.229,0,0,1,.892-2.595,2.689,2.689,0,0,1,1.741-.442,2.3,2.3,0,0,1,2.354,1.458,9.2,9.2,0,0,1,.377,2.957h.973Zm-2.486-1.464v-1.4a1.846,1.846,0,0,0-.3-1.054,1.052,1.052,0,0,0-.923-.5.967.967,0,0,0-.948.474,2.724,2.724,0,0,0-.171,1.137,1.123,1.123,0,0,0,.776,1.194A5.459,5.459,0,0,0,1937.648,1916.939Z" transform="translate(-1816.042 -1906.686)" fill="#83a79a"/>
          <path id="Path_18" data-name="Path 18" d="M2003.087,1898.159a2.492,2.492,0,0,1-.588,1.652,1.936,1.936,0,0,1-1.546.744h-2.412v-1.464a17.175,17.175,0,0,0,2.575-.09q.491-.18.49-1.328c0-.192,0-.48-.011-.869s-.013-.678-.013-.868h1.5Zm-1.447-4.538a1.008,1.008,0,0,1-.3.736.978.978,0,0,1-.723.3q-1.12,0-1.121-1.039,0-.875,1.063-.875Q2001.64,1892.747,2001.64,1893.622Z" transform="translate(-1874.95 -1888.839)" fill="#83a79a"/>
          <path id="Path_19" data-name="Path 19" d="M2105.873,1918.329a3.54,3.54,0,0,1-1.562,3.189,3.654,3.654,0,0,1-2.044.606h-2.28a3.205,3.205,0,0,1-2.519-1.153,3.882,3.882,0,0,1-.964-2.642v-3.041h1.38v3.205a2.019,2.019,0,0,0,.721,1.6,2.486,2.486,0,0,0,1.676.588h1.9a2.382,2.382,0,0,0,1.554-.564,1.782,1.782,0,0,0,.735-1.439q0-.728-1.006-.957a2.176,2.176,0,0,0-.368-.057h-2.044v-2.527a2.572,2.572,0,0,1,.728-1.876,2.514,2.514,0,0,1,1.873-.74h1.766l.057,1.382h-1.766a1.1,1.1,0,0,0-1.1.7,6.547,6.547,0,0,0-.179,1.676,8.1,8.1,0,0,1,2.323.213A1.749,1.749,0,0,1,2105.873,1918.329Z" transform="translate(-1963.351 -1906.686)" fill="#83a79a"/>
          <path id="Path_20" data-name="Path 20" d="M2211.586,1887.625a3.792,3.792,0,0,1-2.625-.72,2,2,0,0,1-.506-1.529v-6.959h1.472v6.313q0,1.022.343,1.251a3.574,3.574,0,0,0,1.316.171Z" transform="translate(-2064.38 -1875.907)" fill="#83a79a"/>
          <path id="Path_21" data-name="Path 21" d="M2243.875,1905.18a2.5,2.5,0,0,1-.728,1.75,2.25,2.25,0,0,1-1.685.777,6.471,6.471,0,0,1-3.025-1.088,4.7,4.7,0,0,1-2.119.491l-1.634.024v-1.472h2.045a3.4,3.4,0,0,1-.811-2.028,2.3,2.3,0,0,1,2.4-2.4,2.5,2.5,0,0,1,1.767.793l-.965-1,1.1-1Q2243.873,1903.529,2243.875,1905.18Zm-4.458-1.439a1.059,1.059,0,0,0-.367-.825,1.274,1.274,0,0,0-.875-.327.761.761,0,0,0-.646.336,1.147,1.147,0,0,0-.229.711q0,.956,1.178,1.415A1.375,1.375,0,0,0,2239.417,1903.74Zm2.912,1.53q0-.884-1.947-2.846a2.034,2.034,0,0,1,.451,1.4,1.9,1.9,0,0,1-.908,1.872,2.926,2.926,0,0,0,1.439.5Q2242.33,1906.194,2242.33,1905.27Z" transform="translate(-2088.05 -1895.417)" fill="#83a79a"/>
          <path id="Path_22" data-name="Path 22" d="M2386.08,1907.134a2.962,2.962,0,0,1-1.407-.253,19.143,19.143,0,0,1-1.537-1.35,2.8,2.8,0,0,1-2.69,1.766,2.713,2.713,0,0,1-2.8-2.8,4.685,4.685,0,0,1,1.708-2.985l-.417-.475.989-1,4.408,4.685a5.618,5.618,0,0,0,.745.711,2.289,2.289,0,0,0,1.006.229Zm-4.212-2.543a1.08,1.08,0,0,0-.277-.809l-1.187-1.178a10.224,10.224,0,0,0-.858.868,1.815,1.815,0,0,0-.433,1.119,1.205,1.205,0,0,0,.385.928,1.361,1.361,0,0,0,.965.355,1.456,1.456,0,0,0,.985-.363A1.165,1.165,0,0,0,2381.868,1904.591Z" transform="translate(-2217.058 -1895.417)" fill="#83a79a"/>
          <path id="Path_23" data-name="Path 23" d="M2462.633,1898.159a2.492,2.492,0,0,1-.589,1.652,1.936,1.936,0,0,1-1.546.744h-2.411v-1.464a17.2,17.2,0,0,0,2.576-.09q.491-.18.49-1.328c0-.192,0-.48-.012-.869s-.012-.678-.012-.868h1.505Zm-1.448-4.538a1.014,1.014,0,0,1-.3.736.983.983,0,0,1-.725.3q-1.121,0-1.12-1.039,0-.875,1.063-.875Q2461.186,1892.747,2461.185,1893.622Z" transform="translate(-2289.653 -1888.839)" fill="#83a79a"/>
          <path id="Path_24" data-name="Path 24" d="M2523.814,1887.625a3.789,3.789,0,0,1-2.625-.72,1.994,1.994,0,0,1-.506-1.529v-6.959h1.472v6.313q0,1.022.344,1.251a3.562,3.562,0,0,0,1.315.171Z" transform="translate(-2346.141 -1875.907)" fill="#83a79a"/>
          <path id="Path_25" data-name="Path 25" d="M2552.947,1915.639a3.286,3.286,0,0,1-.629,2.077,2.287,2.287,0,0,1-1.921.892,2.647,2.647,0,0,1-1.661-.556,7.364,7.364,0,0,1-2.495.352v-1.464q1.252,0,1.464-.245a4.493,4.493,0,0,0,.09-1.131q.074-3.04,2.64-3.039a2.207,2.207,0,0,1,1.915.981A3.652,3.652,0,0,1,2552.947,1915.639Zm-1.284-.082q0-1.594-1.266-1.594-1.293,0-1.292,1.652,0,1.529,1.292,1.529Q2551.661,1917.144,2551.663,1915.557Z" transform="translate(-2369.205 -1906.686)" fill="#83a79a"/>
          <path id="Path_26" data-name="Path 26" d="M2633.757,1887.625a3.794,3.794,0,0,1-2.625-.72,1.994,1.994,0,0,1-.506-1.529v-6.959h1.471v6.313q0,1.022.344,1.251a3.572,3.572,0,0,0,1.316.171Z" transform="translate(-2445.356 -1875.907)" fill="#83a79a"/>
          <path id="Path_27" data-name="Path 27" d="M2667.792,1927.685a2.893,2.893,0,0,1-.5,1.766,1.883,1.883,0,0,1-1.62.76,2.761,2.761,0,0,1-1.987-.99,2.378,2.378,0,0,1-1.791.99,2.755,2.755,0,0,1-2-1.177,2.546,2.546,0,0,1-1.922,1.014H2656.1v-1.464h1.766q1.022,0,1.021-1.1v-2.058h1.439v2.178a1.108,1.108,0,0,0,.377.862,1.312,1.312,0,0,0,.908.338q1.006,0,1-.921v-2.457h1.439v2.178a1.118,1.118,0,0,0,.372.858,1.281,1.281,0,0,0,.9.342q1.03,0,1.03-.921v-2.457h1.441Z" transform="translate(-2468.344 -1918.33)" fill="#83a79a"/>
        </g>
      </g>
    </g>
    <g id="Group_10" data-name="Group 10" transform="translate(694.651 508.168)">
      <path id="Path_45" data-name="Path 45" d="M1035.135,632.595c5.035-3.423,14.472,1.678,21.078,11.393q.572.841,1.09,1.69a40.283,40.283,0,0,0-2.742-4.672c-6.606-9.716-16.043-14.817-21.078-11.393-4.745,3.226-3.888,12.869,1.754,22.1C1031.128,643.466,1030.9,635.474,1035.135,632.595Z" transform="translate(-1019.799 -627.047)" fill="#b78e1d"/>
      <path id="Path_46" data-name="Path 46" d="M741.89,615.04h-8.3a8.861,8.861,0,0,1-8.851-8.851v-20.9h5.65v20.9a3.2,3.2,0,0,0,3.2,3.2h9.239Z" transform="translate(-724.742 -585.286)" fill="#83a79a"/>
      <path id="Path_47" data-name="Path 47" d="M1249.806,1018.475h-8.3a8.861,8.861,0,0,1-8.851-8.851v-6.4h5.65v6.4a3.2,3.2,0,0,0,3.2,3.2h9.239Z" transform="translate(-1215.036 -988.721)" fill="#83a79a"/>
      <path id="Path_48" data-name="Path 48" d="M1638.191,1599.807l-.009,0Z" transform="translate(-1606.49 -1564.602)" fill="#0c1241"/>
      <path id="Path_49" data-name="Path 49" d="M1773.966,1018.475h-25.172a8.861,8.861,0,0,1-8.851-8.851v-6.4h5.649v6.4a3.205,3.205,0,0,0,3.2,3.2h26.113Z" transform="translate(-1704.721 -988.721)" fill="#83a79a"/>
      <path id="Path_50" data-name="Path 50" d="M1057.2,793.329c-5.035,3.423-14.472-1.678-21.078-11.393-3.877-5.7-5.917-11.726-5.923-16.422-1.539,4.885.405,12.781,5.408,20.14,6.606,9.716,16.043,14.817,21.078,11.393,2.08-1.414,3.083-4.062,3.079-7.368A6.7,6.7,0,0,1,1057.2,793.329Z" transform="translate(-1019.101 -759.26)" fill="#f0c300"/>
      <circle id="Ellipse_1" data-name="Ellipse 1" cx="3.701" cy="3.701" r="3.701" transform="translate(10.279 0)" fill="#83a79a"/>
      <circle id="Ellipse_2" data-name="Ellipse 2" cx="3.701" cy="3.701" r="3.701" transform="translate(30.966 33.025)" fill="#83a79a"/>
      <circle id="Ellipse_3" data-name="Ellipse 3" cx="3.701" cy="3.701" r="3.701" transform="translate(25.55 33.025)" fill="#83a79a"/>
    </g>
  </g>
</svg>
