<svg xmlns="http://www.w3.org/2000/svg" xmlns:xlink="http://www.w3.org/1999/xlink" width="93" height="93" viewBox="0 0 93 93">
  <defs>
    <clipPath id="clip-path">
      <circle id="Ellipse_434" data-name="Ellipse 434" cx="46.5" cy="46.5" r="46.5" transform="translate(1606 265)" fill="none" stroke="#fff" stroke-width="1.5"/>
    </clipPath>
    <clipPath id="clip-path-2">
      <circle id="Ellipse_447" data-name="Ellipse 447" cx="46.5" cy="46.5" r="46.5" transform="translate(2.03 2.03)" fill="none"/>
    </clipPath>
  </defs>
  <g id="Mask_Group_11" data-name="Mask Group 11" transform="translate(-1606 -265)" clip-path="url(#clip-path)">
    <g id="Avatars-01" transform="translate(1603.97 262.971)">
      <g id="Layer_1" data-name="Layer 1">
        <circle id="Ellipse_442" data-name="Ellipse 442" cx="46.5" cy="46.5" r="46.5" transform="translate(2.03 2.03)" fill="#ea7d11"/>
        <g id="Mask_Group_2053" data-name="Mask Group 2053" clip-path="url(#clip-path-2)">
          <rect id="Rectangle_783" data-name="Rectangle 783" width="17.382" height="6.398" transform="translate(39.835 73.111)" fill="#6cb8c9"/>
          <path id="Path_825" data-name="Path 825" d="M55.5,65.564H41.38s.356,8.9-1.375,11.5h17.05C55.324,74.486,55.5,65.564,55.5,65.564Z" fill="#f4b78e"/>
          <path id="Path_826" data-name="Path 826" d="M41.2,72.3a15.02,15.02,0,0,0,7.441,1.974,17.7,17.7,0,0,0,7.207-1.618,57.332,57.332,0,0,1-.348-7.1H41.38A56.753,56.753,0,0,1,41.2,72.3Z" fill="#dfa57e"/>
          <path id="Path_827" data-name="Path 827" d="M75.812,83.245l-20.5-7.336H41.728l-20.5,7.344s-7.174,2.362-6.341,13.815H82.145C83.124,84.928,75.812,83.245,75.812,83.245Z" fill="#f4b78e"/>
          <path id="Path_828" data-name="Path 828" d="M75.812,83.245,59.045,77.252,48.53,84.6,38.242,77.155l-16.986,6.1s-7.174,2.362-6.341,13.815H82.17C83.124,84.928,75.812,83.245,75.812,83.245Z" fill="#fcb918"/>
          <path id="Path_829" data-name="Path 829" d="M48.53,84.588l-1.383-7.053-7.312-4.424-1.06,4.449Z" fill="#6cb8c9"/>
          <path id="Path_830" data-name="Path 830" d="M47.147,77.535l-3.454,6.333-8.452-5.743,4.594-5.015Z" fill="#bee4e5"/>
          <path id="Path_831" data-name="Path 831" d="M48.53,84.588l1.383-7.053,7.312-4.424,1.06,4.449Z" fill="#6cb8c9"/>
          <path id="Path_832" data-name="Path 832" d="M49.913,77.535l3.454,6.333,8.452-5.743-4.594-5.015Z" fill="#bee4e5"/>
          <path id="Path_833" data-name="Path 833" d="M64,48.829c-.485,3.009.356,5.662,1.885,5.969s3.154-1.917,3.64-4.926-.356-5.662-1.885-5.969S64.48,45.821,64,48.829Z" fill="#f4b78e"/>
          <path id="Path_834" data-name="Path 834" d="M65.831,48.021a1.75,1.75,0,0,1,.081-.445,5.435,5.435,0,0,1,.364-1.084c.194-.4.5-.865.89-.89a.809.809,0,0,1,.291.04,1.552,1.552,0,0,1,.146.073,1.188,1.188,0,0,1,.105.089,1.553,1.553,0,0,1,.372.655,3.874,3.874,0,0,1,.178.857,4.157,4.157,0,0,1,0,.865c-.049.3-.065.615-.113.874L68,49.808c-.065.235-.113.453-.154.647s-.1.356-.138.493c-.081.275-.113.437-.113.437s.081-.138.2-.388c.057-.129.146-.275.218-.461s.162-.388.251-.623a8.27,8.27,0,0,0,.243-.809c.081-.307.121-.566.186-.874a3.979,3.979,0,0,0,0-1.027,4.578,4.578,0,0,0-.194-1.019,2.119,2.119,0,0,0-.477-.89,1.092,1.092,0,0,0-.218-.154,1.358,1.358,0,0,0-.21-.081,1.165,1.165,0,0,0-.461,0,1.205,1.205,0,0,0-.752.534,2.823,2.823,0,0,0-.364.752,4.8,4.8,0,0,0-.2,1.213A2.977,2.977,0,0,0,65.831,48.021Z" fill="#f2a57f"/>
          <path id="Path_835" data-name="Path 835" d="M65.831,48.021s-.137-.324.865-.4c0,0,1.124.21.461,1.707a4.853,4.853,0,0,0-.332,1.011c-.1.5.081,1.181-.186,1.618-.348.574-1.229.251-1.286-.413a3.785,3.785,0,0,1,.712-1.731,1.343,1.343,0,0,0-.235-1.8Z" fill="#f2a57f"/>
          <path id="Path_836" data-name="Path 836" d="M65.346,51.491a.5.5,0,0,0-.081.081.963.963,0,0,0-.146.283.938.938,0,0,0-.049.21.809.809,0,0,0,0,.251v.267a2.033,2.033,0,0,0,.081.251,1.14,1.14,0,0,0,.113.226,1.973,1.973,0,0,0,.146.178.639.639,0,0,0,.307.218.93.93,0,0,0,.34.081,2.248,2.248,0,0,0-.154-.364.922.922,0,0,0-.081-.146.387.387,0,0,0-.073-.17,1.311,1.311,0,0,0-.081-.162.809.809,0,0,1-.065-.17,1.779,1.779,0,0,1-.121-.332,1.367,1.367,0,0,1-.04-.162v-.162A1.431,1.431,0,0,1,65.346,51.491Z" fill="#f2a57f"/>
          <path id="Path_837" data-name="Path 837" d="M33.292,48.829c.485,3.009-.356,5.662-1.885,5.969s-3.154-1.917-3.64-4.926.364-5.662,1.885-5.969S32.806,45.821,33.292,48.829Z" fill="#f4b78e"/>
          <path id="Path_838" data-name="Path 838" d="M31.456,48.021a1.75,1.75,0,0,0-.081-.445,5.452,5.452,0,0,0-.364-1.084c-.194-.4-.5-.865-.89-.89a.809.809,0,0,0-.291.04,1.619,1.619,0,0,0-.146.073,1.043,1.043,0,0,0-.105.089,1.545,1.545,0,0,0-.372.655,3.882,3.882,0,0,0-.178.857,4.182,4.182,0,0,0,0,.865c.049.3.065.615.113.874l.146.752c.065.235.113.453.154.647s.1.356.138.493c.081.275.121.437.121.437s-.081-.138-.2-.388c-.057-.129-.146-.275-.218-.461s-.162-.388-.251-.623a8.267,8.267,0,0,1-.243-.809c-.081-.307-.121-.566-.186-.874a4.044,4.044,0,0,1,0-1.027,4.562,4.562,0,0,1,.194-1.019,2.111,2.111,0,0,1,.469-.89,1.092,1.092,0,0,1,.218-.154,1.31,1.31,0,0,1,.21-.081,1.165,1.165,0,0,1,.461,0,1.2,1.2,0,0,1,.752.534,2.791,2.791,0,0,1,.364.752,4.8,4.8,0,0,1,.2,1.213A3.033,3.033,0,0,1,31.456,48.021Z" fill="#f2a57f"/>
          <path id="Path_839" data-name="Path 839" d="M31.456,48.021s.138-.324-.865-.4c0,0-1.124.21-.461,1.707a4.909,4.909,0,0,1,.34,1.011c.1.5-.081,1.181.186,1.618.348.574,1.229.251,1.286-.413a3.793,3.793,0,0,0-.712-1.731A1.343,1.343,0,0,1,31.456,48.021Z" fill="#f2a57f"/>
          <path id="Path_840" data-name="Path 840" d="M31.941,51.491a.493.493,0,0,1,.081.081,1.079,1.079,0,0,1,.194.493.809.809,0,0,1,0,.251,2.6,2.6,0,0,1,0,.267,1.8,1.8,0,0,1-.081.251,1.133,1.133,0,0,1-.113.226,1.893,1.893,0,0,1-.146.178.639.639,0,0,1-.307.218.93.93,0,0,1-.34.081,2.3,2.3,0,0,1,.154-.364,1.012,1.012,0,0,1,.081-.146.387.387,0,0,1,.073-.17,1.254,1.254,0,0,1,.081-.162.809.809,0,0,0,.065-.17,1.715,1.715,0,0,0,.121-.332,1.3,1.3,0,0,0,.04-.162c0-.057,0-.113,0-.162A1.431,1.431,0,0,0,31.941,51.491Z" fill="#f2a57f"/>
          <path id="Path_841" data-name="Path 841" d="M48.829,16.363h-.477C36.22,16.468,29.4,19.922,31.262,42.043L33.348,59.66A7.328,7.328,0,0,0,37.206,64.8L43.8,69.649s3.13,1.391,4.756,1.254c1.618.137,4.756-1.254,4.756-1.254L59.9,64.8a7.328,7.328,0,0,0,3.9-5.136L66,42.448C67.894,20.326,60.962,16.468,48.829,16.363Z" fill="#f4b78e"/>
          <ellipse id="Ellipse_443" data-name="Ellipse 443" cx="1.432" cy="2.079" rx="1.432" ry="2.079" transform="matrix(1, -0.006, 0.006, 1, 39.634, 41.404)" fill="#2f1806"/>
          <circle id="Ellipse_444" data-name="Ellipse 444" cx="0.615" cy="0.615" r="0.615" transform="translate(39.277 42.205)" fill="#fff"/>
          <ellipse id="Ellipse_445" data-name="Ellipse 445" cx="2.079" cy="1.432" rx="2.079" ry="1.432" transform="matrix(0.006, -1, 1, 0.006, 54.765, 45.553)" fill="#2f1806"/>
          <circle id="Ellipse_446" data-name="Ellipse 446" cx="0.615" cy="0.615" r="0.615" transform="translate(56.78 42.205)" fill="#fff"/>
          <path id="Path_842" data-name="Path 842" d="M51.337,55.13a3.235,3.235,0,0,1-1.108.9,4.515,4.515,0,0,1-.679.275,5.194,5.194,0,0,1-.728.154,4.246,4.246,0,0,1-2.249-.38,6.147,6.147,0,0,1-.671-.38l-.493-.283.129-.582c.275-1.221.607-2.427.987-3.64.089-.3.194-.6.3-.9s.2-.6.324-.89c.226-.59.461-1.181.744-1.763v1.917a4.658,4.658,0,0,1-.065.946,4.555,4.555,0,0,0-.105.93c-.129,1.254-.315,2.5-.542,3.729l-.356-.865c.162.081.307.186.469.251a4.5,4.5,0,0,0,.485.21c.162.073.34.105.51.17a2.39,2.39,0,0,0,.542.113,3.794,3.794,0,0,0,.574.081h1.246C50.868,55.122,51.094,55.138,51.337,55.13Z" fill="#eba17d"/>
          <path id="Path_843" data-name="Path 843" d="M44.073,39.245a1,1,0,0,1-1.132.768,10.984,10.984,0,0,0-5.775.485,1.035,1.035,0,0,1-1.229-.566h0a.914.914,0,0,1,.461-1.294,12.99,12.99,0,0,1,6.794-.6A1.011,1.011,0,0,1,44,39.245Z" fill="#693d34"/>
          <path id="Path_844" data-name="Path 844" d="M52.671,39.245a1,1,0,0,0,1.132.768,10.984,10.984,0,0,1,5.775.485,1.035,1.035,0,0,0,1.229-.566h0a.914.914,0,0,0-.5-1.286,12.99,12.99,0,0,0-6.794-.6,1.011,1.011,0,0,0-.809,1.205Z" fill="#693d34"/>
          <path id="Path_845" data-name="Path 845" d="M64.869,47.228c-.566-1.157-.178-3.017-.437-4.311-.315-1.618-1.043-3.033-1.521-4.643-1.14-3.826,1.707-8.533-2.063-11.324-1.836-1.367-6.268.154-11.008.469-5.937.4-8.849-3.106-11.445-1.836a3.988,3.988,0,0,0-2.6,2.944c-.728,1.909-2.321,3.357-2.879,5.338-1.294,4.594.51,5.33-.971,12.019,0,0,.178-1.181-1.415-1.99,0,0-1.464-.3-2.006.809.38-.809-.4-3.478-.453-4.335a33.437,33.437,0,0,1-.113-6.333c.283-2.257.566-4.424.631-6.705a16.986,16.986,0,0,1,1.7-7.28,12.731,12.731,0,0,1,.72-1.221c1.246-1.893,3.033-2.063,3.915-4.174,1.181-2.847,1.359-4.8,4.36-5.9C44.138,7,46.047,6.924,49.59,8.1c2.2.728,3.834,1.974,6.115,2.427s4.716.2,6.762,1.181c4.125,1.965,5.993,7.134,6.786,11.194.914,4.691.081,7.118.081,11.922,0,2.079-.558,5.185-.938,9.027-.073.752-1.941.243-2.75,1.149a10.086,10.086,0,0,0-.809,2.427Z" fill="#693d34"/>
          <path id="Path_846" data-name="Path 846" d="M53.132,59.716s-6.7,1.812-8.97,0" fill="none" stroke="#e59c81" stroke-linecap="round" stroke-linejoin="round" stroke-width="1.213"/>
          <path id="Path_847" data-name="Path 847" d="M48.676,62.5a1.456,1.456,0,0,1-.615,0,.3.3,0,0,0,.34.324S48.635,62.83,48.676,62.5Z" fill="#e59c81"/>
          <path id="Path_848" data-name="Path 848" d="M50.067,61.593a6.277,6.277,0,0,1-3.235,0" fill="none" stroke="#e59c81" stroke-linecap="round" stroke-linejoin="round" stroke-width="1.213"/>
          <path id="Path_849" data-name="Path 849" d="M39.245,39.989c-4.352,0-7.069,1.618-7.069,3.332,0,2.726.995,7.15,5.314,7.676,4.174.5,9.625-1.011,9.625-7.975C47.115,41.4,43.6,39.989,39.245,39.989ZM37.8,50.2c-3.7-.445-4.546-4.238-4.546-6.568,0-1.472,2.329-2.855,6.05-2.855s6.738,1.213,6.738,2.6C46.047,49.339,41.38,50.633,37.8,50.2Z" fill="#2f1806"/>
          <path id="Path_850" data-name="Path 850" d="M49.849,44.785a1.5,1.5,0,0,0-1.618-1.06C47.244,43.726,47,44.89,47,44.89l-.526-3.065a2.653,2.653,0,0,0,1.2.615,4.756,4.756,0,0,0,1.31,0,1.941,1.941,0,0,0,.882-.615Z" fill="#2f1806"/>
          <path id="Path_851" data-name="Path 851" d="M32.782,46.443s-1.561-.113-1.561-.914V43.1c0-1.262,1.561-.857,1.561-.857Z" fill="#2f1806"/>
          <path id="Path_852" data-name="Path 852" d="M49.145,43.014c0,6.964,5.452,8.477,9.633,7.975,4.319-.526,5.314-4.95,5.314-7.676,0-1.715-2.718-3.332-7.069-3.332S49.145,41.4,49.145,43.014Zm1.076.364c0-1.383,3.017-2.6,6.738-2.6s6.05,1.383,6.05,2.855c0,2.338-.849,6.123-4.546,6.568S50.221,49.339,50.221,43.378Z" fill="#2f1806"/>
          <path id="Path_853" data-name="Path 853" d="M63.477,46.443s1.561-.113,1.561-.914V43.1c0-1.262-1.561-.857-1.561-.857Z" fill="#2f1806"/>
        </g>
      </g>
    </g>
  </g>
</svg>
