<svg xmlns="http://www.w3.org/2000/svg" xmlns:xlink="http://www.w3.org/1999/xlink" width="93" height="93" viewBox="0 0 93 93">
  <defs>
    <clipPath id="clip-path">
      <circle id="Ellipse_438" data-name="Ellipse 438" cx="46.5" cy="46.5" r="46.5" transform="translate(1497 374)" fill="none" stroke="#fff" stroke-width="1.5"/>
    </clipPath>
    <clipPath id="clip-path-2">
      <circle id="Ellipse_459" data-name="Ellipse 459" cx="46.5" cy="46.5" r="46.5" transform="translate(2.03 2.03)" fill="none"/>
    </clipPath>
  </defs>
  <g id="Mask_Group_13" data-name="Mask Group 13" transform="translate(-1497 -374)" clip-path="url(#clip-path)">
    <g id="Avatars-02" transform="translate(1494.97 371.971)">
      <g id="Layer_1" data-name="Layer 1">
        <circle id="Ellipse_454" data-name="Ellipse 454" cx="46.5" cy="46.5" r="46.5" transform="translate(2.03 2.03)" fill="#63abe5"/>
        <g id="Group_2055" data-name="Group 2055" clip-path="url(#clip-path-2)">
          <rect id="Rectangle_784" data-name="Rectangle 784" width="17.382" height="6.398" transform="translate(39.835 73.232)" fill="#717eb9"/>
          <path id="Path_890" data-name="Path 890" d="M55.5,65.726H41.38s.356,8.9-1.375,11.5H57.047C55.324,74.639,55.5,65.726,55.5,65.726Z" fill="#f4b78e"/>
          <path id="Path_891" data-name="Path 891" d="M41.2,72.456a15.028,15.028,0,0,0,7.441,1.957A17.681,17.681,0,0,0,55.81,72.8a57.329,57.329,0,0,1-.348-7.094H41.38a56.618,56.618,0,0,1-.178,6.754Z" fill="#dfa57e"/>
          <path id="Path_892" data-name="Path 892" d="M75.812,83.407l-20.5-7.377H41.728l-20.5,7.344s-7.182,2.362-6.341,13.847H82.145C83.124,85.065,75.812,83.407,75.812,83.407Z" fill="#f4b78e"/>
          <path id="Path_893" data-name="Path 893" d="M75.812,83.407l-16.767-6L48.53,84.75,38.242,77.309l-16.986,6.1s-7.207,2.329-6.366,13.815H82.145C83.124,85.065,75.812,83.407,75.812,83.407Z" fill="#89d7ef"/>
          <path id="Path_894" data-name="Path 894" d="M64,48.2c-.485,3.009.356,5.662,1.885,5.969s3.154-1.917,3.64-4.926-.356-5.662-1.885-5.977S64.48,45.19,64,48.2Z" fill="#f4b78e"/>
          <path id="Path_895" data-name="Path 895" d="M65.831,47.39a1.75,1.75,0,0,1,.081-.445,5.4,5.4,0,0,1,.364-1.084c.194-.4.5-.865.89-.89a.809.809,0,0,1,.291.04,1.617,1.617,0,0,1,.146.081,1.108,1.108,0,0,1,.105.089,1.569,1.569,0,0,1,.364.655,3.851,3.851,0,0,1,.178.857,4.182,4.182,0,0,1,0,.865c-.049.3-.065.615-.113.874l-.146.752c-.065.235-.113.453-.154.647s-.1.356-.137.493c-.081.275-.121.437-.121.437s.081-.138.2-.388c.057-.129.146-.275.218-.461s.162-.4.251-.623a7.642,7.642,0,0,0,.243-.809c.081-.307.121-.566.186-.874a4.044,4.044,0,0,0,0-1.035,4.554,4.554,0,0,0-.194-1.019,2.111,2.111,0,0,0-.534-.882,1.14,1.14,0,0,0-.218-.154,1.756,1.756,0,0,0-.21-.081,1.06,1.06,0,0,0-1.205.51,2.791,2.791,0,0,0-.364.752,4.8,4.8,0,0,0-.2,1.213,2.912,2.912,0,0,0,.081.477Z" fill="#f2a57f"/>
          <path id="Path_896" data-name="Path 896" d="M65.831,47.39s-.137-.324.865-.4c0,0,1.124.21.461,1.707a4.853,4.853,0,0,0-.34,1.011c-.1.5.081,1.181-.186,1.618-.348.574-1.229.251-1.286-.413a3.793,3.793,0,0,1,.712-1.731A1.343,1.343,0,0,0,65.831,47.39Z" fill="#f2a57f"/>
          <path id="Path_897" data-name="Path 897" d="M65.346,50.86a.428.428,0,0,0-.081.081.979.979,0,0,0-.146.283.914.914,0,0,0-.049.21.809.809,0,0,0,0,.251v.267a2.036,2.036,0,0,0,.081.251,1.132,1.132,0,0,0,.113.226c.049.065.105.113.146.178a.647.647,0,0,0,.307.218.914.914,0,0,0,.34.089,2.256,2.256,0,0,0-.154-.364,1.083,1.083,0,0,0-.081-.146.326.326,0,0,0-.073-.162,1.3,1.3,0,0,0-.081-.154.808.808,0,0,1-.065-.17,1.754,1.754,0,0,1-.121-.332,1.334,1.334,0,0,1-.04-.162v-.162A1.728,1.728,0,0,1,65.346,50.86Z" fill="#f2a57f"/>
          <path id="Path_898" data-name="Path 898" d="M33.292,48.2c.485,3.009-.356,5.662-1.885,5.969s-3.154-1.917-3.64-4.926.356-5.662,1.885-5.977S32.806,45.19,33.292,48.2Z" fill="#f4b78e"/>
          <path id="Path_899" data-name="Path 899" d="M31.456,47.39a1.75,1.75,0,0,0-.081-.445A5.484,5.484,0,0,0,31,45.861c-.194-.4-.5-.865-.89-.89a.809.809,0,0,0-.291.04,1.423,1.423,0,0,0-.146.081,1.133,1.133,0,0,0-.105.089,1.553,1.553,0,0,0-.372.655,3.85,3.85,0,0,0-.178.857,4.174,4.174,0,0,0,0,.865c.049.3.065.615.113.874l.146.752c.065.235.113.453.154.647s.105.356.138.493c.081.275.121.437.121.437s-.081-.138-.2-.388c-.057-.129-.146-.275-.218-.461s-.162-.4-.251-.623a7.642,7.642,0,0,1-.243-.809c-.081-.307-.121-.566-.186-.874a3.979,3.979,0,0,1,0-1.035,4.57,4.57,0,0,1,.194-1.019,2.111,2.111,0,0,1,.534-.882,1.108,1.108,0,0,1,.218-.154,1.69,1.69,0,0,1,.21-.081,1.221,1.221,0,0,1,.461,0,1.205,1.205,0,0,1,.744.534,2.75,2.75,0,0,1,.364.752,4.724,4.724,0,0,1,.2,1.213,2.935,2.935,0,0,1-.065.453Z" fill="#f2a57f"/>
          <path id="Path_900" data-name="Path 900" d="M31.456,47.39s.138-.324-.865-.4c0,0-1.124.21-.461,1.707a4.853,4.853,0,0,1,.34,1.011c.1.5-.081,1.181.186,1.618.348.574,1.229.251,1.286-.413a3.777,3.777,0,0,0-.712-1.731,1.343,1.343,0,0,1,.226-1.8Z" fill="#f2a57f"/>
          <path id="Path_901" data-name="Path 901" d="M31.941,50.86a.38.38,0,0,1,.081.081.954.954,0,0,1,.146.283.971.971,0,0,1,.049.21.809.809,0,0,1,0,.251v.267a2.119,2.119,0,0,1-.081.251,1.173,1.173,0,0,1-.113.226c-.049.065-.105.113-.146.178a.639.639,0,0,1-.307.218.914.914,0,0,1-.34.089,2.248,2.248,0,0,1,.154-.364,1.059,1.059,0,0,1,.081-.146.325.325,0,0,1,.073-.162,1.148,1.148,0,0,1,.081-.154.809.809,0,0,0,.065-.17,1.731,1.731,0,0,0,.121-.332,1.35,1.35,0,0,0,.04-.162v-.162A1.728,1.728,0,0,0,31.941,50.86Z" fill="#f2a57f"/>
          <path id="Path_902" data-name="Path 902" d="M48.829,15.724h-.485c-12.133.105-18.951,3.559-17.083,25.681l2.087,17.641a7.328,7.328,0,0,0,3.858,5.112L43.8,69.01s3.13,1.391,4.756,1.254c1.618.138,4.756-1.254,4.756-1.254L59.9,64.157a7.328,7.328,0,0,0,3.931-5.112l2.2-17.212C67.894,19.7,60.962,15.829,48.829,15.724Z" fill="#f4b78e"/>
          <path id="Path_903" data-name="Path 903" d="M63.089,48.2c-.429,1.876-.728,4.853-1.949,6.471A4.594,4.594,0,0,1,57.6,56.481a12.723,12.723,0,0,1-2.9-.2,14.94,14.94,0,0,0-2.2-.469,4.044,4.044,0,0,0-2.176.671,3.235,3.235,0,0,1-2.726.138,12.456,12.456,0,0,0-4.23-.922c-1.674.057-3.591.5-5.225,0s-2.669-2.063-3.357-3.664c-.372-.865-.631-2.9-.9-3.8-.332-1.116-.809-.348-1.852-.364l1.326,12.44a7.328,7.328,0,0,0,3.85,5.1L43.8,70.264s3.13,1.391,4.756,1.254c1.618.137,4.756-1.254,4.756-1.254L59.9,65.411a7.328,7.328,0,0,0,3.9-5.136l1.456-12.65C64.141,47.592,63.388,46.913,63.089,48.2Z" fill="#472109"/>
          <ellipse id="Ellipse_455" data-name="Ellipse 455" cx="1.432" cy="2.079" rx="1.432" ry="2.079" transform="matrix(1, -0.01, 0.01, 1, 39.782, 40.628)" fill="#2f1806"/>
          <circle id="Ellipse_456" data-name="Ellipse 456" cx="0.615" cy="0.615" r="0.615" transform="translate(39.277 41.574)" fill="#fff"/>
          <ellipse id="Ellipse_457" data-name="Ellipse 457" cx="2.079" cy="1.432" rx="2.079" ry="1.432" transform="matrix(0.006, -1, 1, 0.006, 54.766, 44.909)" fill="#2f1806"/>
          <circle id="Ellipse_458" data-name="Ellipse 458" cx="0.615" cy="0.615" r="0.615" transform="translate(56.78 41.574)" fill="#fff"/>
          <path id="Path_904" data-name="Path 904" d="M50.746,54.038a4.044,4.044,0,0,1-1.149.76,4.853,4.853,0,0,1-2.111.4,4.586,4.586,0,0,1-.744-.105,4,4,0,0,1-.72-.218,6,6,0,0,1-.679-.332L45.06,54.4,45,53.925a5.734,5.734,0,0,1-.049-.6q0-.291,0-.582a6.535,6.535,0,0,1,.162-1.149,5.128,5.128,0,0,1,.388-1.116,4.044,4.044,0,0,1,.671-1.035,5.468,5.468,0,0,1,.324,1.173,8.436,8.436,0,0,1,.129,1.149v1.618a1.617,1.617,0,0,1-.057.526l-.348-.623c.154.089.291.218.453.307a4.043,4.043,0,0,0,.493.251,5.364,5.364,0,0,0,.526.194,5.147,5.147,0,0,1,.566.129,4.043,4.043,0,0,0,.6.065,5.45,5.45,0,0,0,.623,0A7.814,7.814,0,0,0,50.746,54.038Z" fill="#eba17d"/>
          <path id="Path_905" data-name="Path 905" d="M44.073,38.606a1,1,0,0,1-1.132.768,10.992,10.992,0,0,0-5.775.485,1.035,1.035,0,0,1-1.229-.566h0a.914.914,0,0,1,.461-1.278,12.982,12.982,0,0,1,6.8-.6,1.011,1.011,0,0,1,.809,1.205Z" fill="#472109"/>
          <path id="Path_906" data-name="Path 906" d="M52.663,38.606a1,1,0,0,0,1.132.768,10.992,10.992,0,0,1,5.775.485,1.035,1.035,0,0,0,1.229-.566h0a.914.914,0,0,0-.493-1.278,12.982,12.982,0,0,0-6.794-.6,1.011,1.011,0,0,0-.809,1.205Z" fill="#472109"/>
          <path id="Path_907" data-name="Path 907" d="M49.242,61.8a3.818,3.818,0,0,1-1.707,0" fill="none" stroke="#e89780" stroke-linecap="round" stroke-linejoin="round" stroke-width="0.809"/>
          <path id="Path_908" data-name="Path 908" d="M44.543,58.236l.995,1.949A5.775,5.775,0,0,0,53.1,58.333a77.645,77.645,0,0,1-8.557-.1Z" fill="#fff"/>
          <path id="Path_909" data-name="Path 909" d="M40.013,20.811s4.529,5.484,14.769,6.924c0,0,10.4,3.591,10.264,9.463L63.211,47.835l2.079-.218s.057-4.287,2.346-4.352c0,0,2.054-8.606,2.022-10.086s-2.9-16.063-2.9-16.063L55.6,9.164S43.532,7.4,37.934,4.74c0,0,1.278,3.389,3.146,4.424,0,0-7,.736-7.652.59s.971,3.688.971,3.688l-5.88,8.986,1.132,20.844s1.82.178,2.37,4.562h1.707l-.3-13.37S35.831,26.182,40.013,20.811Z" fill="#472109"/>
          <path id="Path_910" data-name="Path 910" d="M39.544,20.326a27.67,27.67,0,0,1-5.217-6.786l-5.807,8.9v.057c1.925,3.065,3.834,6.139,5.856,9.148A42.569,42.569,0,0,1,40.037,20.8a13.29,13.29,0,0,0,1.82,1.69Q40.652,21.442,39.544,20.326Z" fill="#341000"/>
          <path id="Path_911" data-name="Path 911" d="M48.522,84.718l-1.383-7.061-7.312-4.424-1.06,4.449Z" fill="#717eb9"/>
          <path id="Path_912" data-name="Path 912" d="M48.522,84.718l1.383-7.061,7.312-4.424,1.068,4.449Z" fill="#717eb9"/>
          <path id="Path_913" data-name="Path 913" d="M52.016,78.611h-6.98a2.135,2.135,0,0,0-.89,2.588l2.224,3.518H50.7L52.922,81.2a2.135,2.135,0,0,0-.906-2.588Z" fill="#6954a0"/>
          <path id="Path_914" data-name="Path 914" d="M52.493,79.015a3.842,3.842,0,0,1-.138,2.079,4.044,4.044,0,0,1-3.1,2.863A2.693,2.693,0,0,1,46.1,82.178c-.372-1.238-.574-2.645.218-3.567H45.036a2.135,2.135,0,0,0-.89,2.588l2.224,3.518H50.7L52.922,81.2A1.965,1.965,0,0,0,52.493,79.015Z" fill="#6954a0"/>
          <path id="Path_915" data-name="Path 915" d="M46.362,84.718l-2.386,12.5h9.107l-2.394-12.5Z" fill="#6954a0"/>
          <path id="Path_916" data-name="Path 916" d="M47.139,77.656,43.685,83.99l-8.452-5.743,4.594-5.015Z" fill="#86b3da"/>
          <path id="Path_917" data-name="Path 917" d="M49.905,77.656l3.454,6.333,8.452-5.743-4.594-5.015Z" fill="#86b3da"/>
        </g>
      </g>
    </g>
  </g>
</svg>
