<svg xmlns="http://www.w3.org/2000/svg" width="15" height="17" viewBox="0 0 15 17">
  <path id="Path_6240" data-name="Path 6240" d="M16.447,13.516a5.029,5.029,0,0,0,2.206-4.205,4.942,4.942,0,1,0-9.882,0,5.029,5.029,0,0,0,2.206,4.205A7.431,7.431,0,0,0,6.3,20.495a.7.7,0,0,0,.706.716.654.654,0,0,0,.706-.716h0a5.993,5.993,0,0,1,6-6.084h.176a6.07,6.07,0,0,1,6,6.174.7.7,0,0,0,.706.716.654.654,0,0,0,.706-.716h0A8.1,8.1,0,0,0,16.447,13.516ZM10.094,9.311a3.618,3.618,0,1,1,7.235,0A3.644,3.644,0,0,1,13.8,12.979h-.176A3.586,3.586,0,0,1,10.094,9.311Z" transform="translate(-6.3 -4.3)" fill="#fff"/>
</svg>
