<svg xmlns="http://www.w3.org/2000/svg" width="29.444" height="31.186" viewBox="0 0 29.444 31.186">
  <g id="Title_Bar_Icon___Message" data-name="Title Bar Icon _ Message" transform="translate(0.044 1.25)">
    <text id="_3" data-name="3" transform="translate(10.283 20.75)" fill="#a6d4c4" font-size="20" font-family="SegoeUI, Segoe UI"><tspan x="0" y="0">3</tspan></text>
    <g id="Group_8328" data-name="Group 8328">
      <path id="Path_6237" data-name="Path 6237" d="M14.8,0Z" fill="#a6d4c4"/>
      <path id="Path_6238" data-name="Path 6238" d="M14.8,0A15.038,15.038,0,0,0,7,2.2,14.75,14.75,0,0,0,2.2,22.5L0,29c-.1.2,0,.4,0,.5a.819.819,0,0,0,1,.4l5.9-2.7a14.5,14.5,0,0,0,7.8,2.3A14.745,14.745,0,0,0,29.4,14.7,14.575,14.575,0,0,0,14.8,0Zm0,28h0a13.918,13.918,0,0,1-7.4-2.2.878.878,0,0,0-.7-.1L2,27.9l1.7-5.3a.614.614,0,0,0-.1-.6A13.4,13.4,0,0,1,14.8,1.4a13.3,13.3,0,0,1,0,26.6Z" fill="#a6d4c4"/>
    </g>
  </g>
</svg>
