<svg id="Title_Bar_Icon___Sound" data-name="Title Bar Icon _ Sound" xmlns="http://www.w3.org/2000/svg" width="34.7" height="29.5" viewBox="0 0 34.7 29.5">
  <path id="Path_6241" data-name="Path 6241" d="M32.7,7.5a18.279,18.279,0,0,0-4.9-5.8.684.684,0,0,0-1,.2.684.684,0,0,0,.2,1,19.467,19.467,0,0,1,2.6,2.4,15.163,15.163,0,0,1-1.7,21.3.72.72,0,0,0,.5,1.3.764.764,0,0,0,.5-.2,16.669,16.669,0,0,0,5.8-12.6A16.545,16.545,0,0,0,32.7,7.5Z" fill="#a6d4c4"/>
  <path id="Path_6242" data-name="Path 6242" d="M28.9,15.4a11.15,11.15,0,0,0-4.8-9.1.775.775,0,0,0-1,.2.775.775,0,0,0,.2,1,9.548,9.548,0,0,1,4.2,7.8,9.108,9.108,0,0,1-3.1,6.9c-.2.1-.2.3-.2.5a.773.773,0,0,0,.7.8.764.764,0,0,0,.5-.2A10.4,10.4,0,0,0,28,19.7,8.516,8.516,0,0,0,28.9,15.4Z" fill="#a6d4c4"/>
  <path id="Path_6243" data-name="Path 6243" d="M18.8.1,9.3,6.5H.7a.773.773,0,0,0-.7.8V22.2a.773.773,0,0,0,.7.8H9.3l9.5,6.4a.6.6,0,0,0,.4.1h0a.773.773,0,0,0,.8-.7V.8a.6.6,0,0,0-.1-.4A.829.829,0,0,0,18.8.1Zm-.3,27.2L10,21.6a.6.6,0,0,0-.4-.1h-8V8h8a.756.756,0,0,0,.4-.1l8.5-5.7Z" fill="#a6d4c4"/>
</svg>
