<svg xmlns="http://www.w3.org/2000/svg" width="29.55" height="29.55" viewBox="0 0 29.55 29.55">
  <g id="Title_Bar_Icon___Log_Out" data-name="Title Bar Icon _ Log Out" transform="translate(0.05)">
    <path id="Path_6234" data-name="Path 6234" d="M14.8,0A14.75,14.75,0,0,0,4.3,25.2a14.727,14.727,0,0,0,20.9,0A14.779,14.779,0,0,0,14.8,0Zm0,28h0A13.25,13.25,0,1,1,28,14.8,13.209,13.209,0,0,1,14.8,28Z" fill="#a6d4c4"/>
    <path id="Path_6235" data-name="Path 6235" d="M19.2,6.4h0a.693.693,0,0,0-1,.3.693.693,0,0,0,.3,1,7.6,7.6,0,0,1,3.2,3.2A8.033,8.033,0,0,1,7.6,18.6,8.138,8.138,0,0,1,10.9,7.7h0a.738.738,0,0,0-.7-1.3,9.521,9.521,0,0,0,4.5,17.9h0a9.558,9.558,0,0,0,8.4-5A9.453,9.453,0,0,0,19.2,6.4Z" fill="#a6d4c4"/>
    <path id="Path_6236" data-name="Path 6236" d="M14.7,16h0a.789.789,0,0,0,.8-.8V6a.789.789,0,0,0-.8-.8A.849.849,0,0,0,14,6v9.3A.684.684,0,0,0,14.7,16Z" fill="#a6d4c4"/>
  </g>
</svg>
