<svg xmlns="http://www.w3.org/2000/svg" width="29.55" height="29.55" viewBox="0 0 29.55 29.55">
  <g id="Title_Bar_Icon___Exit" data-name="Title Bar Icon _ Exit" transform="translate(0.05)">
    <path id="Path_6228" data-name="Path 6228" d="M14.8,0A14.75,14.75,0,0,0,4.3,25.2a14.727,14.727,0,0,0,20.9,0A14.779,14.779,0,0,0,14.8,0Zm0,28h0A13.25,13.25,0,1,1,28,14.8,13.209,13.209,0,0,1,14.8,28Z" fill="#a6d4c4"/>
    <path id="Path_6229" data-name="Path 6229" d="M15.8,14.7l6-6a.778.778,0,0,0-1.1-1.1l-6,6-6-6a.775.775,0,0,0-1,.1.785.785,0,0,0,0,1.1l6,6-6,6a.778.778,0,0,0,1.1,1.1l6-6,6,6a.778.778,0,0,0,1.1-1.1Z" fill="#a6d4c4"/>
  </g>
</svg>
