<svg xmlns="http://www.w3.org/2000/svg" width="29.55" height="29.55" viewBox="0 0 29.55 29.55">
  <g id="Title_Bar_Icon___About" data-name="Title Bar Icon _ About" transform="translate(0.05)">
    <path id="Path_6226" data-name="Path 6226" d="M14.8,0A14.75,14.75,0,0,0,4.3,25.2a14.727,14.727,0,0,0,20.9,0A14.779,14.779,0,0,0,14.8,0Zm0,28h0A13.25,13.25,0,1,1,28,14.8,13.209,13.209,0,0,1,14.8,28Z" fill="#a6d4c4"/>
    <circle id="Ellipse_1204" data-name="Ellipse 1204" cx="1.2" cy="1.2" r="1.2" transform="translate(13.6 20.4)" fill="#a6d4c4"/>
    <path id="Path_6227" data-name="Path 6227" d="M14.8,18.6h0a.789.789,0,0,0,.8-.8V6.9a.8.8,0,0,0-1.6,0V17.8A.789.789,0,0,0,14.8,18.6Z" fill="#a6d4c4"/>
  </g>
</svg>
