<svg xmlns="http://www.w3.org/2000/svg" width="29.55" height="29.55" viewBox="0 0 29.55 29.55">
  <g id="Title_Bar_Icon___Help" data-name="Title Bar Icon _ Help" transform="translate(0.05)">
    <path id="Path_6230" data-name="Path 6230" d="M14.8,0A14.75,14.75,0,0,0,4.3,25.2a14.727,14.727,0,0,0,20.9,0A14.779,14.779,0,0,0,14.8,0Zm0,28h0A13.25,13.25,0,1,1,28,14.8,13.209,13.209,0,0,1,14.8,28Z" fill="#a6d4c4"/>
    <circle id="Ellipse_1205" data-name="Ellipse 1205" cx="1.2" cy="1.2" r="1.2" transform="translate(13.6 20.4)" fill="#a6d4c4"/>
    <path id="Path_6231" data-name="Path 6231" d="M14.8,6a4.224,4.224,0,0,0-3.3,1.3,5.375,5.375,0,0,0-1,3.9c.1.4.4.7.8.6A.773.773,0,0,0,12,11a3.821,3.821,0,0,1,.7-2.7,2.456,2.456,0,0,1,2.1-.8,2.456,2.456,0,0,1,2.1.8,3.6,3.6,0,0,1,.5,2.7,5.106,5.106,0,0,1-1.5,2.1,5.89,5.89,0,0,0-2,5.1.684.684,0,0,0,.7.7h0a.773.773,0,0,0,.7-.8,4.629,4.629,0,0,1,1.5-4,6.665,6.665,0,0,0,1.9-2.8h0a4.856,4.856,0,0,0-.8-3.9A3.226,3.226,0,0,0,14.8,6Z" fill="#a6d4c4"/>
  </g>
</svg>
