<svg xmlns="http://www.w3.org/2000/svg" width="29.55" height="29.55" viewBox="0 0 29.55 29.55">
  <g id="Title_Bar_Icon___Profile" data-name="Title Bar Icon _ Profile" transform="translate(0.05)">
    <path id="Path_6239" data-name="Path 6239" d="M14.8,0A14.75,14.75,0,0,0,4.3,25.2a14.727,14.727,0,0,0,20.9,0A14.779,14.779,0,0,0,14.8,0Zm0,28h0A13.25,13.25,0,1,1,28,14.8,13.209,13.209,0,0,1,14.8,28Z" fill="#a6d4c4"/>
    <path id="Path_6240" data-name="Path 6240" d="M17.8,14.6a5.6,5.6,0,1,0-6.2,0,8.307,8.307,0,0,0-5.3,7.8.789.789,0,0,0,.8.8.736.736,0,0,0,.8-.8h0a6.744,6.744,0,0,1,6.8-6.8h.2a6.829,6.829,0,0,1,6.8,6.9.789.789,0,0,0,.8.8.736.736,0,0,0,.8-.8h0A9.051,9.051,0,0,0,17.8,14.6ZM10.6,9.9a4.1,4.1,0,0,1,8.2,0,4.1,4.1,0,0,1-4,4.1h-.2A4.034,4.034,0,0,1,10.6,9.9Z" fill="#a6d4c4"/>
  </g>
</svg>
