<svg xmlns="http://www.w3.org/2000/svg" width="134" height="89.5" viewBox="0 0 134 89.5">
  <g id="Group_8498" data-name="Group 8498" transform="translate(-5 -7)">
    <g id="Logo" transform="translate(42.817 46)">
      <g id="Group_10" data-name="Group 10">
        <path id="Path_45" data-name="Path 45" d="M1034.348,631.922c4.2-2.854,12.065,1.4,17.572,9.5q.476.7.909,1.409a33.6,33.6,0,0,0-2.286-3.895c-5.507-8.1-13.375-12.353-17.572-9.5-3.956,2.689-3.241,10.729,1.462,18.425C1031.007,640.985,1030.818,634.322,1034.348,631.922Z" transform="translate(-1020.01 -625.143)" fill="#b78e1d"/>
        <path id="Union_8" data-name="Union 8" d="M44.049,30.523a8.978,8.978,0,0,1-8.848-9.08V14.876H40.85v6.568a3.245,3.245,0,0,0,3.2,3.284h26.1l-.945,5.8Zm-17.594,0a8.975,8.975,0,0,1-8.844-9.08V14.876h5.643v6.568a3.25,3.25,0,0,0,3.2,3.284h9.234l-.939,5.8Zm-17.611,0A8.975,8.975,0,0,1,0,21.443V0H5.643V21.443a3.249,3.249,0,0,0,3.2,3.284h9.234l-.939,5.8Z" fill="#83a79a"/>
        <path id="Path_48" data-name="Path 48" d="M1638.192,1599.809l-.01,0Z" transform="translate(-1607.267 -1560.212)" fill="#0c1241"/>
        <path id="Path_50" data-name="Path 50" d="M1054.281,790.382c-4.5,3.061-12.939-1.5-18.845-10.187-3.466-5.1-5.29-10.484-5.3-14.683-1.376,4.368.362,11.427,4.836,18.006,5.906,8.687,14.343,13.247,18.845,10.187,1.86-1.264,2.757-3.632,2.753-6.588A5.993,5.993,0,0,1,1054.281,790.382Z" transform="translate(-1019.604 -756.02)" fill="#f0c300"/>
        <path id="Union_9" data-name="Union 9" d="M19.744,35.74a3.369,3.369,0,1,1,0-4.593,3.37,3.37,0,1,1,0,4.593ZM0,3.371A3.37,3.37,0,1,1,3.371,6.739,3.372,3.372,0,0,1,0,3.371Z" transform="translate(9.209 2.788)" fill="#83a79a" stroke="rgba(0,0,0,0)" stroke-miterlimit="10" stroke-width="1"/>
      </g>
      <g id="Group_9" data-name="Group 9" transform="translate(0.292 44.256)">
        <g id="Group_6" data-name="Group 6" transform="translate(0)">
          <g id="Group_5" data-name="Group 5">
            <path id="Union_7" data-name="Union 7" d="M47.542,5.744a1.258,1.258,0,0,1-.972-.43,1.417,1.417,0,0,1-.371-.983V3.2h.531V4.393a.737.737,0,0,0,.278.595.976.976,0,0,0,.645.22h.732a.928.928,0,0,0,.6-.21.656.656,0,0,0,.284-.535c0-.181-.129-.3-.389-.354a.8.8,0,0,0-.142-.021h-.785v-.94a.946.946,0,0,1,.278-.7,1,1,0,0,1,.723-.274h.681l.022.514h-.68a.424.424,0,0,0-.423.262,2.358,2.358,0,0,0-.069.623,3.261,3.261,0,0,1,.894.079.648.648,0,0,1,.432.681,1.305,1.305,0,0,1-.6,1.188,1.445,1.445,0,0,1-.787.226Zm-6.734,0L40.73,5.2h.714a1.006,1.006,0,0,0,.671-.226.805.805,0,0,0,.285-.611,2.217,2.217,0,0,1-1.034-.185.919.919,0,0,1-.431-.874,1.185,1.185,0,0,1,.342-.967,1.067,1.067,0,0,1,.672-.163.89.89,0,0,1,.907.541A3.316,3.316,0,0,1,43,3.813a7.143,7.143,0,0,0,.99-.032c.127-.045.189-.208.189-.494,0-.07,0-.18,0-.324s0-.251,0-.321h.578v.826a.9.9,0,0,1-.225.614.759.759,0,0,1-.6.276H43a1.3,1.3,0,0,1-.416.994,1.474,1.474,0,0,1-1.045.392Zm.776-2.852a.983.983,0,0,0-.067.425.417.417,0,0,0,.3.442,2.132,2.132,0,0,0,.6.056V3.293A.671.671,0,0,0,42.3,2.9a.409.409,0,0,0-.356-.187A.377.377,0,0,0,41.584,2.893ZM36.373,5.744,36.3,5.2h.716a.99.99,0,0,0,.668-.226.811.811,0,0,0,.28-.611,2.2,2.2,0,0,1-1.03-.183A.924.924,0,0,1,36.5,3.3a1.192,1.192,0,0,1,.338-.967,1.094,1.094,0,0,1,.692-.17.847.847,0,0,1,.865.521,3.08,3.08,0,0,1,.131,1.055V4.43a1.2,1.2,0,0,1-.427.93,1.442,1.442,0,0,1-1,.385Zm.781-2.855a.965.965,0,0,0-.067.422.422.422,0,0,0,.287.447,2.1,2.1,0,0,0,.589.054V3.247c0-.357-.149-.537-.445-.537A.375.375,0,0,0,37.154,2.889ZM33.836,5.744l-.091-.565h.64a1.292,1.292,0,0,0,.7-.186.682.682,0,0,0,.34-.6V2.642h.582V4.264A1.493,1.493,0,0,1,35.62,5.3a1.332,1.332,0,0,1-1.028.444Zm-2.38,0a1.256,1.256,0,0,1-.969-.43,1.417,1.417,0,0,1-.372-.983V3.2h.532V4.393a.735.735,0,0,0,.278.595.975.975,0,0,0,.645.22H32.3A.925.925,0,0,0,32.9,5a.651.651,0,0,0,.283-.535q0-.271-.387-.354a.812.812,0,0,0-.14-.021h-.787v-.94a.93.93,0,0,1,.28-.7.992.992,0,0,1,.721-.274h.68l.022.514H32.89a.424.424,0,0,0-.422.262,2.351,2.351,0,0,0-.069.623,3.263,3.263,0,0,1,.894.079.648.648,0,0,1,.431.681,1.3,1.3,0,0,1-.6,1.188,1.443,1.443,0,0,1-.787.226Zm-6.725,0-.091-.565h.64a1.292,1.292,0,0,0,.7-.186.682.682,0,0,0,.34-.6V2.642h.582V4.264A1.49,1.49,0,0,1,26.514,5.3a1.334,1.334,0,0,1-1.027.444ZM20.75,5.352q0-.327.407-.327t.414.327a.354.354,0,0,1-.116.27.38.38,0,0,1-.28.11Q20.751,5.731,20.75,5.352ZM4.608,5.639A.282.282,0,0,1,4.484,5.4q0-.3.36-.3c.262,0,.391.1.391.3a.285.285,0,0,1-.1.229.354.354,0,0,1-.247.093A.439.439,0,0,1,4.608,5.639Zm-1.085,0A.279.279,0,0,1,3.4,5.4c0-.2.12-.3.363-.3.26,0,.389.1.389.3a.29.29,0,0,1-.1.229.36.36,0,0,1-.249.093A.437.437,0,0,1,3.523,5.639ZM52.328,4.168a1.885,1.885,0,0,1-.816.183l-.143,0v.006c-.061,0-.119,0-.175,0l-.312,0V4.319a1.027,1.027,0,0,1-.522-.227.726.726,0,0,1-.2-.569V.934h.567v2.35c0,.253.045.408.131.464a1.364,1.364,0,0,0,.507.064h.3a1.248,1.248,0,0,1-.311-.754.847.847,0,0,1,.258-.64.909.909,0,0,1,.665-.252.978.978,0,0,1,.681.295l-.372-.372.425-.369c.938.866,1.408,1.5,1.408,1.911a.917.917,0,0,1-.28.653.886.886,0,0,1-.65.288A2.562,2.562,0,0,1,52.328,4.168Zm.923-1.042a.7.7,0,0,1-.349.7,1.165,1.165,0,0,0,.554.185c.249,0,.372-.115.372-.344s-.249-.571-.75-1.059A.74.74,0,0,1,53.251,3.126Zm-1.272-.332a.4.4,0,0,0-.089.264c0,.235.152.412.454.526a.513.513,0,0,0,.363-.487.387.387,0,0,0-.143-.308.5.5,0,0,0-.335-.12A.293.293,0,0,0,51.979,2.794Zm9.908,1.435a2.331,2.331,0,0,1-.716.121v.009c-.05,0-.1,0-.145,0s-.065,0-.1,0V4.351a1.264,1.264,0,0,1-.767-.258.734.734,0,0,1-.193-.569V.934h.567v2.35c0,.253.044.408.131.464a1.236,1.236,0,0,0,.468.063.607.607,0,0,0,.359-.086,1.631,1.631,0,0,0,.034-.421c.02-.754.358-1.13,1.019-1.13a.852.852,0,0,1,.736.365,1.32,1.32,0,0,1,.231.794,1.193,1.193,0,0,1-.243.771.9.9,0,0,1-.74.333A1.05,1.05,0,0,1,61.887,4.229Zm.142-.907c0,.381.167.569.5.569s.487-.2.487-.591-.162-.592-.487-.592S62.029,2.911,62.029,3.321Zm5.949.73a.925.925,0,0,1-.689.367,1.073,1.073,0,0,1-.772-.436,1,1,0,0,1-.741.375h-.721V4.35a1.252,1.252,0,0,1-.763-.257.727.727,0,0,1-.2-.569V.934h.567v2.35c0,.253.044.408.134.464a1.342,1.342,0,0,0,.507.064v0h.431c.263,0,.392-.135.392-.408V2.642h.556V3.45a.413.413,0,0,0,.145.322.53.53,0,0,0,.349.125c.26,0,.387-.114.387-.344V2.642h.556V3.45a.41.41,0,0,0,.143.32.51.51,0,0,0,.344.127c.265,0,.4-.114.4-.344V2.642h.554V3.48a1.059,1.059,0,0,1-.191.657.739.739,0,0,1-.625.281A1.078,1.078,0,0,1,67.978,4.052Zm-13.086.073a1,1,0,0,1-.3-.748,1.733,1.733,0,0,1,.658-1.111l-.16-.177.381-.369,1.7,1.741a1.956,1.956,0,0,0,.287.264.9.9,0,0,0,.389.087v0a5.184,5.184,0,0,0,.765-.032c.124-.045.189-.208.189-.494,0-.07,0-.18,0-.324s-.007-.251-.007-.321h.58v.826a.905.905,0,0,1-.227.614.757.757,0,0,1-.6.276h-.927V4.348a.829.829,0,0,1-.315-.084,7.081,7.081,0,0,1-.592-.5,1.156,1.156,0,0,1-1.813.363ZM55.321,3a.656.656,0,0,0-.167.417.443.443,0,0,0,.147.344.542.542,0,0,0,.373.133.574.574,0,0,0,.378-.135.427.427,0,0,0,.162-.342.393.393,0,0,0-.107-.3l-.456-.438A3.759,3.759,0,0,0,55.321,3ZM8.424,4.052a.929.929,0,0,1-.692.367,1.074,1.074,0,0,1-.772-.436,1,1,0,0,1-.74.375H5.5v0a2.047,2.047,0,0,1-.28-.025.947.947,0,0,1-.287-.186.868.868,0,0,1-.538.213H3.171a1.157,1.157,0,0,1-.745-.213.916.916,0,0,1-.545.213H.948v-.01A1.252,1.252,0,0,1,.2,4.093.727.727,0,0,1,0,3.523V.934H.567v2.35c0,.253.044.408.131.464a1.37,1.37,0,0,0,.509.064h0a4.148,4.148,0,0,0,.729-.037c.127-.044.189-.207.189-.488V2.642h.567v.753q0,.406.705.419h.823a.448.448,0,0,0,.327-.093.458.458,0,0,0,.091-.328V2.642h.567v.751c0,.183.045.3.134.356a.805.805,0,0,0,.4.064h.44c.262,0,.393-.135.393-.408V2.642h.554V3.45a.414.414,0,0,0,.144.322.534.534,0,0,0,.352.125q.387,0,.387-.344V2.642h.554V3.45a.413.413,0,0,0,.145.32.507.507,0,0,0,.345.127q.4,0,.4-.344V2.642H10V3.48a1.045,1.045,0,0,1-.191.657.736.736,0,0,1-.623.281A1.075,1.075,0,0,1,8.424,4.052Zm31.036.307V.848h.554V4.358Zm-11.845,0V.848h.554V4.358Zm-5.142,0V4.342a.935.935,0,0,1-.476-.2.909.909,0,0,1-.543.213h-.932V4.344a1.182,1.182,0,0,1-.694-.251.726.726,0,0,1-.2-.569V.934H20.2v2.35c0,.253.042.408.131.464a1.365,1.365,0,0,0,.507.064h0a3.735,3.735,0,0,0,.674-.036c.127-.044.189-.207.189-.492V2.642h.576v.751a.353.353,0,0,0,.189.356,1.228,1.228,0,0,0,.442.064h.6a.458.458,0,0,0,.329-.093.466.466,0,0,0,.091-.326V2.642H24.5v.826a.924.924,0,0,1-.218.614.741.741,0,0,1-.592.276Zm-6.147,0V4.338a1.139,1.139,0,0,1-.64-.245.726.726,0,0,1-.2-.569V.934h.567v2.35c0,.253.044.408.131.464a1.369,1.369,0,0,0,.509.064v0h.113V.848h.565V2.8a1.453,1.453,0,0,1,.972-.623.879.879,0,0,1,.725.373,1.258,1.258,0,0,1,.258.782,1.107,1.107,0,0,1-.22.717.832.832,0,0,1-.691.3Zm1.428-1.217a2.64,2.64,0,0,0-.436.672h1.1c.22,0,.329-.166.329-.5,0-.395-.118-.593-.353-.593A.971.971,0,0,0,17.754,3.142ZM11.527,4.358a.743.743,0,0,1-.6-.272.93.93,0,0,1-.218-.618V2.642h.567v.753a.474.474,0,0,0,.089.326.447.447,0,0,0,.327.095h2.647a.458.458,0,0,0,.329-.095.462.462,0,0,0,.094-.326V2.642h.571v.826a.9.9,0,0,1-.227.61.739.739,0,0,1-.592.28ZM57.981,1.779c0-.216.136-.326.41-.326s.413.11.413.326a.371.371,0,0,1-.113.273.377.377,0,0,1-.278.113C58.124,2.166,57.981,2.037,57.981,1.779Zm-14.614,0c0-.216.136-.326.409-.326s.416.11.416.326a.364.364,0,0,1-.115.273.374.374,0,0,1-.278.113C43.51,2.166,43.368,2.037,43.368,1.779Zm-42.029,0c0-.216.136-.326.409-.326s.416.11.416.326a.364.364,0,0,1-.116.273.373.373,0,0,1-.278.113C1.481,2.166,1.339,2.037,1.339,1.779ZM24.184,2a.3.3,0,0,1-.122-.245q0-.3.367-.3.394,0,.394.3a.3.3,0,0,1-.107.234.372.372,0,0,1-.253.095A.462.462,0,0,1,24.184,2ZM23.1,2a.292.292,0,0,1-.122-.245c0-.2.12-.3.365-.3q.394,0,.393.3a.309.309,0,0,1-.1.234.375.375,0,0,1-.256.095A.451.451,0,0,1,23.1,2ZM13.081,1.728c0-.2.12-.3.36-.3.263,0,.394.1.394.3a.306.306,0,0,1-.107.236.365.365,0,0,1-.254.095C13.213,2.059,13.081,1.949,13.081,1.728Zm-1.088,0c0-.2.12-.3.36-.3.263,0,.394.1.394.3a.311.311,0,0,1-.1.236.361.361,0,0,1-.251.095C12.127,2.059,11.994,1.949,11.994,1.728ZM38.135.745A1.653,1.653,0,0,1,38.5.2a1.511,1.511,0,0,1,.743-.185C39.356,0,39.627,0,40.054,0q.24,0,.734.011V.547H39.367a3.078,3.078,0,0,0-.329.028.422.422,0,0,0-.194.06.986.986,0,0,0-.2.306Z" fill="#83a79a" stroke="rgba(0,0,0,0)" stroke-miterlimit="10" stroke-width="1"/>
          </g>
        </g>
      </g>
    </g>
    <text id="Sina_NMS_OLT_Version_2.7.4" data-name="Sina NMS OLT Version 2.7.4" transform="translate(72 19)" fill="#83a79a" font-size="11" font-family="SegoeUI, Segoe UI"><tspan x="-66.542" y="0">Sina NMS OLT Version 2.7.4</tspan></text>
  </g>
</svg>
