<svg xmlns="http://www.w3.org/2000/svg" xmlns:xlink="http://www.w3.org/1999/xlink" width="93" height="93" viewBox="0 0 93 93">
  <defs>
    <clipPath id="clip-path">
      <circle id="Ellipse_453" data-name="Ellipse 453" cx="46.5" cy="46.5" r="46.5" transform="translate(2.03 2.03)" fill="none"/>
    </clipPath>
  </defs>
  <g id="Group_2054" data-name="Group 2054" transform="translate(-2.03 -2.03)" clip-path="url(#clip-path)">
    <path id="Path_854" data-name="Path 854" d="M55.324,70.668H41.251a4.691,4.691,0,0,0,.3-.7.316.316,0,0,1,0-.065,23.456,23.456,0,0,0,.744-5.266.445.445,0,0,1,0-.1v-2.03h0V59.191H54.046v3.163c0,.566.057,1.189.089,1.812v.768a22.114,22.114,0,0,0,.809,5.007h0a4.562,4.562,0,0,0,.251.615Z" fill="#f4b78e"/>
    <path id="Path_855" data-name="Path 855" d="M54.192,64.9h0c-.251.129-.493.251-.752.356h0a13.944,13.944,0,0,1-4.254,1.132,12.249,12.249,0,0,1-6.471-1.618h0l-.324-.154h0V62.491h0V59.174H54.046v3.163c0,.566.057,1.189.089,1.812v.38a1.5,1.5,0,0,1,.057.178Z" fill="#dfa57e"/>
    <path id="Path_856" data-name="Path 856" d="M69.883,75.715,53.666,69.382H42.917L26.692,75.715s-5.662,2.038-5.015,11.914H74.9C75.675,77.147,69.883,75.715,69.883,75.715Z" fill="#f4b78e"/>
    <path id="Path_857" data-name="Path 857" d="M62.927,42.205c-.477,2.96.356,5.589,1.852,5.872s3.106-1.885,3.583-4.853-.356-5.589-1.86-5.872S63.4,39.245,62.927,42.205Z" fill="#f4b78e"/>
    <path id="Path_858" data-name="Path 858" d="M64.707,41.4a1.724,1.724,0,0,1,.081-.437,5.371,5.371,0,0,1,.364-1.068c.186-.4.493-.849.874-.874a.809.809,0,0,1,.291,0,1.181,1.181,0,0,1,.146.073,1.084,1.084,0,0,1,.105.089,1.521,1.521,0,0,1,.364.647,3.834,3.834,0,0,1,.178.809,4.044,4.044,0,0,1,0,.809c-.049.3-.057.6-.113.857l-.146.744c-.057.235-.105.445-.146.639a4.77,4.77,0,0,1-.138.485c-.073.267-.113.429-.113.429l.2-.38a3.628,3.628,0,0,0,.218-.453c.073-.178.162-.388.251-.615a7.23,7.23,0,0,0,.235-.809c.081-.315.121-.558.178-.857a3.988,3.988,0,0,0,0-1.011,4.545,4.545,0,0,0-.121-.849,2.087,2.087,0,0,0-.526-.865,1.173,1.173,0,0,0-.21-.154,1.44,1.44,0,0,0-.21-.081,1.148,1.148,0,0,0-.453,0,1.173,1.173,0,0,0-.736.526,2.71,2.71,0,0,0-.356.744,4.707,4.707,0,0,0-.218,1.157A2.889,2.889,0,0,0,64.707,41.4Z" fill="#f2a57f"/>
    <path id="Path_859" data-name="Path 859" d="M64.707,41.4s-.137-.315.849-.388c0,0,1.108.2.453,1.674a4.789,4.789,0,0,0-.3.987c-.1.493.081,1.165-.186,1.618-.34.566-1.213.243-1.262-.4a3.721,3.721,0,0,1,.7-1.7A1.326,1.326,0,0,0,64.707,41.4Z" fill="#f2a57f"/>
    <path id="Path_860" data-name="Path 860" d="M64.262,44.826a.388.388,0,0,0-.073.081.954.954,0,0,0-.146.275.865.865,0,0,0-.049.21.809.809,0,0,0,0,.243V45.9a1.98,1.98,0,0,0,.081.251,1.23,1.23,0,0,0,.113.226,2.064,2.064,0,0,0,.146.17.639.639,0,0,0,.3.218.906.906,0,0,0,.34.081,2.216,2.216,0,0,0-.154-.356.9.9,0,0,0-.081-.137,1.673,1.673,0,0,0-.073-.162,1.084,1.084,0,0,0-.081-.154.809.809,0,0,1-.065-.162,1.8,1.8,0,0,1-.121-.324,1.537,1.537,0,0,1-.04-.162V45.23A1.94,1.94,0,0,1,64.262,44.826Z" fill="#f2a57f"/>
    <path id="Path_861" data-name="Path 861" d="M33.413,47.527h-.049a1.618,1.618,0,0,1-.874.493c-1.5.283-3.1-1.885-3.583-4.853-.356-2.224,0-4.263.874-5.257a1.707,1.707,0,0,1,.954-.55,1.739,1.739,0,0,1,1.375.388l.129.1a3.817,3.817,0,0,1,.7.809l.057.073h0a8.63,8.63,0,0,1,1.31,3.51C34.715,44.486,34.319,46.557,33.413,47.527Z" fill="#f4b78e"/>
    <path id="Path_862" data-name="Path 862" d="M32.548,41.4a1.724,1.724,0,0,0-.081-.437A5.4,5.4,0,0,0,32.1,39.9c-.186-.4-.493-.849-.874-.874a.809.809,0,0,0-.291,0,1.181,1.181,0,0,0-.146.073,1.043,1.043,0,0,0-.105.089,1.529,1.529,0,0,0-.364.647,3.834,3.834,0,0,0-.178.809,4.133,4.133,0,0,0,0,.809c.049.3.057.6.113.857l.146.744c.057.235.105.445.154.639s.1.356.138.485c.081.267.113.429.113.429s-.081-.138-.2-.38-.146-.275-.218-.453-.162-.388-.251-.615a7.23,7.23,0,0,1-.235-.809c-.081-.315-.121-.558-.178-.857a3.971,3.971,0,0,1,0-1.011,4.481,4.481,0,0,1,.146-.849,2.087,2.087,0,0,1,.526-.865,1.181,1.181,0,0,1,.21-.154,1.374,1.374,0,0,1,.2-.081,1.148,1.148,0,0,1,.453,0,1.173,1.173,0,0,1,.736.526,2.758,2.758,0,0,1,.356.744,4.691,4.691,0,0,1,.2,1.189A2.936,2.936,0,0,1,32.548,41.4Z" fill="#f2a57f"/>
    <path id="Path_863" data-name="Path 863" d="M32.548,41.4s.138-.315-.849-.388c0,0-1.1.2-.453,1.674a4.772,4.772,0,0,1,.3.987c.1.493-.081,1.165.186,1.618.34.566,1.213.243,1.262-.4a3.721,3.721,0,0,0-.7-1.7,1.326,1.326,0,0,1,.259-1.788Z" fill="#f2a57f"/>
    <path id="Path_864" data-name="Path 864" d="M33.017,44.826a.4.4,0,0,1,.073.081.954.954,0,0,1,.146.275.865.865,0,0,1,.049.21.809.809,0,0,1,0,.243V45.9a1.908,1.908,0,0,1-.081.251,1.181,1.181,0,0,1-.113.226,1.8,1.8,0,0,1-.146.17.631.631,0,0,1-.3.218.906.906,0,0,1-.34.081,2.265,2.265,0,0,1,.154-.356.849.849,0,0,1,.081-.137.326.326,0,0,1,.073-.162,1.214,1.214,0,0,1,.081-.154.809.809,0,0,0,.065-.162,1.747,1.747,0,0,0,.121-.324,1.189,1.189,0,0,0,.04-.162V45.23A1.458,1.458,0,0,0,33.017,44.826Z" fill="#f2a57f"/>
    <path id="Path_865" data-name="Path 865" d="M65.677,22.7c-1.205-.4-1.618-2.192-1.5-1.569a43.549,43.549,0,0,1,.712,6.867c0,1.157.065,2.321.065,3.51h0c0,2.152,0,4.343-.154,6.535,0,.526-.065,1.043-.1,1.569h0c-.121,1.812-.307,3.607-.558,5.354h0a7.346,7.346,0,0,1-.129.93v.1c-.073.461-.154.906-.259,1.343h0a19.064,19.064,0,0,1-1.3,3.793h0a23.952,23.952,0,0,1-8.258,9.229l-.17.121h0c-.226.17-.453.324-.679.477a10.386,10.386,0,0,1-4.578,1.529,10.41,10.41,0,0,1-4.61-1.424c-.6-.34-1.181-.7-1.747-1.076h0l-.121-.129-.105-.081a23.335,23.335,0,0,1-3.413-2.734l-.275-.251h0c-.461-.461-.9-.922-1.31-1.415h0a17.164,17.164,0,0,1-3.543-6.843c-.057-.226-.105-.461-.154-.7a2.431,2.431,0,0,0-.065-.315h0c-.057-.291-.1-.59-.138-.89a.672.672,0,0,0,0-.089.348.348,0,0,0,0-.089.789.789,0,0,0-.049-.332h0c-.065-.421-.113-.849-.17-1.278h0c-.162-1.205-.332-2.427-.485-3.688v-.049l-.162-1.189h0a.68.68,0,0,0,0-.121,4.563,4.563,0,0,0-.081-.647h0c-.057-.453-.1-.906-.154-1.367-.226-2.079-.4-4.174-.469-6.268a43.1,43.1,0,0,1,.809-10.434h0A12.262,12.262,0,0,1,38.1,15.012l.243-.129c.526-.275,1.092-.534,1.7-.809a24.856,24.856,0,0,1,8.266-1.828,23.667,23.667,0,0,1,13.16,4.263h0c.809.574-.186,1.982,1.5,3.235,1.043.809.922.631.922.631C64.011,20.8,66.47,22.955,65.677,22.7Z" fill="#f4b78e"/>
    <path id="Path_866" data-name="Path 866" d="M43.863,36.179a10.814,10.814,0,0,0-7.28.493c.736-3.963,7.595-2.338,7.595-2.338s.453.105.4.809C44.559,35.152,44.381,36.4,43.863,36.179Z" fill="#9d715e"/>
    <path id="Path_867" data-name="Path 867" d="M52.243,36.179a12.391,12.391,0,0,1,7.8.493c-.728-3.963-8.088-2.338-8.088-2.338s-.453.105-.4.809C51.547,35.152,51.766,36.4,52.243,36.179Z" fill="#9d715e"/>
    <ellipse id="Ellipse_449" data-name="Ellipse 449" cx="1.432" cy="2.079" rx="1.432" ry="2.079" transform="matrix(1, -0.006, 0.006, 1, 39.289, 37.791)" fill="#2f1806"/>
    <circle id="Ellipse_450" data-name="Ellipse 450" cx="0.615" cy="0.615" r="0.615" transform="translate(38.937 38.59)" fill="#fff"/>
    <ellipse id="Ellipse_451" data-name="Ellipse 451" cx="2.079" cy="1.432" rx="2.079" ry="1.432" transform="matrix(0.006, -1, 1, 0.006, 54.423, 41.931)" fill="#2f1806"/>
    <circle id="Ellipse_452" data-name="Ellipse 452" cx="0.615" cy="0.615" r="0.615" transform="translate(56.433 38.59)" fill="#fff"/>
    <path id="Path_868" data-name="Path 868" d="M44.721,52.833c0,1.108,1.618,2.014,3.527,2.014s3.518-.9,3.518-2.014Z" fill="#fff"/>
    <path id="Path_869" data-name="Path 869" d="M51.766,53a4.853,4.853,0,0,0,.963-.283s-.574-.243-1.383-.485c-2.079-.874-1.933.259-3.041.259-.55,0-1.108-.59-1.618-.518a10.182,10.182,0,0,0-1.415.259,6.94,6.94,0,0,0-1.383.485s0,.129.809.332a11.089,11.089,0,0,1,2.645-.1,3.575,3.575,0,0,0,1.569,0,24.21,24.21,0,0,1,2.831,0Z" fill="#f27d7f"/>
    <path id="Path_870" data-name="Path 870" d="M52.041,52.72c-.809.809-1.7,2.127-3.979,2.127a3.666,3.666,0,0,1-3.486-2.127h-.712a.387.387,0,0,0,.073.17,7.142,7.142,0,0,0,.6,1.043l.4.534a5.468,5.468,0,0,0,.5.5l.267.251.315.21a2.62,2.62,0,0,0,.7.388,5.816,5.816,0,0,0,.809.259l.348.049H48.3l.809-.105a6,6,0,0,0,.809-.259,2.783,2.783,0,0,0,.679-.38l.315-.21.267-.251a5.451,5.451,0,0,0,.5-.5l.4-.534a7.036,7.036,0,0,0,.6-1.043c0-.057.049-.105.073-.162Z" fill="#f27d7f"/>
    <path id="Path_871" data-name="Path 871" d="M48.328,55.688c2.863-.429,3.235-2.143,3.235-2.143a4.157,4.157,0,0,1-3.292,1.674.226.226,0,0,0-.17.267S48.182,55.713,48.328,55.688Z" fill="#fff"/>
    <path id="Path_872" data-name="Path 872" d="M56.861,8.727Z" fill="#9d715e"/>
    <path id="Path_873" data-name="Path 873" d="M68.961,31.156h0a49.852,49.852,0,0,1-1.124,7.28h0a1.618,1.618,0,0,0-1.068.178h0a2.143,2.143,0,0,0-.485.4,5.128,5.128,0,0,0-1.035,2.006,6.907,6.907,0,0,0-.17.679h0a4.357,4.357,0,0,0-.089.461q0-.328,0-.631v-.817a1.341,1.341,0,0,0-.065-.485h0q-.049-.34-.113-.647h0c-.065-.364-.137-.7-.226-1.019a.922.922,0,0,0,0-.138h0a9.164,9.164,0,0,0-1.027-2.427h0a5.063,5.063,0,0,0-2.669-2.305c-8.056-2.75-12.7-9.261-14.138-11.55h0c-.315-.51-.469-.809-.469-.809L42.157,18l-3.882-3.146c.526-.275,1.092-.534,1.7-.809a24.856,24.856,0,0,1,8.266-1.828,23.666,23.666,0,0,1,13.233,4.287h0l2.71,4.6L67.23,26.3l1.326,2.249.4.679C68.994,30.339,68.969,31.043,68.961,31.156Z" fill="#9d715e"/>
    <path id="Path_874" data-name="Path 874" d="M46.274,47.721h.073l.2-.049.639-.121c.243,0,.5-.073.76-.081s.51,0,.752,0l.728.049.364.04.356.049.34.057a2.677,2.677,0,0,1,.291,0h.291v.073a1.407,1.407,0,0,1-.065.2,1.885,1.885,0,0,1-.388.623,1.739,1.739,0,0,1-.356.315,2.078,2.078,0,0,1-.461.259,2.151,2.151,0,0,1-.542.162,2.281,2.281,0,0,1-.574.049A2.823,2.823,0,0,1,47.6,49.1a2.556,2.556,0,0,1-.809-.558,2.24,2.24,0,0,1-.4-.59,1.189,1.189,0,0,1-.081-.2Z" fill="#f4a485"/>
    <path id="Path_875" data-name="Path 875" d="M55.324,70.029,69.35,75.5c-3.753,2.782-4.044,7.457-4.044,12.133H30.914a33.323,33.323,0,0,0-.089-3.632c-.218-2.888-1.019-6.867-3.769-8.428l14.511-5.662s.493,4.5,6.746,4.5C48.312,74.413,54.952,74.534,55.324,70.029Z" fill="#466daf"/>
    <path id="Path_876" data-name="Path 876" d="M47.365,20.941a5.177,5.177,0,0,1-.623,1.189h0c-1.1,1.739-4.1,5.371-11.963,11.122a3.891,3.891,0,0,0-1.391,2.16,11.809,11.809,0,0,0-.372,3.235v3.648a9.269,9.269,0,0,0-.647-2.5l-.016-.162h0a.194.194,0,0,0,0-.057,4.2,4.2,0,0,0-.453-.72h0a2.006,2.006,0,0,0-2-.809h-.129s-.218-.809-.461-2.216q.429-3.907,1.149-7.336a52.881,52.881,0,0,1,1.99-7.466L34.966,19c.809-.728,1.124-3.049,3.3-4.157.526-.275,1.092-.534,1.7-.809l3.6,3.332Z" fill="#9d715e"/>
    <path id="Path_877" data-name="Path 877" d="M33.373,47.584c1.44,6.471,4.174,12.06,7.5,15.57-4.19,2.329-3.818,7.514-3.818,7.514-5.67-1.917-8.485-7.579-9.722-14.292a38.517,38.517,0,0,0,1.27-8.954,107.028,107.028,0,0,1,.6-11.639q.429-3.907,1.149-7.336l1.326,3.033.882,2,.809,1.86v.081a19.129,19.129,0,0,0-.315,3.276h0c-.065,2.224.049,4.74.138,6.333a4.676,4.676,0,0,0,.065,1.027h0v.4a.348.348,0,0,1,0,.089.671.671,0,0,1,0,.089,5.5,5.5,0,0,0,.138.89H33.34Z" fill="#9d715e"/>
    <path id="Path_878" data-name="Path 878" d="M42.173,59.805a23.334,23.334,0,0,1-3.413-2.734C40.005,58.155,41.574,59.352,42.173,59.805Z" fill="#9d715e"/>
    <path id="Path_879" data-name="Path 879" d="M59.579,70.668s.364-5.152-3.769-7.474a31.355,31.355,0,0,0,6.568-12,23.5,23.5,0,0,1-8.185,9.156v-.372s4.716-3.486,5.266-4.61a15.562,15.562,0,0,0,3.866-8.638s0-.073,0-.1.275-3.494.251-6.794h0a27.352,27.352,0,0,0-.218-3.785h0a3.628,3.628,0,0,0-.129-.7l1.035-2.362h0l.647-1.456h0l2.281-5.185.639-1.44s.307,1.383.688,3.688c.129.768.275,1.618.413,2.6h0C70.644,42.7,72.431,66.381,59.579,70.668Z" fill="#9d715e"/>
    <path id="Path_880" data-name="Path 880" d="M39.633,36.891c-4.133,0-6.721,1.537-6.721,3.171,0,2.6.946,6.8,5.055,7.28,3.971.477,9.156-.963,9.156-7.587C47.147,38.234,43.8,36.891,39.633,36.891ZM38.258,46.6c-3.478-.413-4.287-4.02-4.287-6.236,0-1.4,2.216-2.71,5.751-2.71S46.1,38.824,46.1,40.11c0,5.678-4.416,6.907-7.813,6.495Z" fill="#466daf"/>
    <path id="Path_881" data-name="Path 881" d="M49.743,41.453a1.424,1.424,0,0,0-1.561-1.011c-.938,0-1.173,1.108-1.173,1.108l-.493-2.92a2.524,2.524,0,0,0,1.14.59,4.521,4.521,0,0,0,1.246,0,1.844,1.844,0,0,0,.809-.59Z" fill="#466daf"/>
    <path id="Path_882" data-name="Path 882" d="M33.518,43.03s-1.488-.105-1.488-.865v-2.3c0-1.2,1.488-.809,1.488-.809Z" fill="#466daf"/>
    <path id="Path_883" data-name="Path 883" d="M49.072,39.77c0,6.624,5.185,8.088,9.156,7.587,4.109-.493,5.047-4.707,5.047-7.28,0-1.618-2.588-3.171-6.721-3.171S49.072,38.234,49.072,39.77Zm1.027.34c0-1.318,2.871-2.427,6.406-2.427s5.775,1.278,5.775,2.677c0,2.216-.809,5.824-4.319,6.244S50.1,45.788,50.1,40.11Z" fill="#466daf"/>
    <path id="Path_884" data-name="Path 884" d="M62.709,43.03s1.488-.105,1.488-.865v-2.3c0-1.2-1.488-.809-1.488-.809Z" fill="#466daf"/>
    <path id="Path_885" data-name="Path 885" d="M42.423,59.983v4.538a17.3,17.3,0,0,1-1.472-1.383c-3.405-3.5-6.171-9.108-7.579-15.554h.049a.544.544,0,0,0,.065.315c.049.243.1.469.154.7a15.1,15.1,0,0,0,3.494,6.794h0a6.552,6.552,0,0,0,1.31,1.415h0l.275.251a23.334,23.334,0,0,0,3.413,2.734l.105.081.089.065h0Z" fill="#9d715e"/>
    <path id="Path_886" data-name="Path 886" d="M62.41,51.2a30.859,30.859,0,0,1-6.6,12,16.3,16.3,0,0,1-1.618,1.513,1.5,1.5,0,0,0,0-.186v-.38c0-.631-.065-1.246-.089-1.812V60.493l.17-.121A24.449,24.449,0,0,0,62.41,51.2Z" fill="#9d715e"/>
    <path id="Path_887" data-name="Path 887" d="M80.018,82.178s-10.038-10.555-9.5-23.019c.534-12.65-.089-22.429-1.569-29.927-.574-2.9-.105-.55-.728-3.235a2.275,2.275,0,0,0-.129-.38,18.126,18.126,0,0,0-6.616-9.075h0a23.667,23.667,0,0,0-13.216-4.263,24.856,24.856,0,0,0-8.266,1.828,12.672,12.672,0,0,0-1.7.809q-.57.291-1.068.582a10.871,10.871,0,0,0-4.764,5.532h0a52.881,52.881,0,0,0-2.1,7.4q-.72,3.429-1.149,7.336a107.056,107.056,0,0,0-.6,11.639,38.517,38.517,0,0,1-1.27,8.97C24.572,67.6,19.364,69.892,19.364,69.892c-12.488,8.258,1.124,15.036,2.281,17.18h0l.3.55c7.83,13.936,16.986,14.066,26.514,14.066H93.51C93.526,90.315,88.4,91.544,80.018,82.178ZM64.48,37.692v.7a1.68,1.68,0,0,1,0,.2,45.521,45.521,0,0,1-.963,8.436h0q-.453,2.127-1.076,4.133h0A31.2,31.2,0,0,1,55.81,63.194a16.288,16.288,0,0,1-1.618,1.513h0c-.243.194-.485.372-.736.55h0A8.9,8.9,0,0,1,48.4,67a9.277,9.277,0,0,1-5.662-2.2h0l-.315-.259h0a17.3,17.3,0,0,1-1.472-1.383c-3.405-3.518-6.171-9.124-7.579-15.578h0c-.089-.413-.178-.809-.259-1.238s-.121-.655-.178-.995h0a.461.461,0,0,1,0-.1c-.081-.453-.146-.9-.21-1.359h0c-.105-.809-.2-1.569-.259-2.354a1.884,1.884,0,0,1,0-.291h0a1.961,1.961,0,0,0-.049-.526h0a6.184,6.184,0,0,0-.049-.946h0v-.526h0V37.692a2.184,2.184,0,0,1,0-.315,7.28,7.28,0,0,1,0-.809q0-.558.049-1.116c.049-.663.113-1.318.2-1.957.963-7.28,4.408-12.941,9.593-15.473a12.57,12.57,0,0,1,1.407-.59,14.729,14.729,0,0,1,4.991-.809c8.169,0,14.252,6.649,15.748,16.4h0a31.367,31.367,0,0,1,.348,4.352,1.69,1.69,0,0,0-.186-.226A2.242,2.242,0,0,0,64.48,37.692Z" fill="#6a4c8c"/>
    <path id="Path_888" data-name="Path 888" d="M38.824,60.663a79.776,79.776,0,0,0,8.614,9.083,67.894,67.894,0,0,0,9.868,7.579,43.967,43.967,0,0,0,5.452,2.92c.461.226.938.421,1.407.623s.946.4,1.424.574l1.432.55,1.456.469a36.543,36.543,0,0,0,5.977,1.359,37.083,37.083,0,0,0,6.2.21v.162a23.116,23.116,0,0,1-6.317.76A28.245,28.245,0,0,1,68,84.006a38.153,38.153,0,0,1-11.38-5.6,68.944,68.944,0,0,1-9.706-8.04,80.229,80.229,0,0,1-8.218-9.6Z" fill="#4f3e66"/>
    <path id="Path_889" data-name="Path 889" d="M80.722,92.062a11.518,11.518,0,0,1-6.867,2.524,18.6,18.6,0,0,1-7.344-1.165c-4.707-1.7-8.663-4.78-12.205-8.088A87.935,87.935,0,0,1,44.6,74.5c-2.92-3.858-5.6-7.878-8.137-11.971l.138-.089C39.318,66.414,42.165,70.3,45.23,74A86.9,86.9,0,0,0,55.138,84.37,43.968,43.968,0,0,0,67.053,91.9a20.221,20.221,0,0,0,6.762,1.553,13.823,13.823,0,0,0,3.478-.291,10.329,10.329,0,0,0,3.3-1.229Z" fill="#4f3e66"/>
  </g>
</svg>
