<svg xmlns="http://www.w3.org/2000/svg" xmlns:xlink="http://www.w3.org/1999/xlink" width="93" height="93" viewBox="0 0 93 93">
  <defs>
    <clipPath id="clip-path">
      <circle id="Ellipse_437" data-name="Ellipse 437" cx="46.5" cy="46.5" r="46.5" transform="translate(1606 374)" fill="none" stroke="#fff" stroke-width="1.5"/>
    </clipPath>
    <clipPath id="clip-path-2">
      <circle id="Ellipse_465" data-name="Ellipse 465" cx="46.5" cy="46.5" r="46.5" transform="translate(2.03 2.03)" fill="none"/>
    </clipPath>
  </defs>
  <g id="Mask_Group_14" data-name="Mask Group 14" transform="translate(-1606 -374)" clip-path="url(#clip-path)">
    <g id="Avatars-06" transform="translate(1603.97 371.971)">
      <g id="Layer_1" data-name="Layer 1">
        <circle id="Ellipse_460" data-name="Ellipse 460" cx="46.5" cy="46.5" r="46.5" transform="translate(2.03 2.03)" fill="#6ac5b6"/>
        <g id="Group_2056" data-name="Group 2056" clip-path="url(#clip-path-2)">
          <path id="Path_918" data-name="Path 918" d="M66.462,36.462V78.457H29.442V71.42a5.354,5.354,0,0,0,.849-1.561,22.106,22.106,0,0,0,1.092-9.31h0a71.241,71.241,0,0,1-1.941-8.509V36.462Z" fill="#221918"/>
          <path id="Path_919" data-name="Path 919" d="M37.409,27.355v51.1H29.442V71.42a5.354,5.354,0,0,0,.849-1.561,22.106,22.106,0,0,0,1.092-9.31h0a71.241,71.241,0,0,1-1.941-8.509V28.4q.146-.534.315-1.043Z" fill="#693d34"/>
          <path id="Path_920" data-name="Path 920" d="M55.567,59.1H43.92s.291,8.9-1.132,11.5H56.845C55.413,68.023,55.567,59.1,55.567,59.1Z" fill="#f4b78e"/>
          <path id="Path_921" data-name="Path 921" d="M43.855,64.586c2.168,1.019,4.352,2,6.843,1.763a14.106,14.106,0,0,0,5.031-1.5c-.21-2.928-.17-5.743-.17-5.743H43.92S44.009,61.755,43.855,64.586Z" fill="#dfa57e"/>
          <path id="Path_922" data-name="Path 922" d="M71.4,75.667,55.187,69.333H44.429L28.212,75.667S22.55,77.7,23.2,87.581H76.419C77.2,77.09,71.4,75.667,71.4,75.667Z" fill="#f4b78e"/>
          <path id="Path_923" data-name="Path 923" d="M64.448,42.157c-.477,2.96.356,5.589,1.852,5.872s3.106-1.885,3.583-4.853-.356-5.589-1.86-5.872S64.925,39.188,64.448,42.157Z" fill="#f4b78e"/>
          <path id="Path_924" data-name="Path 924" d="M66.252,41.356a1.67,1.67,0,0,1,.081-.437,5.435,5.435,0,0,1,.364-1.068c.186-.4.493-.849.874-.874a.809.809,0,0,1,.291.04,1.511,1.511,0,0,1,.146.073,1.149,1.149,0,0,1,.105.089,1.513,1.513,0,0,1,.364.647,3.785,3.785,0,0,1,.178.809,4.125,4.125,0,0,1,0,.809c-.049.3-.057.6-.113.857l-.146.744c-.065.235-.105.445-.146.639s-.1.348-.137.485c-.081.267-.113.429-.113.429s.081-.138.2-.38.146-.275.218-.453.162-.388.251-.615a7.23,7.23,0,0,0,.235-.809c.081-.315.121-.558.178-.857a3.98,3.98,0,0,0,0-1.011,4.522,4.522,0,0,0-.194-1,2.071,2.071,0,0,0-.526-.865,1.141,1.141,0,0,0-.21-.154,1.44,1.44,0,0,0-.21-.081,1.149,1.149,0,0,0-.453,0,1.181,1.181,0,0,0-.736.526,2.718,2.718,0,0,0-.356.744,4.724,4.724,0,0,0-.2,1.189,2.936,2.936,0,0,0,.057.526Z" fill="#f2a57f"/>
          <path id="Path_925" data-name="Path 925" d="M66.252,41.356s-.137-.315.849-.388c0,0,1.108.2.453,1.674a4.773,4.773,0,0,0-.332.995c-.1.493.081,1.165-.186,1.618-.34.566-1.213.243-1.262-.4a3.713,3.713,0,0,1,.7-1.7,1.326,1.326,0,0,0-.226-1.8Z" fill="#f2a57f"/>
          <path id="Path_926" data-name="Path 926" d="M65.775,44.769a.5.5,0,0,0-.073.081.955.955,0,0,0-.146.275.874.874,0,0,0-.04.17.76.76,0,0,0,0,.243c0,.081,0,.178,0,.267a1.982,1.982,0,0,0,.081.243,1.157,1.157,0,0,0,.113.226,1.837,1.837,0,0,0,.146.17.631.631,0,0,0,.3.218.9.9,0,0,0,.34.081,2.257,2.257,0,0,0-.17-.315.97.97,0,0,0-.081-.138,1.733,1.733,0,0,0-.073-.162,1.093,1.093,0,0,0-.081-.154.809.809,0,0,1-.065-.162,1.755,1.755,0,0,1-.121-.324,1.344,1.344,0,0,1-.04-.162c0-.057,0-.113,0-.162A1.953,1.953,0,0,1,65.775,44.769Z" fill="#f2a57f"/>
          <path id="Path_927" data-name="Path 927" d="M35.864,42.157c.477,2.96-.356,5.589-1.852,5.872s-3.106-1.885-3.583-4.853.356-5.589,1.86-5.872S35.387,39.188,35.864,42.157Z" fill="#f4b78e"/>
          <path id="Path_928" data-name="Path 928" d="M34.06,41.356a1.67,1.67,0,0,0-.081-.437,5.363,5.363,0,0,0-.364-1.068c-.186-.4-.493-.849-.874-.874a.809.809,0,0,0-.291.04,1.512,1.512,0,0,0-.146.073,1.012,1.012,0,0,0-.105.089,1.521,1.521,0,0,0-.364.647,3.826,3.826,0,0,0-.178.809,4.117,4.117,0,0,0,0,.809c.049.3.057.6.113.857l.146.744c.065.235.105.445.154.639s.1.348.138.485c.081.267.113.429.113.429s-.081-.138-.2-.38-.146-.275-.218-.453-.162-.388-.251-.615a7.229,7.229,0,0,1-.235-.809q-.11-.424-.178-.857a3.963,3.963,0,0,1,0-1.011,4.5,4.5,0,0,1,.194-1,2.071,2.071,0,0,1,.526-.865,1.116,1.116,0,0,1,.21-.154,1.431,1.431,0,0,1,.2-.081,1.157,1.157,0,0,1,.453,0,1.181,1.181,0,0,1,.736.526,2.718,2.718,0,0,1,.356.744,4.667,4.667,0,0,1,.2,1.189,2.936,2.936,0,0,1-.057.526Z" fill="#f2a57f"/>
          <path id="Path_929" data-name="Path 929" d="M34.06,41.356s.138-.315-.849-.388c0,0-1.108.2-.453,1.674a4.8,4.8,0,0,1,.332.995c.1.493-.081,1.165.186,1.618.34.566,1.213.243,1.262-.4a3.7,3.7,0,0,0-.7-1.7,1.326,1.326,0,0,1,.226-1.8Z" fill="#f2a57f"/>
          <path id="Path_930" data-name="Path 930" d="M34.537,44.769a.461.461,0,0,1,.073.081.938.938,0,0,1,.146.275.873.873,0,0,1,.024.17.752.752,0,0,1,0,.243V45.8a1.892,1.892,0,0,1-.081.243,1.173,1.173,0,0,1-.113.226,1.78,1.78,0,0,1-.146.17.631.631,0,0,1-.3.218.9.9,0,0,1-.34.081,2.191,2.191,0,0,1,.17-.315,1.06,1.06,0,0,1,.081-.137.326.326,0,0,1,.073-.162,1.181,1.181,0,0,1,.081-.154.809.809,0,0,0,.065-.162,1.82,1.82,0,0,0,.121-.324,1.4,1.4,0,0,0,.04-.162v-.162A1.535,1.535,0,0,0,34.537,44.769Z" fill="#f2a57f"/>
          <path id="Path_931" data-name="Path 931" d="M66.422,35.184q0,.639-.049,1.278a10.751,10.751,0,0,1-.073,1.529c-.121,2.346-.34,4.691-.655,6.94a7.148,7.148,0,0,1-.129.93v.105q-.089.631-.235,1.229V47.3a18.6,18.6,0,0,1-1.262,3.656h0a.339.339,0,0,1,0,.073,19.671,19.671,0,0,1-3.357,4.958h0a3.471,3.471,0,0,1-.275.307c-.372.4-.76.809-1.165,1.173A33.89,33.89,0,0,1,55.607,60.4h0c-.226.17-.453.324-.679.477A10.515,10.515,0,0,1,50.35,62.4a10.458,10.458,0,0,1-4.61-1.424c-.6-.34-1.181-.7-1.747-1.084a22.445,22.445,0,0,1-6.527-6.309,16.508,16.508,0,0,1-2.483-6.147c-.057-.291-.1-.59-.138-.89,0-.17-.049-.34-.065-.51-.065-.429-.113-.849-.17-1.286-.162-1.205-.332-2.427-.485-3.688h0l-.162-1.213h0a7.583,7.583,0,0,0-.1-.849c-.049-.437-.1-.865-.146-1.3a6.869,6.869,0,0,0-.089-.809h0v-.413a66.577,66.577,0,0,1-.332-9.116,35.241,35.241,0,0,1,1.06-7.951A18.077,18.077,0,0,1,39.487,15.7a21.3,21.3,0,0,1,3.559-1.367c.291-.089.6-.17.89-.243a35.476,35.476,0,0,1,8.638-.979,21.03,21.03,0,0,1,5.1.59h0a19.315,19.315,0,0,1,7.182,4.392,23.457,23.457,0,0,1,.809,3.171,42.8,42.8,0,0,1,.671,6.665C66.47,30.291,66.494,32.726,66.422,35.184Z" fill="#f4b78e"/>
          <path id="Path_932" data-name="Path 932" d="M44.907,36.592a10.814,10.814,0,0,0-7.28-.55c1.262-3.818,7.821-1.262,7.821-1.262s.437.17.283.865C45.74,35.678,45.384,36.859,44.907,36.592Z" fill="#693d34"/>
          <path id="Path_933" data-name="Path 933" d="M55.2,36.3a12.391,12.391,0,0,1,7.7-1.351c-1.618-3.68-8.412-.372-8.412-.372s-.413.21-.2.89C54.289,35.459,54.75,36.608,55.2,36.3Z" fill="#693d34"/>
          <ellipse id="Ellipse_461" data-name="Ellipse 461" cx="1.432" cy="2.079" rx="1.432" ry="2.079" transform="translate(40.81 37.732) rotate(-0.34)" fill="#2f1806"/>
          <circle id="Ellipse_462" data-name="Ellipse 462" cx="0.615" cy="0.615" r="0.615" transform="translate(40.45 38.541)" fill="#fff"/>
          <ellipse id="Ellipse_463" data-name="Ellipse 463" cx="2.079" cy="1.432" rx="2.079" ry="1.432" transform="translate(55.935 41.876) rotate(-89.66)" fill="#2f1806"/>
          <circle id="Ellipse_464" data-name="Ellipse 464" cx="0.615" cy="0.615" r="0.615" transform="translate(57.953 38.541)" fill="#fff"/>
          <path id="Path_934" data-name="Path 934" d="M46.241,52.785c0,1.108,1.618,2.014,3.527,2.014s3.518-.9,3.527-2.014Z" fill="#fff"/>
          <path id="Path_935" data-name="Path 935" d="M53.1,53.092a3.68,3.68,0,0,0,1.149-.429s-.574-.243-1.383-.485c-2.079-.874-1.933.259-3.041.259-.55,0-1.108-.582-1.618-.518a10.337,10.337,0,0,0-1.415.259,6.948,6.948,0,0,0-1.383.485,4.262,4.262,0,0,0,1.254.485,14.235,14.235,0,0,1,2.257.113,3.583,3.583,0,0,0,1.569,0,10.62,10.62,0,0,1,2.621-.21Z" fill="#f27d7f"/>
          <path id="Path_936" data-name="Path 936" d="M53.553,52.663a5.4,5.4,0,0,1-4.044,1.618,5.168,5.168,0,0,1-3.429-1.618h-.7a.387.387,0,0,0,.073.17,7.142,7.142,0,0,0,.6,1.043l.4.534a5.663,5.663,0,0,0,.5.5l.267.251.315.21a2.669,2.669,0,0,0,.7.388,5.912,5.912,0,0,0,.809.259l.348.049h.429l.809-.105a5.784,5.784,0,0,0,.809-.259,2.807,2.807,0,0,0,.679-.38l.315-.21.267-.251a5.662,5.662,0,0,0,.5-.5l.4-.534a7.11,7.11,0,0,0,.607-.995c0-.057.049-.105.073-.162Z" fill="#f27d7f"/>
          <path id="Path_937" data-name="Path 937" d="M49.768,55.324c2.888-.194,3.421-1.876,3.421-1.876a4.157,4.157,0,0,1-3.421,1.4.226.226,0,0,0-.186.251S49.614,55.332,49.768,55.324Z" fill="#fff"/>
          <path id="Path_938" data-name="Path 938" d="M72.545,76.192h0l-1.99-.865-3.478-1.359-.6-.235-.688-.275h0c-.2-.154-.4-.307-.582-.469s-.267-.226-.388-.348a15.093,15.093,0,0,1-2.232-2.588,19.639,19.639,0,0,1-2.936-7.207,2.761,2.761,0,0,0-.081-.437,22.122,22.122,0,0,1-.372-4.9,10.369,10.369,0,0,0,1.165-1.173,3.469,3.469,0,0,0,.275-.307h0A33.624,33.624,0,0,0,64,50.957h0a11.8,11.8,0,0,0,1.221-3.632V47.22c.089-.461.17-.93.235-1.4h0c0-.259.081-.51.105-.768h0a58.736,58.736,0,0,0,.388-6.681V36.665l-.429-.2A62.863,62.863,0,0,1,43.475,24.653h0L43,24.265l-.21-.2-.809-1.982v-.065l-.226-.582v-.049L39.5,15.724a21.3,21.3,0,0,1,3.559-1.367c.291-.089.6-.17.89-.243l21.766,7.158,2.427.809c2.515,4.667,4.044,11.583,3.81,21.75-.2,8.145-2.127,15.7-5.516,21.289V66l2.346,2.54.162-.2.55.59c.542.59,1.108,1.229,1.69,1.917h0q.59.688,1.205,1.44a30.584,30.584,0,0,1,.154,3.907Z" fill="#693d34"/>
          <path id="Path_939" data-name="Path 939" d="M47.786,47.665h.073l.2-.049.639-.121c.243,0,.5-.073.76-.081s.51,0,.752,0l.728.049.364.04.356.049.34.057h.291l.21.04h.081l-.008.073a1.334,1.334,0,0,1-.065.2,1.885,1.885,0,0,1-.388.623,1.731,1.731,0,0,1-.356.315,2.079,2.079,0,0,1-.461.259,2.176,2.176,0,0,1-.542.162,2.329,2.329,0,0,1-.615.057,2.685,2.685,0,0,1-.566-.073,2.654,2.654,0,0,1-.518-.178,2.58,2.58,0,0,1-.809-.558,2.265,2.265,0,0,1-.4-.59,1.23,1.23,0,0,1-.081-.2Z" fill="#f4a485"/>
          <path id="Path_940" data-name="Path 940" d="M56.845,69.981,71.4,75.642s5.791,1.432,5.015,11.914L48.53,108.667l-9.5-2.127L23.2,87.581c-.663-9.876,5.015-11.914,5.015-11.914l14.874-5.807,6.471,6.818Z" fill="#df89b9"/>
          <path id="Path_941" data-name="Path 941" d="M45.376,23.3a10.515,10.515,0,0,0-2.184.809l-.194.1c-.3.154-.631.34-.971.55a14.511,14.511,0,0,0-4.618,4.651,18.506,18.506,0,0,0-2.532,7.029,22.025,22.025,0,0,0-.267,2.273c-.057.712-.081,1.448-.081,2.224a6.932,6.932,0,0,0-.728-1.957,3.494,3.494,0,0,0-.34-.469A2.208,2.208,0,0,0,33,38.072a1.666,1.666,0,0,0-1.812,0h0s-.226-.6-.51-1.618a33.3,33.3,0,0,1-1.205-8.088h0q.146-.534.315-1.043a20.148,20.148,0,0,1,4.57-7.91A18.078,18.078,0,0,1,39.487,15.7a21.3,21.3,0,0,1,3.559-1.367l1.69,6.527h0Z" fill="#693d34"/>
          <path id="Path_942" data-name="Path 942" d="M40.943,19.857l1.221,5.524,1.31-.7Z" fill="#f4b78e"/>
          <path id="Path_943" data-name="Path 943" d="M82.914,91.4c-.3-1.019-.647-2.014-1.019-2.993-.2-.526-.4-1.035-.615-1.553a56.991,56.991,0,0,0-5.759-10.418c-.057-.081-.105-.162-.17-.243h0c-.186-.275-.388-.558-.582-.809a.275.275,0,0,0-.057-.081c-.283-.38-.542-.752-.809-1.108h0c-.485-.647-.979-1.27-1.456-1.86s-.809-.987-1.205-1.44h0c-.582-.679-1.149-1.326-1.69-1.917l-.55-.59-.162.2-2.346-2.54v-.922c3.357-5.589,5.29-13.144,5.492-21.289.251-10.167-1.294-17.091-3.81-21.75A15.974,15.974,0,0,0,57.735,13.75h0a21.03,21.03,0,0,0-5.16-.639,35.476,35.476,0,0,0-8.646.954c-.291.073-.6.154-.89.243a21.3,21.3,0,0,0-3.559,1.367,18.078,18.078,0,0,0-5.12,3.737,20.148,20.148,0,0,0-4.586,7.967c-.113.34-.226.688-.315,1.043v.024c-1.432,5.128-1.755,11.93-.429,20.925.138.93.275,1.82.429,2.685A71.244,71.244,0,0,0,31.4,60.566h0a22.105,22.105,0,0,1-1.092,9.31,5.354,5.354,0,0,1-.849,1.561A2.645,2.645,0,0,1,27.5,72.512c-.809.307-1.982.388-1.771,1.779a3.713,3.713,0,0,0,.3.413,7.087,7.087,0,0,0,.647.809c.235.243.388.453.59.663s.194.21.3.315A14.907,14.907,0,0,0,28.8,77.673q.34.291.679.558a2.612,2.612,0,0,0,.226.186c.356.275.72.55,1.092.809,8,5.573,19.339,6.705,19.339,6.705s2.063.453,8.007-.582V86.8l.073.752.073.809,1.828,21.984c8.2,5.411,24.742-1.545,26.772-2.75a1.278,1.278,0,0,0,.542-.752h0C87.985,104.7,85.235,99.155,82.914,91.4ZM37.619,25.826h0a15.077,15.077,0,0,1,3.041-2.879,9.187,9.187,0,0,1,.865-.566l.129-.089c.121-.081.259-.154.38-.218h.129a15.991,15.991,0,0,1,2.564-1.116h0a15.553,15.553,0,0,1,1.747-.493,14.98,14.98,0,0,1,3.607-.4,7.943,7.943,0,0,1,.809,0h0a17.228,17.228,0,0,1,5.282,1.157l.445.178a15.724,15.724,0,0,1,2.718,1.48s.1.073.154.113l.4.283a2.823,2.823,0,0,1,.243.186l.113.089.283.235a15.869,15.869,0,0,1,4.441,6.2.728.728,0,0,1,.049.113c.081.194.154.388.226.59.121.356.251.72.372,1.1h0l.129.445c.065.226.121.453.186.688h0a23.79,23.79,0,0,1,.461,2.354c.1.671.186,1.383.243,2.119v.372a6.322,6.322,0,0,0,.049.768v4.036h0a27.748,27.748,0,0,1-.21,3.025,1.816,1.816,0,0,1-.065.59c-.065.194,0,.307-.057.461h0v.186q-.073.607-.162,1.189h0q-.243,1.6-.582,3.033c-.138.558-.275,1.1-.429,1.618-.065.186-.113.372-.17.55-.226.736-.485,1.415-.744,2.079h0a21.887,21.887,0,0,1-2.208,4.166A16.549,16.549,0,0,1,59.522,62.4c-.162.154-.324.291-.485.437a14.146,14.146,0,0,1-1.828,1.326l-.089.049h0a13.074,13.074,0,0,1-1.407.752l-.4.178a15.174,15.174,0,0,1-2.054.679l-.194.057c-.372.089-.728.154-1.084.21h-.049a14.357,14.357,0,0,1-1.852.129,13.322,13.322,0,0,1-3.518-.485H46.5a.566.566,0,0,1-.154,0h0a13.992,13.992,0,0,1-2.427-.995h-.057c-.291-.146-.59-.307-.89-.493h-.057l-.1-.065h0a16.355,16.355,0,0,1-5.071-5.217c-.105-.162-.21-.332-.307-.5A20.381,20.381,0,0,1,36.4,56.384h0a15.978,15.978,0,0,1-.671-1.618c-.121-.315-.243-.647-.356-.987a34.456,34.456,0,0,1-1.4-5.743h0a.9.9,0,0,0-.065-.4h0v-.2c-.089-.6-.154-1.213-.218-1.86a2.412,2.412,0,0,0-.057-.631h0a1.173,1.173,0,0,1,0-.235c0-.388-.065-.809-.089-1.2v-4.9h0V36.988h0v-.413c.065-.534.129-1.043.21-1.545h0a1.206,1.206,0,0,1,0-.162c.089-.542.194-1.051.307-1.553.089-.364.178-.72.275-1.068.146-.542.315-1.06.5-1.553A18.425,18.425,0,0,1,36.4,27.46,16.048,16.048,0,0,1,37.579,25.8Z" fill="#bee4e5"/>
          <path id="Path_944" data-name="Path 944" d="M33.494,70.094l1.359,1.893a17.8,17.8,0,0,0,1.424,1.8,21.2,21.2,0,0,0,3.357,3.049,14.187,14.187,0,0,0,8.323,2.912,17.924,17.924,0,0,0,8.525-2.321,50.9,50.9,0,0,0,7.555-4.982l.21-.17h.21l-.429.17,1.254-1.027c.4-.348.809-.663,1.221-1.027s.809-.7,1.205-1.068.809-.7,1.213-1.068l.129.1a15.251,15.251,0,0,1-.963,1.318c-.332.437-.655.874-1,1.294S66.373,71.776,66,72.2s-.744.809-1.116,1.173l-.178.235H64.44l.421-.154a28.091,28.091,0,0,1-7.668,5.492,19.865,19.865,0,0,1-9.285,2.022,14.866,14.866,0,0,1-8.719-3.5,21.774,21.774,0,0,1-3.235-3.381,18.067,18.067,0,0,1-1.335-1.917L33.373,70.2Z" fill="#a1cdcb"/>
          <path id="Path_945" data-name="Path 945" d="M68.209,70.8a18.288,18.288,0,0,1-4.4,8.582,13.629,13.629,0,0,1-8.436,4.659v-.081c.364-.186.736-.34,1.1-.51a8.68,8.68,0,0,0,1.084-.5,22.239,22.239,0,0,0,2.063-1.165,19.857,19.857,0,0,0,3.745-2.855,17.794,17.794,0,0,0,2.9-3.761,18.07,18.07,0,0,0,1.893-4.392Z" fill="#a1cdcb"/>
          <path id="Path_946" data-name="Path 946" d="M33.551,42.351c.267,2.79.671,5.573,1.181,8.323A76.664,76.664,0,0,0,36.6,58.827a54.9,54.9,0,0,0,2.993,7.684c1.173,2.427,2.6,4.8,5.031,6.236l-.057.154a7.886,7.886,0,0,1-3.785-2.135,15.028,15.028,0,0,1-2.629-3.494,30.169,30.169,0,0,1-2.807-8.088,77.7,77.7,0,0,1-1.415-8.388c-.3-2.807-.493-5.621-.542-8.436Z" fill="#a1cdcb"/>
          <path id="Path_947" data-name="Path 947" d="M68.209,80.01A103.166,103.166,0,0,1,72.253,91.5,42.333,42.333,0,0,1,73.6,97.449a21.669,21.669,0,0,1,.105,6.115H73.6a47.09,47.09,0,0,0-.809-5.977c-.372-1.974-.744-3.955-1.213-5.921s-1.011-3.915-1.618-5.848-1.189-3.866-1.868-5.775Z" fill="#a1cdcb"/>
        </g>
      </g>
    </g>
  </g>
</svg>
