<svg xmlns="http://www.w3.org/2000/svg" xmlns:xlink="http://www.w3.org/1999/xlink" width="93" height="93" viewBox="0 0 93 93">
  <defs>
    <clipPath id="clip-path">
      <circle id="Ellipse_436" data-name="Ellipse 436" cx="46.5" cy="46.5" r="46.5" transform="translate(1715 374)" fill="none" stroke="#fff" stroke-width="1.5"/>
    </clipPath>
    <clipPath id="clip-path-2">
      <circle id="Ellipse_500" data-name="Ellipse 500" cx="46.5" cy="46.5" r="46.5" transform="translate(2.022 2.022)"/>
    </clipPath>
  </defs>
  <g id="Mask_Group_20" data-name="Mask Group 20" transform="translate(-1715 -374)" clip-path="url(#clip-path)">
    <g id="Avatars-03" transform="translate(1712.979 371.979)">
      <circle id="Ellipse_495" data-name="Ellipse 495" cx="46.5" cy="46.5" r="46.5" transform="translate(2.022 2.022)" fill="#99c45b"/>
      <g id="Group_2080" data-name="Group 2080">
        <g id="Group_2079" data-name="Group 2079" clip-path="url(#clip-path-2)">
          <rect id="Rectangle_792" data-name="Rectangle 792" width="17.387" height="6.389" transform="translate(39.869 73.43)" fill="#6cb8c9"/>
          <path id="Path_1070" data-name="Path 1070" d="M55.477,65.828H41.405s.323,8.9-1.375,11.483H57.013C55.315,74.723,55.477,65.828,55.477,65.828Z" fill="#f4b78e"/>
          <path id="Path_1071" data-name="Path 1071" d="M41.163,72.621a14.807,14.807,0,0,0,7.44,1.941,17.706,17.706,0,0,0,7.2-1.617,58.617,58.617,0,0,1-.323-7.117H41.405A65.09,65.09,0,0,1,41.163,72.621Z" fill="#f5dcd5"/>
          <path id="Path_1072" data-name="Path 1072" d="M75.775,83.538l-20.46-7.359H41.648l-20.46,7.359s-7.2,2.345-6.308,13.829h67.2C83.134,85.156,75.775,83.538,75.775,83.538Z" fill="#f4b78e"/>
          <path id="Path_1073" data-name="Path 1073" d="M75.775,83.538l-16.74-5.984L48.522,84.913l-10.27-7.44L21.269,83.538s-7.2,2.345-6.308,13.829H82.244C83.134,85.156,75.775,83.538,75.775,83.538Z" fill="#3b8c53"/>
          <g id="Group_2069" data-name="Group 2069">
            <path id="Path_1074" data-name="Path 1074" d="M63.968,48.36c-.485,2.992.323,5.661,1.86,5.984s3.154-1.941,3.639-4.933-.323-5.661-1.86-5.984S64.453,45.287,63.968,48.36Z" fill="#f4b78e"/>
            <g id="Group_2068" data-name="Group 2068">
              <g id="Group_2066" data-name="Group 2066">
                <path id="Path_1075" data-name="Path 1075" d="M65.828,47.551a1.415,1.415,0,0,1,.081-.4,4.482,4.482,0,0,1,.4-1.051c.162-.4.485-.89.89-.89a.611.611,0,0,1,.323.081.282.282,0,0,0,.162.081l.081.081a1.761,1.761,0,0,1,.4.647,2.907,2.907,0,0,1,.162.89,3.277,3.277,0,0,1,0,.89,3.627,3.627,0,0,0-.081.89c-.081.243-.081.485-.162.728s-.081.485-.162.647-.081.323-.162.485a1.415,1.415,0,0,0-.081.4,4.2,4.2,0,0,1,.243-.4,2.693,2.693,0,0,0,.243-.485,5.573,5.573,0,0,0,.243-.647c.081-.243.162-.485.243-.809a2.907,2.907,0,0,0,.162-.89,2.3,2.3,0,0,0,0-1.051,5.566,5.566,0,0,0-.162-1.051,1.538,1.538,0,0,0-.566-.89c-.081-.081-.162-.081-.243-.162s-.081-.081-.243-.081-.323-.081-.485,0a1.291,1.291,0,0,0-.728.566,2.872,2.872,0,0,0-.323.728,10.61,10.61,0,0,0-.243,1.213Q65.828,47.551,65.828,47.551Z" fill="#f2a57f"/>
              </g>
              <path id="Path_1076" data-name="Path 1076" d="M65.828,47.551s-.162-.323.89-.4c0,0,1.132.243.485,1.7a4.559,4.559,0,0,0-.323.97c-.081.485.081,1.213-.162,1.617-.323.566-1.213.243-1.294-.4a4.021,4.021,0,0,1,.728-1.7C66.07,49.33,66.8,48.2,65.828,47.551Z" fill="#f2a57f"/>
              <g id="Group_2067" data-name="Group 2067">
                <path id="Path_1077" data-name="Path 1077" d="M65.343,51.029l-.081.081c-.081.081-.081.162-.162.243a.3.3,0,0,1-.081.243v.485c0,.081.081.162.081.243s.081.162.081.243l.162.162c.081.081.243.162.323.243a.806.806,0,0,0,.323.081,3.4,3.4,0,0,1-.162-.4c0-.081-.081-.081-.081-.162s-.081-.081-.081-.162-.081-.081-.081-.162S65.5,52.08,65.5,52s0-.162,0-.323c0-.081,0-.081-.081-.162v-.162A1.275,1.275,0,0,1,65.343,51.029Z" fill="#f2a57f"/>
              </g>
            </g>
          </g>
          <g id="Group_2073" data-name="Group 2073">
            <path id="Path_1078" data-name="Path 1078" d="M33.318,48.36c.485,2.992-.323,5.661-1.86,5.984S28.3,52.4,27.819,49.411s.323-5.661,1.86-5.984C31.135,43.1,32.833,45.287,33.318,48.36Z" fill="#f4b78e"/>
            <g id="Group_2072" data-name="Group 2072">
              <g id="Group_2070" data-name="Group 2070">
                <path id="Path_1079" data-name="Path 1079" d="M31.458,47.551a1.415,1.415,0,0,0-.081-.4,4.482,4.482,0,0,0-.4-1.051c-.162-.4-.485-.89-.89-.89a.611.611,0,0,0-.323.081.282.282,0,0,1-.162.081l-.081.081a1.761,1.761,0,0,0-.4.647,2.907,2.907,0,0,0-.162.89,3.277,3.277,0,0,0,0,.89,3.627,3.627,0,0,1,.081.89c.081.243.081.485.162.728s.081.485.162.647.081.323.162.485a1.415,1.415,0,0,1,.081.4,4.2,4.2,0,0,0-.243-.4,2.692,2.692,0,0,1-.243-.485,5.572,5.572,0,0,1-.243-.647c-.081-.243-.162-.485-.243-.809a2.907,2.907,0,0,1-.162-.89,2.3,2.3,0,0,1,0-1.051,5.565,5.565,0,0,1,.162-1.051,1.538,1.538,0,0,1,.566-.89c.081-.081.162-.081.243-.162s.081-.081.243-.081.323-.081.485,0a1.291,1.291,0,0,1,.728.566,2.873,2.873,0,0,1,.323.728,10.61,10.61,0,0,1,.243,1.213Q31.458,47.551,31.458,47.551Z" fill="#f2a57f"/>
              </g>
              <path id="Path_1080" data-name="Path 1080" d="M31.458,47.551s.162-.323-.89-.4c0,0-1.132.243-.485,1.7a4.559,4.559,0,0,1,.323.97c.081.485-.081,1.213.162,1.617.323.566,1.213.243,1.294-.4a3.219,3.219,0,0,0-.728-1.7C31.216,49.33,30.488,48.2,31.458,47.551Z" fill="#f2a57f"/>
              <g id="Group_2071" data-name="Group 2071">
                <path id="Path_1081" data-name="Path 1081" d="M31.943,51.029l.081.081c.081.081.081.162.162.243a.3.3,0,0,0,.081.243v.485c0,.081-.081.162-.081.243s-.081.162-.081.243l-.162.162c-.081.081-.243.162-.323.243a.806.806,0,0,1-.323.081,3.4,3.4,0,0,0,.162-.4c0-.081.081-.081.081-.162s.081-.081.081-.162.081-.081.081-.162.081-.081.081-.162c.081-.081.081-.243.162-.323,0-.081,0-.081.081-.162v-.162A1.275,1.275,0,0,1,31.943,51.029Z" fill="#f2a57f"/>
              </g>
            </g>
          </g>
          <path id="Path_1082" data-name="Path 1082" d="M48.845,15.85H48.36c-12.13.081-18.923,3.558-17.063,25.636l2.1,17.63a7.519,7.519,0,0,0,3.882,5.176l6.55,4.852s3.154,1.375,4.771,1.213c1.617.162,4.771-1.294,4.771-1.294l6.55-4.852a7.227,7.227,0,0,0,3.882-5.176L65.99,41.81C67.85,19.813,60.976,15.931,48.845,15.85Z" fill="#f4b78e"/>
          <ellipse id="Ellipse_496" data-name="Ellipse 496" cx="1.456" cy="2.103" rx="1.456" ry="2.103" transform="matrix(1, -0.006, 0.006, 1, 39.614, 40.849)" fill="#2f1806"/>
          <circle id="Ellipse_497" data-name="Ellipse 497" cx="0.647" cy="0.647" r="0.647" transform="translate(39.222 41.648)" fill="#fff"/>
          <ellipse id="Ellipse_498" data-name="Ellipse 498" cx="2.103" cy="1.456" rx="2.103" ry="1.456" transform="matrix(0.006, -1, 1, 0.006, 54.699, 45.059)" fill="#2f1806"/>
          <circle id="Ellipse_499" data-name="Ellipse 499" cx="0.647" cy="0.647" r="0.647" transform="translate(56.77 41.648)" fill="#fff"/>
          <path id="Path_1083" data-name="Path 1083" d="M44.074,38.737a.912.912,0,0,1-1.132.728,11.389,11.389,0,0,0-5.742.485,1.032,1.032,0,0,1-1.213-.566h0a.974.974,0,0,1,.485-1.294,12.07,12.07,0,0,1,6.793-.566.974.974,0,0,1,.809,1.213Z" fill="#3d3d3d"/>
          <path id="Path_1084" data-name="Path 1084" d="M52.646,38.737a.912.912,0,0,0,1.132.728,11.389,11.389,0,0,1,5.742.485,1.032,1.032,0,0,0,1.213-.566h0a.913.913,0,0,0-.485-1.294,12.07,12.07,0,0,0-6.793-.566,1.029,1.029,0,0,0-.809,1.213Z" fill="#3d3d3d"/>
          <g id="Group_2074" data-name="Group 2074">
            <path id="Path_1085" data-name="Path 1085" d="M48.522,84.832,47.147,77.8,39.869,73.43l-1.132,4.448Z" fill="#6cb8c9"/>
            <path id="Path_1086" data-name="Path 1086" d="M47.147,77.8,43.67,84.1l-8.41-5.661,4.61-5.014Z" fill="#bee4e5"/>
          </g>
          <g id="Group_2075" data-name="Group 2075">
            <path id="Path_1087" data-name="Path 1087" d="M48.522,84.832,49.9,77.8l7.278-4.367,1.132,4.448Z" fill="#6cb8c9"/>
            <path id="Path_1088" data-name="Path 1088" d="M49.9,77.8,53.374,84.1l8.41-5.661-4.61-5.014Z" fill="#bee4e5"/>
          </g>
          <path id="Path_1089" data-name="Path 1089" d="M49.25,61.946a3.3,3.3,0,0,1-1.7,0" fill="none" stroke="#e89780" stroke-linecap="round" stroke-linejoin="round" stroke-miterlimit="10" stroke-width="0.809"/>
          <path id="Path_1090" data-name="Path 1090" d="M44.559,58.388l.97,1.941a5.7,5.7,0,0,0,7.521-1.86A74.679,74.679,0,0,1,44.559,58.388Z" fill="#fff"/>
          <path id="Path_1091" data-name="Path 1091" d="M41.567,22.239a7.394,7.394,0,0,1,.566,1.132c-1.941.162-3.316.323-3.316.323-2.669.647-3.558,3.235-3.8,5.58a38.114,38.114,0,0,0-6.55.809C28.3,19.732,33.48,17.144,33.48,17.144a5.192,5.192,0,0,1,.809-1.051c.081,0,.081.081.162.162a43.172,43.172,0,0,0,3.882,2.83,16.747,16.747,0,0,1,1.941,1.375A10.071,10.071,0,0,1,41.567,22.239Z" fill="#3d3d3d"/>
          <path id="Path_1092" data-name="Path 1092" d="M46.257,23.129c-.89,0-1.86,0-2.75.081a18.172,18.172,0,0,0-.97-1.7,6.5,6.5,0,0,0-1.779-1.86c-.728-.485-1.456-.809-2.1-1.213a33.44,33.44,0,0,1-4.043-2.426l-.081-.081a13.84,13.84,0,0,1,7.117-3.073,9.661,9.661,0,0,0,1.86,3.477,25.849,25.849,0,0,0,2.022,2.183l.243.243.162.243c.162.162.162.323.323.485A3.245,3.245,0,0,1,46.5,20.7,12.978,12.978,0,0,1,46.257,23.129Z" fill="#3d3d3d"/>
          <path id="Path_1093" data-name="Path 1093" d="M68.739,26.525,68.5,29.841a40.845,40.845,0,0,0-5.095-.566c-.485-5.176-4.448-5.661-4.448-5.661-8.491-.4-9.947-.323-9.947-.323a7.4,7.4,0,0,0-1.375-.081,9.831,9.831,0,0,0,0-2.669A4.879,4.879,0,0,0,47.147,19a3.8,3.8,0,0,0-.485-.728l-.323-.323L46.1,17.71a15.743,15.743,0,0,1-2.1-1.941A9.429,9.429,0,0,1,42.052,12.7a25.763,25.763,0,0,1,5.337-.323c2.507-1.132,1.7-3.963,1.7-3.963,2.264.647,2.426,4.448,2.426,4.448,0-3.154,3.154-4.448,3.154-4.448-1.051,4.61,2.83,5.742,2.83,5.742a9.749,9.749,0,0,1,0-3.558c1.375,3.963,6.227,5.257,6.227,5.257C69.629,19.732,68.739,26.525,68.739,26.525Z" fill="#3d3d3d"/>
          <g id="Group_2076" data-name="Group 2076">
            <path id="Path_1094" data-name="Path 1094" d="M41.486,61.3c-.4.162-1.213.647-1.617.243-.243-.162-.243-.97-.243-1.779-.081-1.132.243-2.183,1.294-2.507l7.44-2.345,7.763,2.345c1.051.323,1.375,1.375,1.375,2.507,0,.647.243,1.537-.081,1.779-.485.4-1.779-.243-2.426-.485l-6.55-2.022-6.227,2.022Z" fill="#3d3d3d"/>
          </g>
          <g id="Group_2078" data-name="Group 2078">
            <g id="Group_2077" data-name="Group 2077">
              <path id="Path_1095" data-name="Path 1095" d="M50.705,54.183a3.392,3.392,0,0,1-1.132.728,6.831,6.831,0,0,1-1.375.4,4.417,4.417,0,0,1-1.456-.081l-.728-.243a4.8,4.8,0,0,1-.647-.323l-.323-.162v-1.86c0-.4.081-.89.081-1.294a7.078,7.078,0,0,1,.162-1.294c.081-.4.162-.89.243-1.294a21.325,21.325,0,0,1,.809-2.426,4.941,4.941,0,0,1,.566-1.132c.243-.4.4-.728.647-1.132,0,.4-.081.89-.081,1.294-.081.4-.081.809-.162,1.294a6.242,6.242,0,0,1-.162,1.213c-.081.4-.081.809-.162,1.213s-.081.809-.162,1.213a6.242,6.242,0,0,1-.162,1.213c0,.4-.081.809-.081,1.213s-.081.809-.081,1.213l-.323-.566c.162.081.323.243.485.323l.485.243a1.169,1.169,0,0,0,.566.162,1.5,1.5,0,0,1,.566.162c.162,0,.4.081.566.081h.647A6.243,6.243,0,0,0,50.705,54.183Z" fill="#eba17d"/>
            </g>
          </g>
          <path id="Path_1096" data-name="Path 1096" d="M68.5,29.841l-.89,13.586c-2.264,0-2.183,2.83-2.183,2.83H64.13l.162-7.521c.323-3.8-1.213-4.771-1.213-4.771a13.525,13.525,0,0,0,.323-4.61A27.825,27.825,0,0,1,68.5,29.841Z" fill="#5b5b5b"/>
          <path id="Path_1097" data-name="Path 1097" d="M33.4,36.23V46.257H32.186a6.313,6.313,0,0,0-2.588-2.83l-1.132-11a21.957,21.957,0,0,1-.081-2.264,38.114,38.114,0,0,1,6.55-.809,16.738,16.738,0,0,0,.243,4.61C33.4,33.884,33.4,36.23,33.4,36.23Z" fill="#5b5b5b"/>
          <path id="Path_1098" data-name="Path 1098" d="M43.589,23.29c-.485,0-.97.081-1.456.081a4.941,4.941,0,0,0-.566-1.132,7.469,7.469,0,0,0-1.375-1.779c-.566-.485-1.294-.89-1.941-1.375a43.172,43.172,0,0,1-3.882-2.83l-.162-.162.243-.243.081.081a41.143,41.143,0,0,0,4.043,2.426c.728.4,1.375.728,2.1,1.213a7.743,7.743,0,0,1,1.779,1.86A11.456,11.456,0,0,1,43.589,23.29Z" fill="#5b5b5b"/>
          <path id="Path_1099" data-name="Path 1099" d="M47.713,23.21H46.257A13.165,13.165,0,0,0,46.5,20.7a5.371,5.371,0,0,0-.243-1.213c-.081-.162-.162-.4-.323-.485l-.162-.243-.243-.243a17.469,17.469,0,0,1-2.022-2.183,11.1,11.1,0,0,1-1.86-3.477c.162,0,.323-.081.566-.081a8.258,8.258,0,0,0,1.941,3.073,23.906,23.906,0,0,0,2.1,1.941l.243.243.323.323c.243.162.323.485.485.728a5.638,5.638,0,0,1,.485,1.537C47.794,21.43,47.794,22.32,47.713,23.21Z" fill="#5b5b5b"/>
        </g>
      </g>
    </g>
  </g>
</svg>
