<svg xmlns="http://www.w3.org/2000/svg" xmlns:xlink="http://www.w3.org/1999/xlink" width="93" height="93" viewBox="0 0 93 93">
  <defs>
    <clipPath id="clip-path">
      <circle id="Ellipse_441" data-name="Ellipse 441" cx="46.5" cy="46.5" r="46.5" transform="translate(1497 483)" fill="none" stroke="#fff" stroke-width="1.5"/>
    </clipPath>
    <clipPath id="clip-path-2">
      <circle id="Ellipse_479" data-name="Ellipse 479" cx="46.5" cy="46.5" r="46.5" transform="translate(2.03 2.03)" fill="none"/>
    </clipPath>
  </defs>
  <g id="Mask_Group_16" data-name="Mask Group 16" transform="translate(-1497 -483)" clip-path="url(#clip-path)">
    <g id="Avatars-07" transform="translate(1494.97 480.971)">
      <g id="Layer_1" data-name="Layer 1">
        <circle id="Ellipse_472" data-name="Ellipse 472" cx="46.5" cy="46.5" r="46.5" transform="translate(2.03 2.03)" fill="#ffc83f"/>
        <g id="Group_2058" data-name="Group 2058" clip-path="url(#clip-path-2)">
          <rect id="Rectangle_786" data-name="Rectangle 786" width="36.171" height="39.77" transform="translate(29.975 36.762)" fill="#2f1806"/>
          <rect id="Rectangle_787" data-name="Rectangle 787" width="14.988" height="5.516" transform="translate(41.752 64.844)" fill="#6cb8c9"/>
          <path id="Path_972" data-name="Path 972" d="M55.244,57.185H43.6s.291,8.9-1.132,11.5H56.521C55.09,66.1,55.244,57.185,55.244,57.185Z" fill="#f4b78e"/>
          <path id="Path_973" data-name="Path 973" d="M43.532,62.661c2.168,1.019,4.352,2,6.843,1.763a14.1,14.1,0,0,0,5.031-1.5c-.21-2.928-.162-5.743-.162-5.743H43.6S43.677,59.854,43.532,62.661Z" fill="#dfa57e"/>
          <path id="Path_974" data-name="Path 974" d="M71.081,73.742,54.863,67.408H44.106L27.889,73.742s-5.662,2.038-5.015,11.914H76.1C76.839,75.173,71.081,73.742,71.081,73.742Z" fill="#f4b78e"/>
          <path id="Path_975" data-name="Path 975" d="M68.589,44.195a.575.575,0,0,1-.057.089h0c-.663,1.181-1.537,1.893-2.427,1.82h-.17a1.771,1.771,0,0,1-1.06-.7h0a3.608,3.608,0,0,1-.558-1.06,8.582,8.582,0,0,1-.235-4.1,9.124,9.124,0,0,1,.906-2.831h0a6.089,6.089,0,0,1,.372-.631,4.473,4.473,0,0,1,.582-.7h0a1.965,1.965,0,0,1,1.715-.671l.21.057h0Z" fill="#f4b78e"/>
          <path id="Path_976" data-name="Path 976" d="M68.072,36.77h0l-.065-.049-.137-.089-.2-.081a1.019,1.019,0,0,0-.461,0,1.181,1.181,0,0,0-.736.518,2.839,2.839,0,0,0-.324.647v.089a4.626,4.626,0,0,0-.2,1.2,2.83,2.83,0,0,0,0,.4.186.186,0,0,0,0,.057s0,0,0-.113h0a.642.642,0,0,1,.065-.315,3.6,3.6,0,0,0,.137-.5,6,6,0,0,1,.226-.558c.186-.4.485-.849.865-.874a.43.43,0,0,1,.429.081.582.582,0,0,1,.105.089,1.31,1.31,0,0,1,.3.469,1.5,1.5,0,0,1,.065.17,1.772,1.772,0,0,1,.065.218h0q.073.716.121,1.456h0c0,.162-.049.332-.065.493h0a.719.719,0,0,1-.057.348q-.073.4-.138.744c-.065.235-.105.445-.146.639s-.1.348-.137.485c-.081.275-.113.429-.113.429s.081-.129.2-.38.146-.275.218-.461.162-.388.251-.615a.113.113,0,0,0,0-.057h0l.073-.186h0Z" fill="#f2a57f"/>
          <path id="Path_977" data-name="Path 977" d="M65.928,39.431s-.138-.315.849-.388c0,0,1.108.2.453,1.674a4.853,4.853,0,0,0-.332.995c-.1.493.081,1.165-.186,1.618-.34.566-1.213.243-1.262-.4a3.721,3.721,0,0,1,.7-1.7A1.326,1.326,0,0,0,65.928,39.431Z" fill="#f2a57f"/>
          <path id="Path_978" data-name="Path 978" d="M65.451,42.868a.453.453,0,0,0-.073.081.946.946,0,0,0-.146.275.9.9,0,0,0-.049.21.809.809,0,0,0,0,.243v.267a1.851,1.851,0,0,0,.081.243,1.076,1.076,0,0,0,.113.226,1.819,1.819,0,0,0,.146.17.631.631,0,0,0,.3.218.9.9,0,0,0,.34.081,2.192,2.192,0,0,0-.154-.356.946.946,0,0,0-.081-.138.326.326,0,0,0-.073-.162,1.223,1.223,0,0,0-.081-.154.809.809,0,0,1-.065-.162,1.82,1.82,0,0,1-.121-.324,1.254,1.254,0,0,1-.04-.162v-.162A1.942,1.942,0,0,1,65.451,42.868Z" fill="#f2a57f"/>
          <path id="Path_979" data-name="Path 979" d="M35.54,40.232c.477,2.96-.356,5.589-1.852,5.872s-3.106-1.885-3.583-4.853.356-5.589,1.86-5.872S35.063,37.271,35.54,40.232Z" fill="#f4b78e"/>
          <path id="Path_980" data-name="Path 980" d="M33.737,39.431a1.67,1.67,0,0,0-.081-.437,5.411,5.411,0,0,0-.364-1.068c-.186-.4-.493-.849-.874-.874a.809.809,0,0,0-.291.04,1.619,1.619,0,0,0-.146.073,1.205,1.205,0,0,0-.105.089,1.513,1.513,0,0,0-.364.647,3.8,3.8,0,0,0-.178.809,4.044,4.044,0,0,0,0,.809c.049.3.057.6.113.857l.146.744c.065.235.105.445.154.639s.1.348.138.485c.073.267.113.429.113.429s-.081-.138-.2-.38-.146-.275-.218-.453-.162-.388-.251-.615a7.23,7.23,0,0,1-.235-.809c-.081-.315-.121-.558-.178-.857a4.044,4.044,0,0,1,0-1.011,4.505,4.505,0,0,1,.194-1,2.079,2.079,0,0,1,.437-.76,1.14,1.14,0,0,1,.21-.154,1.447,1.447,0,0,1,.2-.081,1.157,1.157,0,0,1,.453,0,1.181,1.181,0,0,1,.736.526,2.75,2.75,0,0,1,.356.744,4.764,4.764,0,0,1,.2,1.189,2.814,2.814,0,0,1,.032.421Z" fill="#f2a57f"/>
          <path id="Path_981" data-name="Path 981" d="M33.737,39.431s.138-.315-.849-.388c0,0-1.108.2-.453,1.674a4.772,4.772,0,0,1,.332.995c.1.493-.081,1.165.186,1.618.34.566,1.213.243,1.262-.4a3.721,3.721,0,0,0-.7-1.7,1.326,1.326,0,0,1,.226-1.8Z" fill="#f2a57f"/>
          <path id="Path_982" data-name="Path 982" d="M34.214,42.868a.526.526,0,0,1,.073.081.946.946,0,0,1,.146.275.873.873,0,0,1,.049.21.809.809,0,0,1,0,.243v.267a1.917,1.917,0,0,1-.081.243,1.124,1.124,0,0,1-.113.226,1.787,1.787,0,0,1-.146.17.623.623,0,0,1-.3.218.9.9,0,0,1-.34.081,2.3,2.3,0,0,1,.154-.356.978.978,0,0,1,.081-.137.326.326,0,0,1,.073-.162,1.052,1.052,0,0,1,.081-.154.809.809,0,0,0,.065-.162,1.756,1.756,0,0,0,.121-.324,1.415,1.415,0,0,0,.04-.162c0-.057,0-.113,0-.162A1.942,1.942,0,0,0,34.214,42.868Z" fill="#f2a57f"/>
          <path id="Path_983" data-name="Path 983" d="M65.985,36.066v.7c-.129,2.111-.332,4.2-.623,6.228a7.723,7.723,0,0,1-.129.954v.1c-.073.461-.154.906-.267,1.351a18.555,18.555,0,0,1-3.494,7.336A28.059,28.059,0,0,1,55.26,58.5c-.226.17-.461.332-.688.485a10.442,10.442,0,0,1-4.578,1.529,10.458,10.458,0,0,1-4.61-1.424c-.6-.34-1.181-.7-1.747-1.084a23.384,23.384,0,0,1-5.621-4.982,16.783,16.783,0,0,1-3.438-7.474c-.057-.291-.1-.59-.138-.89,0-.17-.049-.34-.065-.51-.065-.429-.113-.849-.17-1.286-.162-1.2-.324-2.427-.477-3.632-.057-.413-.105-.809-.154-1.229s-.1-.809-.146-1.229-.081-.655-.105-.987a59.215,59.215,0,0,1-.113-14.333,17.64,17.64,0,0,1,8.339-8.234h0A19.056,19.056,0,0,1,49.339,11.7a14.559,14.559,0,0,1,11.033,4.716,21.094,21.094,0,0,1,3.235,4.5A29.365,29.365,0,0,1,64.9,23.586a34.609,34.609,0,0,1,1.213,3.389C66.179,29.927,66.155,33.009,65.985,36.066Z" fill="#f4b78e"/>
          <path id="Path_984" data-name="Path 984" d="M45.06,34.206a10.814,10.814,0,0,0-7.28.493c.7-3.963,7.571-2.346,7.571-2.346s.453.105.4.809C45.756,33.162,45.57,34.392,45.06,34.206Z" fill="#9d715e"/>
          <path id="Path_985" data-name="Path 985" d="M53.432,34.206a12.383,12.383,0,0,1,7.8.493c-.728-3.963-8.088-2.346-8.088-2.346s-.453.105-.4.809C52.736,33.162,52.922,34.392,53.432,34.206Z" fill="#9d715e"/>
          <ellipse id="Ellipse_473" data-name="Ellipse 473" cx="1.432" cy="2.079" rx="1.432" ry="2.079" transform="translate(40.483 35.817) rotate(-0.34)" fill="#2f1806"/>
          <circle id="Ellipse_474" data-name="Ellipse 474" cx="0.615" cy="0.615" r="0.615" transform="translate(40.126 36.616)" fill="#fff"/>
          <ellipse id="Ellipse_475" data-name="Ellipse 475" cx="2.079" cy="1.432" rx="2.079" ry="1.432" transform="translate(55.617 39.955) rotate(-89.66)" fill="#2f1806"/>
          <circle id="Ellipse_476" data-name="Ellipse 476" cx="0.615" cy="0.615" r="0.615" transform="translate(57.63 36.616)" fill="#fff"/>
          <path id="Path_986" data-name="Path 986" d="M45.918,50.86c0,1.108,1.618,2.014,3.527,2.014s3.518-.9,3.527-2.014Z" fill="#fff"/>
          <path id="Path_987" data-name="Path 987" d="M52.777,51.167a3.68,3.68,0,0,0,1.149-.429s-.574-.243-1.383-.485c-2.079-.874-1.933.259-3.041.259-.55,0-1.108-.582-1.618-.518a10.314,10.314,0,0,0-1.415.259,6.948,6.948,0,0,0-1.383.485,4.262,4.262,0,0,0,1.254.485,14.244,14.244,0,0,1,2.257.113,3.583,3.583,0,0,0,1.569,0,10.62,10.62,0,0,1,2.621-.21Z" fill="#f27d7f"/>
          <path id="Path_988" data-name="Path 988" d="M53.238,50.738a5.4,5.4,0,0,1-4.044,1.618,5.168,5.168,0,0,1-3.429-1.618h-.7a.387.387,0,0,0,.073.17,7.214,7.214,0,0,0,.6,1.043l.4.534a5.663,5.663,0,0,0,.5.5l.267.251.315.21a2.685,2.685,0,0,0,.7.388,5.911,5.911,0,0,0,.809.259l.348.049h.17l.105.049H49.5l.809-.105a5.783,5.783,0,0,0,.809-.259,2.823,2.823,0,0,0,.679-.38l.315-.21.267-.251a5.548,5.548,0,0,0,.5-.5l.4-.534a7.053,7.053,0,0,0,.6-1.043c0-.057.049-.105.073-.162Z" fill="#f27d7f"/>
          <path id="Path_989" data-name="Path 989" d="M49.444,53.383c2.888-.194,3.421-1.876,3.421-1.876a4.157,4.157,0,0,1-3.421,1.4.226.226,0,0,0-.186.251S49.29,53.383,49.444,53.383Z" fill="#fff"/>
          <path id="Path_990" data-name="Path 990" d="M47.463,45.74h.073l.2-.049.639-.121c.243,0,.5-.073.76-.081s.51,0,.752,0l.728.049.364.04.356.049.34.057h.291l.21.04h.081V45.8a1.358,1.358,0,0,1-.065.2,1.885,1.885,0,0,1-.388.623,1.739,1.739,0,0,1-.356.315,2.071,2.071,0,0,1-.461.259,2.16,2.16,0,0,1-.542.162,2.337,2.337,0,0,1-.574.049,2.815,2.815,0,0,1-1.084-.251,2.564,2.564,0,0,1-.809-.558,2.257,2.257,0,0,1-.4-.59,1.262,1.262,0,0,1-.081-.2Z" fill="#f4a485"/>
          <path id="Path_991" data-name="Path 991" d="M43.354,16.209l.291,5.646,1.415-.469Z" fill="#f4b78e"/>
          <path id="Path_992" data-name="Path 992" d="M56.521,68.055l14.559,5.662s5.791,1.432,5.015,11.914H22.874c-.663-9.876,5.015-11.914,5.015-11.914l14.874-5.775,6.471,6.818Z" fill="#5858a6"/>
          <path id="Path_993" data-name="Path 993" d="M49.25,74.753l-1.189-6.091-6.309-3.818-.914,3.842Z" fill="#6cb8c9"/>
          <path id="Path_994" data-name="Path 994" d="M48.061,68.662l-2.985,5.46-7.288-4.95,3.963-4.327Z" fill="#bee4e5"/>
          <path id="Path_995" data-name="Path 995" d="M49.25,74.753l1.189-6.091,6.309-3.818.922,3.842Z" fill="#6cb8c9"/>
          <path id="Path_996" data-name="Path 996" d="M50.439,68.662l2.985,5.46,7.288-4.95-3.963-4.327Z" fill="#bee4e5"/>
          <path id="Path_997" data-name="Path 997" d="M47.778,73.685l1.472,1.068,1.48-1.068V85.656H47.778Z" fill="#70bed0"/>
          <circle id="Ellipse_477" data-name="Ellipse 477" cx="0.898" cy="0.898" r="0.898" transform="translate(48.352 76.532)" fill="#bee4e5"/>
          <circle id="Ellipse_478" data-name="Ellipse 478" cx="0.898" cy="0.898" r="0.898" transform="translate(48.352 83.852)" fill="#bee4e5"/>
          <path id="Path_998" data-name="Path 998" d="M49.679,26.465a19.776,19.776,0,0,1,15.133,6.964c-.105-9.973-6.366-17.252-15.133-17.252-9.237,0-15.166,7.28-15.3,17.325A20.221,20.221,0,0,1,49.679,26.465Z" fill="#515252"/>
          <path id="Path_999" data-name="Path 999" d="M68.525,56.732q.218-4.594.17-8.6h0a18.653,18.653,0,0,1-.146-2.321v-1.5c0-.663,0-1.318-.049-1.957v-.089a8.249,8.249,0,0,0-.057-1.189h0v-.421l-.113-1.019h0c0-.493-.081-.979-.121-1.456h0q-.057-.688-.137-1.351a7.267,7.267,0,0,0-.089-.809,4.722,4.722,0,0,1-.04-.566,54.2,54.2,0,0,0-1.019-5.662c-.235-.987-.493-1.933-.809-2.847A34.611,34.611,0,0,0,64.9,23.553a29.37,29.37,0,0,0-1.294-2.669,21.094,21.094,0,0,0-3.235-4.5A14.559,14.559,0,0,0,49.42,11.655a19.056,19.056,0,0,0-7.789,1.521h0a17.675,17.675,0,0,0-8.339,8.234,35.92,35.92,0,0,0-3.235,9.043q-.218,1-.421,2.071c-.089.461-.17.938-.243,1.424a5.829,5.829,0,0,1-.1.623c-.073.461-.129.93-.194,1.407s-.113.938-.17,1.415l-.073.671a104.81,104.81,0,0,0-.477,11.089h0c0,2.046.073,4.19.178,6.471.51,10.515-9.075,19.412-9.075,19.412l-.251.243C11.38,82.9,6.584,81.992,6.584,91.455H49.59c7.142,0,14.1-.073,20.375-5.824a29.855,29.855,0,0,0,4.942-6.018c.089-.154.186-.307.283-.461h0c.089-.129.162-.275.251-.413.574-.946,1.14-1.982,1.707-3.082h0C75.222,73.742,68.088,65.839,68.525,56.732ZM34.473,33.623h0a.484.484,0,0,1,.057-.275,16.625,16.625,0,0,1,7.4-11.461h0l.413-.243A10.991,10.991,0,0,1,43.6,21.03a10.109,10.109,0,0,1,.954-.372l.235-.081h0L45,20.5a15,15,0,0,1,4.505-.671,15.708,15.708,0,0,1,4.764.712c.461.146.914.307,1.351.493,4.732,2.022,7.951,6.471,9.019,12.222.057.267.1.534.137.809.089.542.146,1.092.194,1.618a6.028,6.028,0,0,0,.049.938v.129a3.432,3.432,0,0,1,0,.566.17.17,0,0,1,0,.065.849.849,0,0,1,0,.2v1.189h0v.445h0a4.527,4.527,0,0,1-.049.809h0a4.3,4.3,0,0,1-.049.445h0a1.334,1.334,0,0,1,0,.251c-.057.663-.146,1.326-.251,1.982-.065.388-.121.768-.2,1.149a.235.235,0,0,1,0,.1h0a.538.538,0,0,1-.057.291,3.128,3.128,0,0,0-.113.542q-.109.522-.243,1.043a32.766,32.766,0,0,1-2.588,6.9c-.113.235-.235.461-.356.671a22.72,22.72,0,0,1-4.254,5.662c-.461.421-.938.809-1.407,1.165h0l-.146.105-.154.105h0a10.749,10.749,0,0,1-2.847,1.424h0a8.2,8.2,0,0,1-2.645.421,9.2,9.2,0,0,1-4.853-1.464h0c-.243-.154-.469-.3-.7-.461h0c-.17-.113-.332-.243-.493-.364-.364-.275-.72-.582-1.068-.9a22.647,22.647,0,0,1-4.529-6.066,31.067,31.067,0,0,1-1.771-4.044h0a35.468,35.468,0,0,1-1.027-3.478l-.138-.623a34.36,34.36,0,0,1-.809-6.471,1.213,1.213,0,0,1,0-.17c0-.194,0-.4,0-.59v-.5a1.391,1.391,0,0,0-.178.194c0-.178,0-.348,0-.518a.889.889,0,0,1,0-.146,23.108,23.108,0,0,1,.38-3.057Z" fill="#6a4c8c"/>
          <path id="Path_1000" data-name="Path 1000" d="M68.589,44.195c0-.639-.065-1.254-.1-1.868,0,.647,0,1.294.049,1.957v1.5a18.653,18.653,0,0,0,.146,2.321C68.686,46.759,68.646,45.449,68.589,44.195Z" fill="#6b6c6a"/>
          <path id="Path_1001" data-name="Path 1001" d="M77.6,76.111l-.453-.445h0c-1.925-1.925-9.059-9.827-8.622-18.935q.218-4.594.17-8.6h0a18.653,18.653,0,0,1-.146-2.321v-1.5c0-.663,0-1.318-.049-1.957v-.089a8.249,8.249,0,0,0-.057-1.189h0v-.421l-.113-1.019h0c0-.493-.081-.979-.121-1.456h0q-.057-.688-.137-1.351a7.267,7.267,0,0,0-.089-.809,4.722,4.722,0,0,1-.04-.566,54.2,54.2,0,0,0-1.019-5.662c-.235-.987-.493-1.933-.809-2.847A34.611,34.611,0,0,0,64.9,23.553a29.37,29.37,0,0,0-1.294-2.669,21.094,21.094,0,0,0-3.235-4.5A14.559,14.559,0,0,0,49.42,11.655a19.056,19.056,0,0,0-7.789,1.521h0a17.675,17.675,0,0,0-8.339,8.234,35.92,35.92,0,0,0-3.235,9.043q-.218,1-.421,2.071c-.089.461-.17.938-.243,1.424a5.829,5.829,0,0,1-.1.623c-.073.461-.129.93-.194,1.407s-.113.938-.17,1.415l-.073.671a104.81,104.81,0,0,0-.477,11.089h0c0,2.046.073,4.19.178,6.471.51,10.515-9.075,19.412-9.075,19.412l-.251.243C11.38,82.9,6.584,81.992,6.584,91.455L35.7,96.729c3.8,1.035,8.4,0,12.4,0l42.423-4.214C90.5,82.962,85.6,83.99,77.6,76.111ZM34.473,33.623h0a.484.484,0,0,1,.057-.275,16.625,16.625,0,0,1,7.4-11.461h0l.413-.243a12.775,12.775,0,0,1,1.246-.623,10.125,10.125,0,0,1,.954-.372l.235-.081L45,20.488a15,15,0,0,1,4.505-.671,15.708,15.708,0,0,1,4.764.712c.461.146.914.307,1.351.493,4.732,2.022,7.951,6.471,9.019,12.222.057.267.1.534.137.809.089.542.146,1.092.194,1.618a6.029,6.029,0,0,0,.049.938v.129a3.43,3.43,0,0,1,0,.566.17.17,0,0,1,0,.065.85.85,0,0,1,0,.2v1.189h0V39.2h0a4.528,4.528,0,0,1-.049.809h0a4.3,4.3,0,0,1-.049.445h0a1.334,1.334,0,0,1,0,.251c-.057.663-.146,1.326-.251,1.982-.065.388-.121.768-.2,1.149a.235.235,0,0,1,0,.1h0a.538.538,0,0,1-.057.291,3.128,3.128,0,0,0-.113.542q-.109.522-.243,1.043a32.766,32.766,0,0,1-2.58,6.916c-.113.235-.235.461-.356.671a22.72,22.72,0,0,1-4.254,5.662c-.461.421-.938.809-1.407,1.165h0l-.146.105-.154.105h0a10.749,10.749,0,0,1-2.847,1.424h0a8.2,8.2,0,0,1-2.645.421,9.2,9.2,0,0,1-4.853-1.464h0c-.243-.154-.469-.3-.7-.461h0c-.17-.113-.332-.243-.493-.364-.364-.275-.72-.582-1.068-.9a22.647,22.647,0,0,1-4.529-6.066,31.067,31.067,0,0,1-1.771-4.044h0a35.468,35.468,0,0,1-1.027-3.478l-.138-.623a34.36,34.36,0,0,1-.809-6.471,1.213,1.213,0,0,1,0-.17c0-.194,0-.4,0-.59v-.5a1.391,1.391,0,0,0-.178.194c0-.178,0-.348,0-.518a.889.889,0,0,1,0-.146,23.108,23.108,0,0,1,.38-3.057Z" fill="#6b6c6a"/>
          <path id="Path_1002" data-name="Path 1002" d="M64.707,42.787a157.462,157.462,0,0,1-2.588,16.055,70.8,70.8,0,0,1-2.208,7.87,28.656,28.656,0,0,1-1.618,3.8A9.706,9.706,0,0,1,55.616,73.9a5.774,5.774,0,0,1-.526.3l-.267.137-.307.089a4.465,4.465,0,0,1-1.173.178,8.34,8.34,0,0,1-2.208-.259,13.022,13.022,0,0,1-3.891-1.828A23.982,23.982,0,0,1,41.4,66.567a33.656,33.656,0,0,1-3.866-7.28,36.592,36.592,0,0,1-1.238-3.923,28.358,28.358,0,0,1-.679-4.044h.162A41.639,41.639,0,0,0,42.69,65.6a29.055,29.055,0,0,0,2.548,3.009,21.466,21.466,0,0,0,2.912,2.588,11.534,11.534,0,0,0,3.357,1.747,6.94,6.94,0,0,0,1.8.283,2.766,2.766,0,0,0,1.569-.4,8.606,8.606,0,0,0,2.37-2.871,27.573,27.573,0,0,0,1.674-3.624,69.905,69.905,0,0,0,2.427-7.692,156.99,156.99,0,0,0,3.235-15.877Z" fill="#515252"/>
          <path id="Path_1003" data-name="Path 1003" d="M34.319,42.868A65.265,65.265,0,0,0,35.3,59.4a41.785,41.785,0,0,0,2.281,7.91,25.4,25.4,0,0,0,4.141,6.972c.421.526.922.979,1.383,1.464a19.592,19.592,0,0,0,1.545,1.278,14.842,14.842,0,0,0,3.421,1.957,7.126,7.126,0,0,0,3.664.558,6.382,6.382,0,0,0,3.308-1.5A17.479,17.479,0,0,0,59.49,71.5a37.564,37.564,0,0,0,1.448-3.858c.445-1.31.809-2.645,1.149-3.988h.162a34.181,34.181,0,0,1-1.7,8.234,17.139,17.139,0,0,1-4.465,7.377,8.04,8.04,0,0,1-4.149,1.941,8.566,8.566,0,0,1-4.473-.744,16.339,16.339,0,0,1-3.7-2.3,21.032,21.032,0,0,1-1.618-1.44,20.77,20.77,0,0,1-1.424-1.618,26.562,26.562,0,0,1-4.133-7.417,42.707,42.707,0,0,1-2.095-8.153,61.471,61.471,0,0,1-.7-8.347,64.87,64.87,0,0,1,.372-8.323Z" fill="#515252"/>
        </g>
      </g>
    </g>
  </g>
</svg>
