<svg xmlns="http://www.w3.org/2000/svg" xmlns:xlink="http://www.w3.org/1999/xlink" width="93" height="93" viewBox="0 0 93 93">
  <defs>
    <clipPath id="clip-path">
      <circle id="Ellipse_440" data-name="Ellipse 440" cx="46.5" cy="46.5" r="46.5" transform="translate(1606 483)" fill="none" stroke="#fff" stroke-width="1.5"/>
    </clipPath>
    <clipPath id="clip-path-2">
      <circle id="Ellipse_485" data-name="Ellipse 485" cx="46.5" cy="46.5" r="46.5" transform="translate(2.03 2.03)" fill="none"/>
    </clipPath>
  </defs>
  <g id="Mask_Group_17" data-name="Mask Group 17" transform="translate(-1606 -483)" clip-path="url(#clip-path)">
    <g id="Avatars-04" transform="translate(1603.97 480.971)">
      <g id="Layer_1" data-name="Layer 1">
        <circle id="Ellipse_480" data-name="Ellipse 480" cx="46.5" cy="46.5" r="46.5" transform="translate(2.03 2.03)" fill="#f16a4b"/>
        <g id="Group_2059" data-name="Group 2059" clip-path="url(#clip-path-2)">
          <rect id="Rectangle_788" data-name="Rectangle 788" width="17.382" height="6.398" transform="translate(39.835 73.386)" fill="#6cb8c9"/>
          <path id="Path_1004" data-name="Path 1004" d="M55.5,65.88H41.38s.356,8.9-1.375,11.5H57.047C55.324,74.793,55.5,65.88,55.5,65.88Z" fill="#f4b78e"/>
          <path id="Path_1005" data-name="Path 1005" d="M41.2,72.609a15.02,15.02,0,0,0,7.441,1.974,17.689,17.689,0,0,0,7.207-1.618,57.33,57.33,0,0,1-.348-7.093H41.38a56.75,56.75,0,0,1-.178,6.738Z" fill="#dfa57e"/>
          <path id="Path_1006" data-name="Path 1006" d="M75.812,83.561l-20.5-7.344H41.72l-20.5,7.344s-7.174,2.362-6.341,13.815H82.137C83.124,85.219,75.812,83.561,75.812,83.561Z" fill="#f4b78e"/>
          <path id="Path_1007" data-name="Path 1007" d="M75.812,83.561l-16.767-6L48.53,84.928,38.242,77.487l-16.986,6.1S14.082,85.947,14.915,97.4H82.17C83.124,85.219,75.812,83.561,75.812,83.561Z" fill="#eaf5f5"/>
          <path id="Path_1008" data-name="Path 1008" d="M38.242,77.462l-16.986,6.1s-7.174,2.362-6.341,13.815H42Z" fill="#eaf5f5"/>
          <path id="Path_1009" data-name="Path 1009" d="M75.812,83.561l-16.767-6L55.583,97.376H82.129C83.124,85.219,75.812,83.561,75.812,83.561Z" fill="#eaf5f5"/>
          <path id="Path_1010" data-name="Path 1010" d="M64,48.352c-.485,3.009.356,5.662,1.885,5.969s3.154-1.917,3.64-4.926-.356-5.662-1.885-5.977S64.48,45.343,64,48.352Z" fill="#f4b78e"/>
          <path id="Path_1011" data-name="Path 1011" d="M65.831,47.543a1.75,1.75,0,0,1,.081-.445,5.452,5.452,0,0,1,.364-1.084c.194-.4.5-.865.89-.89a.809.809,0,0,1,.291.04,1.546,1.546,0,0,1,.146.081,1.181,1.181,0,0,1,.105.089,1.545,1.545,0,0,1,.364.655,3.843,3.843,0,0,1,.178.857,4.1,4.1,0,0,1,0,.865c-.049.3-.057.615-.113.874l-.146.752c-.065.235-.105.453-.154.647s-.1.356-.137.493c-.081.275-.121.437-.121.437s.081-.138.2-.388c.057-.129.146-.275.218-.461s.162-.4.251-.623a7.642,7.642,0,0,0,.243-.809c.081-.307.121-.566.186-.874a4.044,4.044,0,0,0,0-1.035,4.618,4.618,0,0,0-.194-1.019,2.1,2.1,0,0,0-.534-.882,1.116,1.116,0,0,0-.218-.154,1.674,1.674,0,0,0-.21-.081,1.221,1.221,0,0,0-.461,0,1.205,1.205,0,0,0-.752.534,2.807,2.807,0,0,0-.364.752,4.748,4.748,0,0,0-.2,1.213,2.872,2.872,0,0,0,.089.453Z" fill="#f2a57f"/>
          <path id="Path_1012" data-name="Path 1012" d="M65.831,47.543s-.137-.324.865-.4c0,0,1.124.21.461,1.707a4.853,4.853,0,0,0-.332,1.011c-.1.5.081,1.181-.186,1.618-.348.574-1.229.251-1.286-.413a3.785,3.785,0,0,1,.7-1.731A1.343,1.343,0,0,0,65.831,47.543Z" fill="#f2a57f"/>
          <path id="Path_1013" data-name="Path 1013" d="M65.346,51.013a.388.388,0,0,0-.081.081.987.987,0,0,0-.146.283.9.9,0,0,0-.049.21.809.809,0,0,0,0,.251v.267a2.048,2.048,0,0,0,.081.251,1.173,1.173,0,0,0,.113.226c.049.065.105.113.146.178a.647.647,0,0,0,.307.218.914.914,0,0,0,.34.089A2.32,2.32,0,0,0,65.9,52.7a.97.97,0,0,0-.081-.146.326.326,0,0,0-.073-.162,1.166,1.166,0,0,0-.081-.154.808.808,0,0,1-.065-.17,1.755,1.755,0,0,1-.089-.307,1.328,1.328,0,0,1-.04-.162v-.162A1.413,1.413,0,0,1,65.346,51.013Z" fill="#f2a57f"/>
          <path id="Path_1014" data-name="Path 1014" d="M33.292,48.352c.485,3.009-.356,5.662-1.885,5.969S28.253,52.4,27.767,49.4s.364-5.662,1.885-5.977S32.806,45.343,33.292,48.352Z" fill="#f4b78e"/>
          <path id="Path_1015" data-name="Path 1015" d="M31.456,47.543a1.75,1.75,0,0,0-.081-.445,5.476,5.476,0,0,0-.364-1.084c-.194-.4-.5-.865-.89-.89a.809.809,0,0,0-.291.04,1.618,1.618,0,0,0-.146.081,1.109,1.109,0,0,0-.105.089,1.545,1.545,0,0,0-.364.655,3.85,3.85,0,0,0-.178.857,4.044,4.044,0,0,0,0,.865c.049.3.065.615.113.874l.146.752c.065.235.113.453.154.647s.1.356.138.493c.081.275.121.437.121.437s-.081-.138-.2-.388c-.057-.129-.146-.275-.218-.461s-.162-.4-.251-.623a7.641,7.641,0,0,1-.243-.809c-.081-.307-.121-.566-.186-.874a4.044,4.044,0,0,1,0-1.035,4.569,4.569,0,0,1,.194-1.019,2.111,2.111,0,0,1,.534-.882,1.124,1.124,0,0,1,.218-.154,1.7,1.7,0,0,1,.21-.081,1.221,1.221,0,0,1,.461,0,1.205,1.205,0,0,1,.752.534,2.8,2.8,0,0,1,.364.752,4.732,4.732,0,0,1,.2,1.213,2.9,2.9,0,0,1-.089.453Z" fill="#f2a57f"/>
          <path id="Path_1016" data-name="Path 1016" d="M31.456,47.543s.138-.324-.865-.4c0,0-1.124.21-.461,1.707a4.853,4.853,0,0,1,.34,1.011c.1.5-.081,1.181.194,1.618.348.574,1.229.251,1.286-.413a3.785,3.785,0,0,0-.72-1.731A1.343,1.343,0,0,1,31.456,47.543Z" fill="#f2a57f"/>
          <path id="Path_1017" data-name="Path 1017" d="M31.941,51.013a.388.388,0,0,1,.081.081.987.987,0,0,1,.146.283.939.939,0,0,1,.049.21.809.809,0,0,1,0,.251v.267a1.924,1.924,0,0,1-.081.251,1.164,1.164,0,0,1-.113.226c-.04.065-.105.113-.146.178a.647.647,0,0,1-.307.218.922.922,0,0,1-.34.089,2.338,2.338,0,0,1,.154-.364,1.181,1.181,0,0,1,.081-.146.325.325,0,0,1,.073-.162,1.157,1.157,0,0,1,.081-.154.809.809,0,0,0,.065-.17,1.739,1.739,0,0,0,.121-.332,1.472,1.472,0,0,0,.04-.162v-.162A1.728,1.728,0,0,0,31.941,51.013Z" fill="#f2a57f"/>
          <path id="Path_1018" data-name="Path 1018" d="M48.829,15.877h-.485c-12.133.105-18.951,3.559-17.091,25.681L33.34,59.174a7.328,7.328,0,0,0,3.866,5.136L43.8,69.164s3.13,1.391,4.756,1.254c1.618.138,4.756-1.254,4.756-1.254L59.9,64.311a7.328,7.328,0,0,0,3.9-5.136L66,41.962C67.894,19.849,60.962,15.983,48.829,15.877Z" fill="#f4b78e"/>
          <ellipse id="Ellipse_481" data-name="Ellipse 481" cx="1.432" cy="2.079" rx="1.432" ry="2.079" transform="matrix(1, -0.006, 0.006, 1, 39.63, 40.928)" fill="#2f1806"/>
          <circle id="Ellipse_482" data-name="Ellipse 482" cx="0.615" cy="0.615" r="0.615" transform="translate(39.277 41.728)" fill="#fff"/>
          <ellipse id="Ellipse_483" data-name="Ellipse 483" cx="2.079" cy="1.432" rx="2.079" ry="1.432" transform="matrix(0.006, -1, 1, 0.006, 54.758, 45.064)" fill="#2f1806"/>
          <circle id="Ellipse_484" data-name="Ellipse 484" cx="0.615" cy="0.615" r="0.615" transform="translate(56.78 41.728)" fill="#fff"/>
          <path id="Path_1019" data-name="Path 1019" d="M50.746,54.192a4.044,4.044,0,0,1-1.149.76,4.853,4.853,0,0,1-2.111.4,4.586,4.586,0,0,1-.744-.105,4,4,0,0,1-.72-.251,6,6,0,0,1-.679-.332l-.283-.146L45,54.046a5.735,5.735,0,0,1-.057-.6q0-.291,0-.582a6.527,6.527,0,0,1,.162-1.149,5.128,5.128,0,0,1,.388-1.116,4.044,4.044,0,0,1,.671-1.035,5.468,5.468,0,0,1,.324,1.173,8.4,8.4,0,0,1,.138,1.116c0,.364,0,.728,0,1.084v.534a1.617,1.617,0,0,1-.057.526l-.372-.615c.154.089.291.218.453.307a4.044,4.044,0,0,0,.493.251,5.372,5.372,0,0,0,.526.194,5.146,5.146,0,0,1,.566.129,4.044,4.044,0,0,0,.6.065,5.45,5.45,0,0,0,.623,0A7.814,7.814,0,0,0,50.746,54.192Z" fill="#eba17d"/>
          <path id="Path_1020" data-name="Path 1020" d="M44.073,38.759a1,1,0,0,1-1.132.768,10.984,10.984,0,0,0-5.775.485,1.035,1.035,0,0,1-1.229-.566h0a.914.914,0,0,1,.461-1.286,12.982,12.982,0,0,1,6.794-.6A1.011,1.011,0,0,1,44,38.768Z" fill="#6b6c6a"/>
          <path id="Path_1021" data-name="Path 1021" d="M52.671,38.759a1,1,0,0,0,1.132.768,10.992,10.992,0,0,1,5.775.485,1.035,1.035,0,0,0,1.229-.566h0a.914.914,0,0,0-.5-1.286,12.982,12.982,0,0,0-6.794-.6,1.011,1.011,0,0,0-.809,1.205Z" fill="#6b6c6a"/>
          <path id="Path_1022" data-name="Path 1022" d="M49.242,61.965a3.818,3.818,0,0,1-1.707,0" fill="#6b6c6a"/>
          <path id="Path_1023" data-name="Path 1023" d="M44.543,58.43l.995,1.949A5.775,5.775,0,0,0,53.1,58.527a77.647,77.647,0,0,1-8.557-.1Z" fill="#fff"/>
          <path id="Path_1024" data-name="Path 1024" d="M66.325,16.791c1.424-6.2-6.107-7.134-6.107-7.134a58.753,58.753,0,0,1-13.6-1.8C31.253,5.7,29.482,13.33,29.482,13.33a25.07,25.07,0,0,0-1.658,8.816l1.836,21.28s1.561-.259,2.079,2.1l.38,2.8H33.89c-.445-8.776-.445-15.942-.445-15.942.138-2.58,0-6.317,3.931-6.762,1.941.364,3.963.639,5.929.809a49.662,49.662,0,0,0,11.324-.283c2.427-.3,6.641-1.246,8.355,1.084,1.205,1.618,1.173,4.3,1.229,6.244,0,1.06-.073,2.095-.138,3.154l-.995,11.7H65.2c.34-5.354,3.122-4.586,3.122-4.586,1.618-12.027,3.284-19.857,3.284-19.865s.59-6.632-5.322-7.11Z" fill="#6b6c6a"/>
          <path id="Path_1025" data-name="Path 1025" d="M66.907,13.872s1.739,1.537-.607,3.486l1.99,2.354s2.111-3.049,3.648-1.8c0,0-.493-1.788-2.758-1.262C69.172,16.662,70.086,14.074,66.907,13.872Z" fill="#6b6c6a"/>
          <path id="Path_1026" data-name="Path 1026" d="M38.242,77.462,42,97.376H37.91L29.167,80.714Z" fill="#eaf5f5"/>
          <path id="Path_1027" data-name="Path 1027" d="M59.061,77.559,55.6,97.376h3.81L67,80.406Z" fill="#eaf5f5"/>
          <path id="Path_1028" data-name="Path 1028" d="M48.522,84.871,47.147,77.81l-7.312-4.424-1.068,4.449Z" fill="#6cb8c9"/>
          <path id="Path_1029" data-name="Path 1029" d="M48.522,84.871l1.383-7.061,7.312-4.424,1.068,4.449Z" fill="#6cb8c9"/>
          <path id="Path_1030" data-name="Path 1030" d="M52.016,78.764h-6.98a2.135,2.135,0,0,0-.89,2.588l2.224,3.518H50.7l2.224-3.518a2.135,2.135,0,0,0-.906-2.588Z" fill="#eb524f"/>
          <path id="Path_1031" data-name="Path 1031" d="M52.493,79.169a3.85,3.85,0,0,1-.138,2.079,4.044,4.044,0,0,1-3.1,2.871,2.693,2.693,0,0,1-3.195-1.779c-.372-1.238-.574-2.645.218-3.567H45.036a2.135,2.135,0,0,0-.89,2.588l2.224,3.518H50.7l2.224-3.518a1.965,1.965,0,0,0-.429-2.192Z" fill="#eb524f"/>
          <path id="Path_1032" data-name="Path 1032" d="M46.362,84.871l-2.386,12.5h9.107l-2.394-12.5Z" fill="#eb524f"/>
          <path id="Path_1033" data-name="Path 1033" d="M47.147,77.81l-3.462,6.333L35.233,78.4l4.6-5.015Z" fill="#bee4e5"/>
          <path id="Path_1034" data-name="Path 1034" d="M49.905,77.81l3.454,6.333L61.811,78.4l-4.594-5.015Z" fill="#bee4e5"/>
          <path id="Path_1035" data-name="Path 1035" d="M63.089,48.352s.049-.582.129-1.5a1.173,1.173,0,0,0-.089.275c-.429,1.877-.728,4.853-1.941,6.471a4.586,4.586,0,0,1-3.543,1.812,12.942,12.942,0,0,1-2.9-.194,14.818,14.818,0,0,0-2.216-.518,3.988,3.988,0,0,0-2.176.671,3.235,3.235,0,0,1-2.718.129l-.809-.275h-.049a3.527,3.527,0,0,1-.76-.226h0a7.878,7.878,0,0,0-2.613-.4c-1.666.057-3.591.5-5.225,0-1.788-.518-2.677-2.022-3.405-3.64-.372-.857-.639-2.9-.9-3.8a2.256,2.256,0,0,0-.105-.283c0,.493.049,1,.073,1.5H32.2l.518,4.853.647,6.018a6.827,6.827,0,0,0,1.618,3.308c.105.121.226.259.348.38s.324.315.5.461a8.024,8.024,0,0,0,1.375.914l4.166,3.09L43.8,69.2s3.13,1.383,4.756,1.246c1.618.137,4.748-1.254,4.748-1.254l2.152-1.618,4.432-3.284a7.328,7.328,0,0,0,3.9-5.136l.518-4.044.218-1.86.558-4.853ZM47.535,61.989h1.707a3.866,3.866,0,0,1-1.707,0Zm5.557-3.454a5.767,5.767,0,0,1-7.555,1.844l-1-1.941a77.527,77.527,0,0,0,8.557.089Z" fill="#dfb293"/>
        </g>
      </g>
    </g>
  </g>
</svg>
