<svg xmlns="http://www.w3.org/2000/svg" xmlns:xlink="http://www.w3.org/1999/xlink" width="93" height="93" viewBox="0 0 93 93">
  <defs>
    <clipPath id="clip-path">
      <circle id="Ellipse_491" data-name="Ellipse 491" cx="46.5" cy="46.5" r="46.5" transform="translate(2.03 2.03)" fill="none"/>
    </clipPath>
  </defs>
  <g id="Avatars-08" transform="translate(-2.03 -2.03)">
    <g id="Layer_1" data-name="Layer 1">
      <circle id="Ellipse_486" data-name="Ellipse 486" cx="46.5" cy="46.5" r="46.5" transform="translate(2.03 2.03)" fill="#918af9"/>
      <g id="Group_2060" data-name="Group 2060" clip-path="url(#clip-path)">
        <path id="Path_1036" data-name="Path 1036" d="M72.8,74.219a3.56,3.56,0,0,0-.542-.21l-.534-.21-1.043-.413-.809-.3a9.53,9.53,0,0,0,.534-.809c-.607-.72-2.079-.388-1.885-1.885,0-.259.073-.518.1-.809a1.221,1.221,0,0,1-.1-.768q.267-2.095.566-4.263c-.809-.267-1.375-.526-1.229-.914a81.507,81.507,0,0,0,2.426-8.088h0l.413-3.332a5.469,5.469,0,0,1,.089-.72h0l.663-17.649v-.226a.734.734,0,0,0-.057-.34c-.057-.081,0-.1,0-.154-.226-1.181-.493-2.313-.809-3.389-.137-.485-.283-.963-.453-1.424l-2.815-1.5L60.93,23.408h0l-2.5-1.335-4.853-2.58a10.2,10.2,0,0,0-2.96-.4,11.453,11.453,0,0,0-5.12,1.132l-.356-1.375-1.157-4.457-2.1-1.116c-.6.461-1.205.963-1.788,1.5a35.476,35.476,0,0,0-5.662,6.6,37.466,37.466,0,0,0-3.106,5.6q-.5,1.108-.93,2.257c0,.113-.089.226-.121.34a34.3,34.3,0,0,0-1.8,7.587,32.992,32.992,0,0,0-.218,3.389v.049l2.022,12.739A77.647,77.647,0,0,0,34.99,65.92l-.453.59c.162.356.307.671.453.963a69.56,69.56,0,0,0-4.044,5.816h0l-.671.259-.526.21h0l-.324.121h0l-.364.146S23.4,76.063,24.047,85.939h.809c-.437,1.27-.809,2.58-1.181,3.923h0c-.065.2-.105.4-.162.615-1.561,6.341-3.349,11.186-3.7,13.928h0c-.154,1.165-.049,1.941.453,2.305a14.979,14.979,0,0,0,1.8,1.027c4.319,2.192,14.648,6.2,20.221,1.723l1.618-23.537H77.244C77.867,77.422,74.186,74.874,72.8,74.219Zm-29.3-61.957-.081-.1c.267-.178.7,0,.963-.113m-.647.3-.315-.218c.267-.178.744-.065,1-.218-.283.121-.413.332-.688.437Zm-.2.065-.113-.243c.267-.178.809-.146,1.092-.3-.283.081-.7.437-.979.534Z" fill="#fff"/>
        <path id="Path_1037" data-name="Path 1037" d="M72.8,74.219V76.8H30.259V73.515l.671-.259h0a69.561,69.561,0,0,1,4.044-5.816c-.138-.283-.283-.607-.453-.962l.453-.59A77.648,77.648,0,0,1,30.259,53.3V29.668H70.49a34.067,34.067,0,0,1,.809,3.389v.154l.372,2.063a.445.445,0,0,1,0,.1l-.906,16.055h0a5.469,5.469,0,0,1-.089.72l-.413,3.332a81.508,81.508,0,0,1-2.427,8.088c-.137.388.437.647,1.229.914q-.3,2.176-.566,4.263a1.221,1.221,0,0,0,.1.768c0,.267-.073.526-.1.809-.194,1.5,1.278,1.165,1.885,1.885a9.527,9.527,0,0,1-.534.809l.809.3,1.043.413.534.21A3.559,3.559,0,0,1,72.8,74.219Z" fill="#3f232a"/>
        <rect id="Rectangle_789" data-name="Rectangle 789" width="21.717" height="47.123" transform="translate(40.66 29.676)" fill="#270c14"/>
        <path id="Path_1038" data-name="Path 1038" d="M38.226,26.942v51.11H30.259V73.523l.671-.259h0a69.559,69.559,0,0,1,4.044-5.816c-.138-.283-.283-.607-.453-.962l.453-.59A77.648,77.648,0,0,1,30.259,53.3V29.539c0-.113.089-.226.121-.34q.429-1.149.93-2.257Z" fill="#3f232a"/>
        <path id="Path_1039" data-name="Path 1039" d="M56.384,57.427H44.745s.291,8.9-1.132,11.51H57.662C56.238,66.325,56.384,57.427,56.384,57.427Z" fill="#f4b78e"/>
        <path id="Path_1040" data-name="Path 1040" d="M44.68,62.927c2.168,1.019,4.352,2,6.843,1.763a14.082,14.082,0,0,0,5.031-1.5c-.21-2.928-.162-5.743-.162-5.743H44.745S44.826,60.1,44.68,62.927Z" fill="#dfa57e"/>
        <path id="Path_1041" data-name="Path 1041" d="M77.244,85.915,54.111,111.49,21.6,113.027l2.427-27.1c-.671-9.892,5.015-11.914,5.015-11.914l.364-.146h0l.324-.121h0l.526-.2.671-.267h0l7.28-2.839h0l2.427-.946,3.235-1.262h0l1.326-.518H56l1.343.526.315.113,4.716,1.844,7.482,2.92.809.3,1.043.413.534.21a3.558,3.558,0,0,1,.542.21C74.186,74.874,77.875,77.422,77.244,85.915Z" fill="#6954a0"/>
        <path id="Path_1042" data-name="Path 1042" d="M65.265,40.49c-.477,2.96.356,5.589,1.852,5.872s3.106-1.885,3.583-4.853-.356-5.589-1.86-5.872S65.742,37.53,65.265,40.49Z" fill="#f4b78e"/>
        <path id="Path_1043" data-name="Path 1043" d="M67.069,39.69a1.724,1.724,0,0,1,.081-.437,5.387,5.387,0,0,1,.364-1.068c.186-.4.493-.849.874-.874a.809.809,0,0,1,.291,0,1.181,1.181,0,0,1,.146.073,1.034,1.034,0,0,1,.105.089,1.521,1.521,0,0,1,.364.647,3.858,3.858,0,0,1,.178.809,4.175,4.175,0,0,1,0,.809c-.049.3-.057.6-.113.857l-.146.744c-.065.235-.105.445-.154.639s-.1.356-.137.485c-.081.267-.113.429-.113.429s.081-.138.2-.38c.057-.129.146-.267.218-.453s.162-.388.251-.615a7.23,7.23,0,0,0,.235-.809c.081-.315.121-.558.178-.857a3.97,3.97,0,0,0,0-1.011,4.5,4.5,0,0,0-.194-1,2.079,2.079,0,0,0-.526-.865,1.149,1.149,0,0,0-.21-.154,1.383,1.383,0,0,0-.2-.081,1.148,1.148,0,0,0-.453,0,1.173,1.173,0,0,0-.736.526,2.693,2.693,0,0,0-.356.744,4.731,4.731,0,0,0-.2,1.189A3,3,0,0,0,67.069,39.69Z" fill="#f2a57f"/>
        <path id="Path_1044" data-name="Path 1044" d="M67.069,39.69s-.137-.315.849-.388c0,0,1.108.2.453,1.674a4.853,4.853,0,0,0-.332.995c-.1.493.081,1.165-.186,1.618-.34.566-1.213.243-1.262-.4a3.7,3.7,0,0,1,.7-1.7,1.326,1.326,0,0,0-.226-1.8Z" fill="#f2a57f"/>
        <path id="Path_1045" data-name="Path 1045" d="M66.591,43.111a.566.566,0,0,0-.073.081.946.946,0,0,0-.146.275.849.849,0,0,0-.049.21.76.76,0,0,0,0,.243c0,.081,0,.178,0,.267a1.959,1.959,0,0,0,.081.251,1.221,1.221,0,0,0,.113.226,1.915,1.915,0,0,0,.146.17.631.631,0,0,0,.3.218.914.914,0,0,0,.34.081,2.168,2.168,0,0,0-.154-.356.882.882,0,0,0-.081-.138A.326.326,0,0,0,67,44.478a1.052,1.052,0,0,0-.081-.154.809.809,0,0,1-.065-.162,1.747,1.747,0,0,1-.121-.324,1.456,1.456,0,0,1-.04-.162c0-.057,0-.113,0-.162A2.632,2.632,0,0,1,66.591,43.111Z" fill="#f2a57f"/>
        <path id="Path_1046" data-name="Path 1046" d="M36.689,40.49c.477,2.96-.356,5.589-1.852,5.872s-3.106-1.885-3.583-4.853.356-5.589,1.86-5.872S36.212,37.53,36.689,40.49Z" fill="#f4b78e"/>
        <path id="Path_1047" data-name="Path 1047" d="M34.885,39.69a1.724,1.724,0,0,0-.081-.437,5.4,5.4,0,0,0-.364-1.068c-.186-.4-.493-.849-.874-.874a.809.809,0,0,0-.291,0,1.182,1.182,0,0,0-.146.073,1.133,1.133,0,0,0-.105.089,1.529,1.529,0,0,0-.364.647,3.809,3.809,0,0,0-.178.809,4.117,4.117,0,0,0,0,.809c.049.3.057.6.113.857l.146.744c.065.235.105.445.154.639s.1.356.138.485c.081.267.113.429.113.429s-.081-.138-.2-.38c-.057-.129-.146-.267-.218-.453s-.162-.388-.251-.615a7.23,7.23,0,0,1-.235-.809c-.081-.315-.121-.558-.178-.857a3.971,3.971,0,0,1,0-1.011,4.441,4.441,0,0,1,.194-1,2.079,2.079,0,0,1,.526-.865,1.173,1.173,0,0,1,.21-.154,1.367,1.367,0,0,1,.2-.081,1.157,1.157,0,0,1,.453,0,1.173,1.173,0,0,1,.736.526,2.7,2.7,0,0,1,.356.744,4.683,4.683,0,0,1,.2,1.189A2.952,2.952,0,0,1,34.885,39.69Z" fill="#f2a57f"/>
        <path id="Path_1048" data-name="Path 1048" d="M34.885,39.69s.137-.315-.849-.388c0,0-1.108.2-.453,1.674a4.8,4.8,0,0,1,.332.995c.1.493-.081,1.165.186,1.618.34.566,1.213.243,1.262-.4a3.7,3.7,0,0,0-.7-1.7A1.326,1.326,0,0,1,34.885,39.69Z" fill="#f2a57f"/>
        <path id="Path_1049" data-name="Path 1049" d="M35.354,43.111a.477.477,0,0,1,.073.081.93.93,0,0,1,.146.275.906.906,0,0,1,.049.21.809.809,0,0,1,0,.243v.267a1.917,1.917,0,0,1-.081.251,1.229,1.229,0,0,1-.113.226,1.869,1.869,0,0,1-.146.17.631.631,0,0,1-.3.218.914.914,0,0,1-.34.081,2.272,2.272,0,0,1,.154-.356.987.987,0,0,1,.081-.138.326.326,0,0,1,.073-.162,1.052,1.052,0,0,1,.081-.154.809.809,0,0,0,.065-.162,1.755,1.755,0,0,0,.121-.324,1.472,1.472,0,0,0,.04-.162c0-.057,0-.113,0-.162A1.827,1.827,0,0,0,35.354,43.111Z" fill="#f2a57f"/>
        <path id="Path_1050" data-name="Path 1050" d="M67.271,29.668c0,2.192,0,4.441-.154,6.665a11.634,11.634,0,0,1-.1,1.537q-.194,2.758-.566,5.411a6.979,6.979,0,0,1-.129.906h0a.6.6,0,0,1,0,.113c-.073.461-.154.906-.259,1.343a18.441,18.441,0,0,1-3.154,6.932c-.081.113-.154.226-.243.332s-.186.243-.291.364-.356.445-.55.655h0a28.835,28.835,0,0,1-5.452,4.853h0l-.688.477a10.337,10.337,0,0,1-4.578,1.529A10.458,10.458,0,0,1,46.5,59.36a12.106,12.106,0,0,1-1.747-1.124,24.192,24.192,0,0,1-4.093-3.324h0a20.108,20.108,0,0,1-1.836-2.079h0c-.218-.283-.421-.574-.615-.865l-.121-.2a16.468,16.468,0,0,1-2.338-5.929h0c-.057-.291-.1-.59-.138-.89,0-.162-.049-.324-.065-.485h0c-.065-.429-.113-.849-.17-1.286-.162-1.2-.324-2.427-.477-3.632h0c-.057-.388-.1-.76-.146-1.149h0v-.154q-.129-1.019-.235-2.046c-.226-2.119-.4-4.246-.469-6.374V27.1a40.441,40.441,0,0,1,.437-5.6,35.476,35.476,0,0,1,5.662-6.6c.59-.534,1.2-1.035,1.788-1.5s.93-.906,1.472-1.27l.663.1c.275-.1.307-.356.6-.453a21.644,21.644,0,0,1,5.9-1.262,25.147,25.147,0,0,1,6.05,1.343l.372.3A24.346,24.346,0,0,1,66.81,21.3a48.037,48.037,0,0,1,.4,4.974q0,.231,0,.461Q67.271,28.18,67.271,29.668Z" fill="#f4b78e"/>
        <path id="Path_1051" data-name="Path 1051" d="M44.874,32.483a7.781,7.781,0,0,0-5.1,1.3c0-2.9,5.071-2.637,5.071-2.637s.332,0,.388.526C45.238,31.666,45.295,32.556,44.874,32.483Z" fill="#3f232a"/>
        <path id="Path_1052" data-name="Path 1052" d="M56.521,33.809a8.9,8.9,0,0,1,5.468,1.3c0-2.9-5.452-2.637-5.452-2.637s-.332,0-.388.534C56.149,33,56.133,33.882,56.521,33.809Z" fill="#3f232a"/>
        <ellipse id="Ellipse_487" data-name="Ellipse 487" cx="1.432" cy="2.079" rx="1.432" ry="2.079" transform="matrix(1, -0.006, 0.006, 1, 41.629, 36.075)" fill="#2f1806"/>
        <circle id="Ellipse_488" data-name="Ellipse 488" cx="0.615" cy="0.615" r="0.615" transform="translate(41.275 36.875)" fill="#fff"/>
        <ellipse id="Ellipse_489" data-name="Ellipse 489" cx="2.079" cy="1.432" rx="2.079" ry="1.432" transform="matrix(0.01, -1, 1, 0.01, 57.002, 40.38)" fill="#2f1806"/>
        <circle id="Ellipse_490" data-name="Ellipse 490" cx="0.615" cy="0.615" r="0.615" transform="translate(58.77 36.875)" fill="#fff"/>
        <path id="Path_1053" data-name="Path 1053" d="M47.058,51.118c0,1.108,1.618,2.014,3.527,2.014s3.518-.9,3.527-2.014Z" fill="#fff"/>
        <path id="Path_1054" data-name="Path 1054" d="M53.925,51.434a3.64,3.64,0,0,0,1.149-.421s-.574-.243-1.383-.485c-2.079-.874-1.933.259-3.041.259-.558,0-1.108-.59-1.618-.518a10.175,10.175,0,0,0-1.415.259,6.964,6.964,0,0,0-1.383.485,4.287,4.287,0,0,0,1.254.485,14.366,14.366,0,0,1,2.257.113,3.567,3.567,0,0,0,1.569,0,10.684,10.684,0,0,1,2.621-.21Z" fill="#f27d7f"/>
        <path id="Path_1055" data-name="Path 1055" d="M54.378,51.005a5.4,5.4,0,0,1-4.044,1.618A5.168,5.168,0,0,1,46.9,51.005h-.7a.387.387,0,0,0,.073.17,7.183,7.183,0,0,0,.6,1.043l.4.534a5.476,5.476,0,0,0,.5.5l.267.251.315.21a2.637,2.637,0,0,0,.7.388,5.784,5.784,0,0,0,.809.259l.348.049h.429l.809-.105a6,6,0,0,0,.809-.259,2.766,2.766,0,0,0,.679-.38l.315-.21.267-.251a5.46,5.46,0,0,0,.5-.5l.4-.534a6.972,6.972,0,0,0,.59-1c0-.057.049-.105.073-.162Z" fill="#f27d7f"/>
        <path id="Path_1056" data-name="Path 1056" d="M50.585,53.666c2.888-.194,3.421-1.868,3.421-1.868a4.157,4.157,0,0,1-3.421,1.4.226.226,0,0,0-.194.251S50.439,53.674,50.585,53.666Z" fill="#fff"/>
        <path id="Path_1057" data-name="Path 1057" d="M71.307,33.057a13.75,13.75,0,0,0-2.152,2.685h0c-.21.348-.4.7-.566,1.027-.1.186-.186.38-.275.558a13.3,13.3,0,0,0-.736,2.014c-.081.267-.129.493-.178.671-.065.307-.089.477-.089.477V39.018h0a2.783,2.783,0,0,0-.073-.453h0a4.315,4.315,0,0,0-.105-.671,11.358,11.358,0,0,0-.267-1.14A7.126,7.126,0,0,0,63.9,32.459h0l-.275-.162a2.961,2.961,0,0,0-.534-.267l-.679-.146c-3.413-.744-6.2-1.488-8.477-2.208-7.021-2.176-9.261-4.2-9.981-5.249h0a1.893,1.893,0,0,1-.251-.477.4.4,0,0,1,0-.113h0a.647.647,0,0,1,0-.089l-.833-1.909-.461-1.149-2.346-5.961c.59-.534,1.2-1.035,1.788-1.5s1.019-.736,1.561-1.1l.2.073c.275-.1.526-.421.809-.51a23.731,23.731,0,0,1,6.147-1.181,22.029,22.029,0,0,1,5.864,1.326L57,12.23A24.079,24.079,0,0,1,66.818,21.3a33.017,33.017,0,0,1,3.235,6.94c.162.461.307.938.453,1.424C70.806,30.736,71.081,31.876,71.307,33.057Z" fill="#3f232a"/>
        <path id="Path_1058" data-name="Path 1058" d="M48.6,46.007h.073l.2-.049.639-.121c.243,0,.5-.073.76-.081s.51,0,.752,0l.728.049.364.04.356.049.34.057a2.671,2.671,0,0,1,.291,0H53.4l-.016.154a1.335,1.335,0,0,1-.065.2,1.893,1.893,0,0,1-.388.623,1.747,1.747,0,0,1-.356.315,2.055,2.055,0,0,1-.461.259,2.151,2.151,0,0,1-.542.162,2.273,2.273,0,0,1-.574.049,2.823,2.823,0,0,1-1.084-.251A2.556,2.556,0,0,1,49.1,46.9a2.224,2.224,0,0,1-.4-.59,1.221,1.221,0,0,1-.081-.2Z" fill="#f4a485"/>
        <path id="Path_1059" data-name="Path 1059" d="M71.687,73.8a8.557,8.557,0,0,0-2.54,3c-1.359,2.621-1.5,5.872-1.464,9.124H33.251a32.678,32.678,0,0,0-.089-3.632,18.8,18.8,0,0,0-.768-4.23,11.106,11.106,0,0,0-.485-1.254,6.924,6.924,0,0,0-1.618-2.313h-.049a4.166,4.166,0,0,0-.631-.469l-.186-.113.324-.121h0l.526-.21.671-.259h0l7.28-2.847,2.427-.946,3.235-1.27h0l.7.736,5.767,6.058,6.576-6.058.493-.485h0l.21-.186,4.716,1.844,7.482,2.92.809.3Z" fill="#6954a0"/>
        <path id="Path_1060" data-name="Path 1060" d="M46.193,22.9a10.749,10.749,0,0,0-2.515.995h0c-.372.194-.752.421-1.165.679h0a14.559,14.559,0,0,0-4.238,4.368.429.429,0,0,0,0,.065c-.129.2-.259.421-.388.647s-.251.453-.364.688h0a20.286,20.286,0,0,0-1.99,6.867h0a29.927,29.927,0,0,0-.178,3.332,9.3,9.3,0,0,0-.639-2.475c0-.057-.049-.113-.081-.178h0a4.335,4.335,0,0,0-.477-.809h0a2.014,2.014,0,0,0-1.99-.809h-.129a28.5,28.5,0,0,1-1.553-6.616,1.357,1.357,0,0,0-.057-.469q.429-1.149.93-2.257a37.465,37.465,0,0,1,3.106-5.6,35.475,35.475,0,0,1,5.662-6.6c.59-.534,1.2-1.035,1.788-1.5s.954-.736,1.5-1.1l.574,2.2,1.157,4.457.356,1.375Z" fill="#3f232a"/>
        <path id="Path_1061" data-name="Path 1061" d="M41.639,19.614l.971,5.516,1.343-.7Z" fill="#f4b78e"/>
        <path id="Path_1062" data-name="Path 1062" d="M71.711,35.33v-.049c-.049-.275-.21-1.157-.315-1.723a.627.627,0,0,0-.057-.34c-.057-.081,0-.1,0-.154-.226-1.181-.493-2.313-.809-3.389-.138-.485-.283-.963-.453-1.424a33.017,33.017,0,0,0-3.235-6.94C63.85,16.5,61.472,14.066,58.01,12.23h0a10.644,10.644,0,0,0-3.4-1.262,26.522,26.522,0,0,0-4.044-.429,19.825,19.825,0,0,0-5.816.946c-.332.105-1.068.582-1.343.679h0c-.51.332-1.011.688-1.529,1.084s-1.205.963-1.788,1.5a35.476,35.476,0,0,0-5.662,6.6,37.466,37.466,0,0,0-3.106,5.6q-.5,1.108-.93,2.257c0,.113-.089.226-.121.34a34.294,34.294,0,0,0-1.8,7.587,32.991,32.991,0,0,0-.218,3.389v.049A53.666,53.666,0,0,0,30.275,53.3,77.649,77.649,0,0,0,34.99,65.9l-.453.59c-1.108,1.464-2.338,3.235-3.591,5.225h0c-.226.356-.453.728-.671,1.108l-.049.081c-.162.275-.324.55-.477.809h0l-.138.243a61.132,61.132,0,0,0-4.74,10.394c-.178.51-.34,1.019-.5,1.553s-.315,1.043-.461,1.569h0c-.129.469-.259.938-.372,1.407-1.917,7.789-4.174,13.33-3.7,15.473h0a1.229,1.229,0,0,0,.38.8,15.619,15.619,0,0,0,1.941,1.1c4.384,2.2,14.559,6.091,20.108,1.618l1.513-21.984.105-1.553V82.881c4.9,1.027,6.592.582,6.592.582s9.342-1.132,15.926-6.705a19.453,19.453,0,0,0,1.618-1.553,16.986,16.986,0,0,0,1.755-2.16,9.529,9.529,0,0,0,.534-.809,4.484,4.484,0,0,0,.251-.413c.235-1.885-1.569-1.367-2.03-2.257a1.221,1.221,0,0,1-.1-.768Q68.7,66.7,69,64.537c.065-.485.121-.987.194-1.48.34-2.491.679-5.031.995-7.546l.413-3.332a5.468,5.468,0,0,1,.089-.72h0A108.561,108.561,0,0,0,71.711,35.33Zm-29.8-14.114.235-.235.1-.089h0a2.014,2.014,0,0,1,.186-.178l.324-.283.113-.129a12.262,12.262,0,0,1,2.24-1.48l.356-.178a12.132,12.132,0,0,1,4.352-1.157h0a5.427,5.427,0,0,1,.663,0,10.2,10.2,0,0,1,2.96.4,12.327,12.327,0,0,1,4.853,2.58,13.694,13.694,0,0,1,2.5,2.879h0a18.554,18.554,0,0,1,2.168,4.78c.154.485.291,1.011.421,1.553.081.348.154.7.226,1.068.105.55.2,1.116.275,1.715h0a39.8,39.8,0,0,1,.324,5.241c0,.752,0,1.48,0,2.192v.663a31.389,31.389,0,0,1-.251,3.575l-.073.72a40.8,40.8,0,0,1-1.205,6.471c-.1.332-.194.663-.291.987-.17.558-.356,1.084-.55,1.618h0a17.026,17.026,0,0,1-5.274,7.684h0l-.081.057h0a9.383,9.383,0,0,1-11.688.057h0l-.073-.049a14.7,14.7,0,0,1-3.988-4.691h0a23.852,23.852,0,0,1-1.909-4.157h0c-.218-.655-.429-1.343-.615-2.079l-.138-.55a53.7,53.7,0,0,1-1.294-12.5,36.026,36.026,0,0,1,.679-7.328h0c.049-.243.1-.461.146-.688.129-.542.275-1.051.421-1.553.057-.2.113-.4.186-.59a.679.679,0,0,1,0-.113,16.1,16.1,0,0,1,3.7-6.22Z" fill="#9dc86e"/>
        <path id="Path_1063" data-name="Path 1063" d="M35.055,65.847a40.038,40.038,0,0,0,6.568,6.883,18.961,18.961,0,0,0,8.169,4.295,9.035,9.035,0,0,0,4.4-.186,12.4,12.4,0,0,0,3.882-2.095,31.545,31.545,0,0,0,6.115-7.069l.146.073A19.412,19.412,0,0,1,59.11,75.99a10.28,10.28,0,0,1-9.593,2.338,19.954,19.954,0,0,1-8.428-4.982,40.506,40.506,0,0,1-6.171-7.409Z" fill="#82ac4c"/>
        <path id="Path_1064" data-name="Path 1064" d="M35.694,68.322a20.35,20.35,0,0,0,1.513,4.141,19.3,19.3,0,0,0,2.273,3.713,18.53,18.53,0,0,0,3.09,2.993,21.838,21.838,0,0,0,3.68,2.329v.081a10.838,10.838,0,0,1-2.152-.663c-.348-.146-.688-.315-1.027-.477l-1.011-.623a12.5,12.5,0,0,1-3.122-3.235,19.9,19.9,0,0,1-3.349-8.242Z" fill="#82ac4c"/>
        <path id="Path_1065" data-name="Path 1065" d="M64.311,39.9a97.31,97.31,0,0,1-1.432,16.387A34.432,34.432,0,0,1,60.7,64.319a16.791,16.791,0,0,1-2.184,3.64A7.158,7.158,0,0,1,55.1,70.442l-.1-.154A9.01,9.01,0,0,0,57.557,67.3a24.41,24.41,0,0,0,1.618-3.6A77.771,77.771,0,0,0,61.6,56.02c.631-2.637,1.132-5.314,1.529-8.007s.809-5.4,1-8.088Z" fill="#82ac4c"/>
        <path id="Path_1066" data-name="Path 1066" d="M35.694,77.575c-.558,1.925-1.06,3.866-1.521,5.816s-.922,3.9-1.294,5.864-.663,3.939-.979,5.9-.582,3.931-.736,5.945h-.081a24.6,24.6,0,0,1,0-6.05,46.97,46.97,0,0,1,1.149-5.937,117.6,117.6,0,0,1,3.357-11.566Z" fill="#82ac4c"/>
      </g>
    </g>
  </g>
</svg>
