<svg xmlns="http://www.w3.org/2000/svg" width="44.493" height="44.493" viewBox="0 0 44.493 44.493">
  <g id="Menu_Icon___Topology" data-name="Menu Icon _ Topology" transform="translate(0 0)">
    <g id="Group_8337" data-name="Group 8337">
      <path id="Path_6247" data-name="Path 6247" d="M31,15l-.7-.3A14.545,14.545,0,0,0,16.7,1.1L16.4.4a.842.842,0,0,0-.7-.4.752.752,0,0,0-.7.5l-.3.6A14.414,14.414,0,0,0,1.1,14.7L.5,15a.781.781,0,0,0-.4.4.731.731,0,0,0,.4,1l.7.3A14.414,14.414,0,0,0,14.8,30.3l.2.7a.752.752,0,0,0,.7.5h0a.752.752,0,0,0,.7-.5l.3-.6A14.414,14.414,0,0,0,30.3,16.8l.6-.3a.781.781,0,0,0,.4-.4A.714.714,0,0,0,31,15ZM15.7,28.9A13.2,13.2,0,1,1,29,15.7,13.166,13.166,0,0,1,15.7,28.9Z" transform="translate(6.514 6.497)" fill="#fff"/>
      <path id="Path_6247-2" data-name="Path 6247" d="M30.978,15l-.7-.3a14.545,14.545,0,0,0-13.6-13.6l-.3-.7a.842.842,0,0,0-.7-.4.752.752,0,0,0-.7.5l-.3.6a14.414,14.414,0,0,0-13.6,13.6l-.6.3a.781.781,0,0,0-.4.4.731.731,0,0,0,.4,1l.7.3a14.414,14.414,0,0,0,13.6,13.6l.2.7a.752.752,0,0,0,.7.5h0a.752.752,0,0,0,.7-.5l.3-.6a14.414,14.414,0,0,0,13.6-13.6l.6-.3a.781.781,0,0,0,.4-.4A.714.714,0,0,0,30.978,15Zm-15.3,13.9a13.2,13.2,0,1,1,13.3-13.2A13.166,13.166,0,0,1,15.678,28.9Z" transform="translate(0 22.219) rotate(-45)" fill="#fff"/>
    </g>
    <g id="settings-line" transform="translate(12.079 12.056)">
      <path id="Path_6248" data-name="Path 6248" d="M19.257,14.667a4.457,4.457,0,1,0,4.457,4.457A4.43,4.43,0,0,0,19.257,14.667Zm0,7.641a3.184,3.184,0,1,1,3.184-3.184A3.153,3.153,0,0,1,19.257,22.308Z" transform="translate(-9.005 -8.936)" fill="#fff"/>
      <path id="Path_6249" data-name="Path 6249" d="M22.28,10.754,20.5,10.181l-.382-.955.891-1.656a1.071,1.071,0,0,0-.191-1.21L19.287,4.832a1.071,1.071,0,0,0-1.21-.191l-1.656.891-.955-.382-.573-1.783a1.035,1.035,0,0,0-.955-.7H11.773a.893.893,0,0,0-.891.764l-.573,1.783A2.813,2.813,0,0,0,9.289,5.6L7.634,4.7a1.071,1.071,0,0,0-1.21.191L4.9,6.424A1.071,1.071,0,0,0,4.7,7.634l.828,1.592c-.127.318-.255.7-.382,1.019l-1.783.573a1.035,1.035,0,0,0-.7.955v2.165a1.014,1.014,0,0,0,.764.955l1.783.573.382.955L4.7,18.077a1.071,1.071,0,0,0,.191,1.21l1.528,1.528a1.071,1.071,0,0,0,1.21.191l1.656-.891.955.382.573,1.847a1.035,1.035,0,0,0,.955.7h2.165a1.035,1.035,0,0,0,.955-.7l.573-1.847.955-.382,1.656.891a1.071,1.071,0,0,0,1.21-.191l1.528-1.528a1.071,1.071,0,0,0,.191-1.21l-.891-1.656.382-.955,1.847-.573a1.035,1.035,0,0,0,.7-.955V11.773A1.09,1.09,0,0,0,22.28,10.754Zm-.509,2.993-2.292.7-.064.318L18.841,16.1l-.191.318,1.146,2.1L18.523,19.8l-2.1-1.146-.318.191a6.045,6.045,0,0,1-1.337.573l-.318.064-.7,2.292H11.964l-.7-2.292-.318-.064-1.337-.573-.318-.191L7.188,19.8,5.914,18.523l1.146-2.1L6.869,16.1A6.045,6.045,0,0,1,6.3,14.766l-.064-.318-2.292-.7V11.964l2.165-.637.127-.318a5.4,5.4,0,0,1,.573-1.4L7,9.289l-1.083-2.1L7.188,5.914,9.226,7.06l.318-.191a5.405,5.405,0,0,1,1.4-.573l.318-.127.7-2.229h1.783l.7,2.229.318.127a6.045,6.045,0,0,1,1.337.573l.318.191,2.1-1.146L19.8,7.188l-1.146,2.1.191.318a6.045,6.045,0,0,1,.573,1.337l.064.318,2.292.7Z" transform="translate(-2.667 -2.667)" fill="#fff"/>
    </g>
  </g>
</svg>
