<svg id="Menu_Icon___Topology" data-name="Menu Icon _ Topology" xmlns="http://www.w3.org/2000/svg" width="29.55" height="29.55" viewBox="0 0 29.55 29.55">
  <path id="Path_6220" data-name="Path 6220" d="M14.8,0A14.75,14.75,0,0,0,4.3,25.2a14.727,14.727,0,0,0,20.9,0A14.779,14.779,0,0,0,14.8,0Zm9.7,5.8a12.091,12.091,0,0,1-1.8.5.52.52,0,0,0-.4.2c-.6.6-1.4,1.3-1.7,1.2a2.577,2.577,0,0,1-1.3-.8V6.2c0-.8-.1-1.5-.7-1.7a.972.972,0,0,0-.9.1c-.1,0-.3.1-.4.1V4a.715.715,0,0,0-.5-.9c-.2-.1-.5-.2-.7-.3a1.689,1.689,0,0,0,.2-.5c.1-.2.2-.3.2-.5h0V1.6A13.572,13.572,0,0,1,24.5,5.8Zm-23,9A13.136,13.136,0,0,1,6.2,4.7h0a4.9,4.9,0,0,1,1.1,2c0,.1.1.2.2.3a1.555,1.555,0,0,1,.6.8A2.437,2.437,0,0,1,8.1,9v.4a6.448,6.448,0,0,1,.3,2,4.053,4.053,0,0,1-.9.5,1,1,0,0,0-.5.4,1.419,1.419,0,0,1-.9.8,2.212,2.212,0,0,0-1.9,2.4,8.081,8.081,0,0,0,1,3.1l.3.3a2.036,2.036,0,0,1,.7.6,4.1,4.1,0,0,1,.1,1.1.367.367,0,0,0,.1.3A2.673,2.673,0,0,1,6.9,23a.764.764,0,0,1-.5.2.781.781,0,0,0-.4.4l-.4.7A13.05,13.05,0,0,1,1.5,14.8ZM14.8,28a13.352,13.352,0,0,1-7.9-2.6l.4-.8a2.189,2.189,0,0,0,1-.9c.6-1.2-.1-2.9-.3-3.4a6.753,6.753,0,0,0-.2-1.4,3.447,3.447,0,0,0-1.2-1.2,6.154,6.154,0,0,1-.7-2.3c0-.8.4-.9.6-.9h.1a3.045,3.045,0,0,0,1.8-1.3A2.689,2.689,0,0,0,9.8,12a3.083,3.083,0,0,0,0-1.9,2.509,2.509,0,0,0-.2-1,4.845,4.845,0,0,0,0-1.7A2.805,2.805,0,0,0,8.6,6,5.9,5.9,0,0,0,7.4,3.8a13.493,13.493,0,0,1,7.4-2.3h.3c-.1.1-.1.1-.1.2a2.543,2.543,0,0,0-.4,1.7,1.673,1.673,0,0,0,1.1.9,1.658,1.658,0,0,0,.6,1.6,1.6,1.6,0,0,0,1.5.2V7.3a.764.764,0,0,0,.2.5,4.179,4.179,0,0,0,2.4,1.4h.2a2.28,2.28,0,0,0,1.9-.7,4.62,4.62,0,0,1,.7-.7,20.156,20.156,0,0,0,2.3-.7A12.893,12.893,0,0,1,28,14.8,13.187,13.187,0,0,1,14.8,28Z" transform="translate(0.05)" fill="#fff"/>
  <path id="Path_6221" data-name="Path 6221" d="M26,15.8a2.909,2.909,0,0,0-1.7-1.4,5.9,5.9,0,0,0-.8-.4l-.2-.1-.8-.7a.349.349,0,0,0-.2-.1,10.154,10.154,0,0,0-2.5-.6,6.109,6.109,0,0,0-1.4-.7H18a11.8,11.8,0,0,0-2,.4c-.1,0-.3.1-.3.2,0,0-.5.6-1,1.3-.9,1.4-1.1,1.9-1.1,2.3,0,.6.5,1.1,1.1,1.6l.6.6c0,.2.1.4.1.6.1.4.1.7.2,1.1a1.268,1.268,0,0,1-.1.6,5.284,5.284,0,0,0-.4,4.1,1.8,1.8,0,0,0,1.2,1.2,4.331,4.331,0,0,0,.5.1,7.269,7.269,0,0,0,3.1-1.4c.3-.2.7-.5,1-.7,1-.4,1.4-1.6,1.7-2.4.1-.2.1-.4.2-.5a3.771,3.771,0,0,1,1.6-1.2A3.907,3.907,0,0,0,25.8,18,3.241,3.241,0,0,0,26,15.8Zm-1.7,1.7a1.6,1.6,0,0,1-.7.9,5.485,5.485,0,0,0-2.2,1.8c-.1.2-.2.5-.3.7-.2.4-.5,1.4-.8,1.5a9.993,9.993,0,0,0-1.4.8,9.41,9.41,0,0,1-2.2,1.2h-.1a1.238,1.238,0,0,1-.2-.3,3.2,3.2,0,0,1,.3-2.7,3.871,3.871,0,0,0,.1-2.8,4.331,4.331,0,0,0-.1-.5c0-.6-.5-1-1.1-1.5L15,16a12.036,12.036,0,0,1,1.5-2.4c.4-.1.9-.2,1.4-.3h0a3.881,3.881,0,0,1,1.1.6.367.367,0,0,0,.3.1,11.8,11.8,0,0,1,2,.4l.8.7c.1.1.2.1.3.2a5.291,5.291,0,0,1,2.1,1.1A1.465,1.465,0,0,1,24.3,17.5Z" transform="translate(0.05)" fill="#fff"/>
</svg>
